<?xml version="1.0" standalone="no"?>
<!DOCTYPE svg PUBLIC "-//W3C//DTD SVG 20010904//EN"
 "http://www.w3.org/TR/2001/REC-SVG-20010904/DTD/svg10.dtd">
<svg version="1.0" xmlns="http://www.w3.org/2000/svg"
 width="1440.000000pt" height="600.000000pt" viewBox="0 0 1440.000000 600.000000"
 preserveAspectRatio="xMidYMid meet">
<metadata>
Created by potrace 1.16, written by Peter Selinger 2001-2019
</metadata>
<g transform="translate(0.000000,600.000000) scale(0.100000,-0.100000)"
fill="#000000" stroke="none">
<path d="M0 4340 c0 -1031 4 -1660 9 -1660 6 0 13 5 17 11 3 6 17 8 30 5 17
-5 27 -1 36 14 13 20 29 27 27 13 -4 -22 2 -43 11 -43 6 0 10 8 10 18 0 12 19
23 75 41 41 13 81 21 90 18 8 -4 15 -2 15 2 0 5 19 12 42 16 36 6 44 4 60 -16
l20 -24 -6 33 c-4 23 -2 32 8 32 8 0 16 -5 18 -12 3 -7 11 -9 24 -3 10 4 27 7
37 6 19 -3 24 25 5 32 -7 3 -4 6 6 6 11 1 28 -6 38 -16 10 -9 21 -13 26 -9 4
4 -2 14 -12 22 -19 13 -19 14 5 14 13 0 39 9 57 20 40 24 42 25 43 3 0 -15 3
-14 16 5 8 12 23 22 32 22 14 0 14 -2 1 -10 -17 -11 -16 -11 23 -16 20 -2 27
2 27 14 0 12 3 13 12 4 17 -17 31 -15 24 3 -7 18 8 20 22 2 14 -16 -25 -42
-80 -52 -20 -4 -39 -14 -42 -22 -3 -8 -14 -13 -23 -12 -10 1 -25 0 -33 -4 -44
-16 -85 -27 -105 -27 -13 0 -28 -7 -35 -15 -7 -8 -28 -17 -49 -20 -90 -14
-151 -28 -151 -36 0 -4 -15 -10 -32 -14 -32 -6 -64 -18 -101 -37 -10 -5 -22
-6 -27 -3 -6 4 -16 3 -23 -2 -17 -11 -97 -32 -124 -33 -23 0 -23 -3 -23 -115
0 -98 2 -115 16 -115 8 0 52 15 97 34 45 19 103 37 129 41 26 3 49 12 52 20 3
8 16 15 29 15 13 0 27 4 33 9 5 4 38 14 74 21 36 6 72 17 80 24 8 6 40 20 70
30 30 10 59 23 64 27 6 5 20 9 33 9 13 0 49 10 81 21 31 12 84 32 117 44 66
24 110 42 137 56 10 5 29 9 43 9 14 0 25 4 25 9 0 5 15 13 33 16 45 10 49 14
32 32 -18 18 -4 44 24 42 10 0 11 -2 3 -6 -16 -6 -15 -42 2 -49 7 -3 33 4 57
15 24 10 62 25 84 32 22 7 47 19 56 26 9 7 54 22 100 32 46 11 120 33 164 49
44 17 96 36 115 42 19 7 43 17 52 21 10 5 29 9 42 9 14 0 27 4 30 9 3 5 43 19
88 31 46 12 97 28 113 35 76 32 164 65 210 79 28 8 95 31 150 51 55 20 117 41
138 46 21 5 45 13 55 18 9 5 42 16 72 26 30 10 69 26 87 36 18 10 69 28 115
40 46 12 92 28 103 34 11 7 42 18 70 24 27 7 52 17 56 22 3 6 41 19 84 30 43
10 83 23 89 28 6 5 29 14 51 20 22 7 58 20 80 31 22 10 67 24 100 31 33 6 71
18 83 26 13 8 47 21 75 29 55 16 301 106 352 129 50 23 124 45 148 44 16 0 11
-4 -17 -15 -21 -8 -44 -18 -50 -23 -6 -4 -29 -14 -51 -21 -22 -7 -72 -28 -112
-46 -40 -19 -79 -34 -87 -34 -8 0 -16 -5 -18 -10 -2 -6 -32 -17 -68 -26 -36
-8 -69 -20 -75 -27 -5 -7 -44 -22 -85 -34 -96 -27 -181 -58 -248 -89 -29 -13
-62 -24 -73 -24 -11 0 -22 -7 -25 -15 -4 -8 -10 -13 -15 -10 -4 3 -48 -10 -96
-28 -48 -19 -117 -41 -152 -50 -35 -9 -68 -23 -75 -30 -6 -8 -29 -17 -51 -21
-21 -3 -52 -15 -67 -26 -15 -11 -34 -20 -43 -20 -24 0 -95 -24 -95 -32 0 -4
60 -6 133 -3 501 14 593 18 601 25 5 5 19 5 31 0 12 -5 47 -5 77 -1 30 4 73 6
96 5 23 -1 40 2 37 6 -3 5 13 11 35 15 22 4 40 11 40 16 0 6 -15 7 -36 3 -25
-5 -39 -3 -44 7 -7 10 -15 10 -48 0 -28 -10 -51 -11 -85 -4 -45 10 -102 5
-166 -16 -28 -9 -36 -8 -46 6 -7 9 -17 13 -23 9 -6 -4 -21 -2 -32 4 -17 9 -20
8 -21 -7 0 -11 -3 -13 -6 -5 -2 6 -22 12 -43 12 -39 0 -60 14 -44 30 13 13
142 21 149 10 4 -6 14 -6 26 1 13 7 24 7 32 1 17 -14 67 -3 67 15 0 9 6 13 15
10 8 -4 17 -2 20 2 2 5 21 12 40 15 19 4 35 11 35 16 0 13 -77 13 -82 0 -4
-12 -68 -2 -68 11 0 5 14 9 30 9 18 0 33 6 36 15 8 19 34 19 34 0 0 -9 9 -15
23 -14 24 0 69 17 50 18 -7 1 -13 8 -13 16 0 12 20 15 108 17 136 3 152 3 237
13 70 8 70 8 38 21 -17 8 -34 18 -38 24 -9 15 -25 12 -25 -5 0 -9 -9 -15 -21
-15 -15 0 -19 5 -15 15 4 10 -1 14 -16 12 -40 -4 -28 18 23 42 34 16 54 20 60
14 22 -22 90 32 74 57 -9 14 35 22 50 10 12 -10 18 -10 30 0 10 9 15 9 15 1 0
-16 30 -14 36 3 3 8 19 18 35 21 31 7 177 16 298 18 49 1 76 6 78 15 3 6 9 12
14 12 6 0 8 -4 5 -9 -3 -5 10 -11 29 -13 27 -3 39 1 50 16 14 21 14 21 14 -1
1 -26 7 -27 41 -9 15 9 31 11 41 6 16 -9 79 -11 79 -2 0 3 -8 11 -18 18 -15
12 -13 13 19 14 39 0 62 -26 37 -41 -7 -5 5 -6 27 -3 22 4 46 14 53 23 10 12
15 13 21 3 8 -13 41 -6 41 9 0 15 28 10 34 -7 9 -22 8 -24 -8 -18 -8 3 -17 0
-21 -6 -5 -8 5 -10 31 -8 27 2 40 8 42 21 2 12 -3 17 -18 17 -12 0 -18 5 -15
10 8 13 61 13 85 0 13 -7 21 -7 25 0 3 5 27 10 52 10 35 0 44 3 40 14 -4 10 5
15 34 18 26 2 39 -1 39 -9 0 -9 7 -8 27 2 27 14 112 11 144 -6 12 -6 18 -3 22
11 5 21 37 28 37 9 0 -5 3 -8 8 -6 4 3 28 2 54 -3 38 -5 54 -3 78 11 25 16 30
16 30 4 0 -19 16 -19 23 0 7 16 79 12 85 -5 5 -13 32 -13 32 0 0 6 -6 11 -12
11 -7 1 9 5 36 9 50 6 106 -6 128 -28 17 -17 31 -15 24 4 -5 13 -1 15 21 9 22
-5 25 -4 15 8 -10 11 -4 14 33 14 25 0 45 -5 45 -10 0 -5 7 -4 15 3 14 11 71
15 180 11 30 -1 105 5 115 9 15 7 57 -4 67 -16 7 -11 13 -12 18 -4 4 6 15 8
26 5 11 -4 19 -2 19 6 0 8 4 8 13 1 6 -5 22 -13 34 -16 18 -6 22 -4 17 8 -6
17 5 19 76 18 50 -1 72 9 40 18 -48 15 -127 11 -134 -6 -5 -14 -8 -14 -28 0
-23 16 -119 16 -882 1 -137 -3 -247 -3 -245 0 10 9 402 26 734 31 187 3 355 7
373 10 l32 5 -5 97 c-2 53 -7 153 -10 222 -8 164 -8 164 -25 172 -12 5 -11 7
3 7 25 1 11 21 -14 21 -12 0 -19 5 -16 13 2 6 14 11 26 10 20 -3 21 1 21 97 0
60 4 100 10 100 6 0 10 -31 10 -72 1 -241 12 -662 16 -670 4 -6 31 -7 64 -3
65 8 100 1 100 -20 0 -14 10 -18 70 -31 58 -12 101 -11 195 3 65 10 233 15
605 17 283 2 518 4 523 5 4 1 12 12 17 26 9 24 13 25 102 27 51 1 102 1 113 0
11 0 61 3 110 9 69 7 890 16 939 10 6 -1 6 -5 0 -11 -5 -5 -163 -11 -379 -14
-666 -10 -855 -18 -855 -36 0 -22 206 -27 222 -5 5 7 13 6 25 0 10 -6 34 -10
53 -9 19 1 78 2 130 2 52 0 118 1 145 2 28 2 60 3 73 2 36 -3 54 -2 117 1 33
2 64 1 70 -2 17 -9 55 -10 50 0 -4 5 -1 9 4 9 6 0 11 -6 11 -12 0 -10 2 -10 8
0 6 8 40 15 93 18 238 14 230 12 255 39 23 25 24 25 195 25 182 0 218 -8 78
-16 -155 -10 -194 -12 -226 -13 -18 -1 -33 -6 -33 -12 0 -9 21 -10 71 -6 65 5
72 4 76 -13 6 -22 18 -26 29 -9 5 9 34 9 103 4 53 -5 141 -9 196 -11 55 -1
183 -7 285 -13 102 -6 254 -13 339 -16 84 -4 164 -11 178 -16 13 -5 36 -6 50
-3 18 5 24 3 19 -5 -10 -16 13 -14 30 3 22 23 17 34 -18 39 -18 2 -10 3 17 1
28 -2 127 -8 220 -14 94 -6 199 -16 235 -21 122 -19 285 -31 451 -33 91 -1
171 -6 179 -11 9 -5 15 -4 18 3 6 19 43 15 40 -5 -4 -20 35 -29 181 -42 80 -7
97 -12 113 -31 20 -24 98 -41 98 -21 0 6 -16 11 -35 11 -47 0 -44 18 4 26 22
4 42 13 45 21 4 11 14 13 36 8 17 -4 68 -8 113 -9 52 -2 95 -9 115 -19 18 -9
40 -13 48 -10 8 3 14 -1 14 -11 0 -10 9 -16 25 -16 19 0 25 5 23 18 -2 12 5
18 24 20 16 2 28 -1 28 -7 0 -6 8 -11 18 -11 14 0 14 -2 3 -9 -16 -10 22 -16
199 -31 58 -5 148 -14 200 -19 52 -5 140 -12 195 -15 108 -6 168 -11 345 -28
63 -7 119 -11 124 -9 5 1 59 -3 120 -9 193 -21 290 -30 331 -32 39 -2 40 -1
43 33 2 29 -1 38 -20 47 l-23 11 23 0 22 1 0 559 0 560 -22 3 c-18 2 -23 10
-25 33 -1 17 -4 42 -8 58 -7 24 -5 27 19 27 19 0 26 5 26 20 0 19 -8 23 -40
21 -10 0 -11 1 -3 5 19 8 16 35 -4 50 -17 13 -17 15 0 28 10 8 17 22 15 33 -2
13 3 18 20 17 l22 -1 0 288 0 288 -22 4 -23 4 23 2 c22 1 22 2 22 166 l0 165
-36 0 -36 0 7 -162 c4 -90 8 -165 8 -168 3 -16 -15 -90 -22 -90 -5 0 -12 -19
-16 -42 -8 -43 -8 -43 -15 -13 -4 17 -8 130 -9 253 l-1 223 -570 -1 -570 -2
-2 -56 c0 -31 -2 -180 -2 -330 l-1 -274 50 6 c35 5 46 3 35 -4 -8 -5 -42 -10
-75 -10 -34 0 -66 -5 -72 -11 -7 -7 -20 -9 -30 -5 -15 6 -15 8 -3 16 8 6 27
10 41 10 l27 0 -3 268 c-2 147 -4 279 -4 295 -1 24 -5 27 -36 27 -43 0 -46 18
-5 27 73 14 30 44 -62 42 -35 -1 -55 -3 -46 -6 16 -4 16 -6 2 -28 -12 -18 -12
-24 -2 -28 9 -4 7 -6 -4 -6 -9 -1 -18 4 -20 11 -3 7 -12 9 -23 4 -15 -6 -17
-9 -6 -16 8 -4 11 -15 8 -24 -7 -19 -28 -22 -25 -3 2 6 -4 12 -12 12 -9 0 -14
-7 -12 -17 2 -14 -4 -18 -30 -18 -30 -1 -31 -2 -16 -14 17 -12 17 -14 -4 -32
-19 -17 -21 -17 -15 -2 4 12 2 15 -8 12 -8 -3 -14 -9 -13 -12 3 -25 -4 -34
-12 -16 -8 20 -27 24 -79 15 -2 -1 2 -7 8 -15 8 -10 9 -16 1 -21 -6 -3 -7 -11
-4 -17 4 -6 1 -9 -7 -6 -8 3 -15 14 -17 26 -2 12 -8 20 -13 16 -5 -3 -7 -10
-3 -15 6 -11 -37 11 -46 23 -3 4 -11 3 -19 -1 -10 -7 -11 -13 -2 -30 10 -19 9
-21 -12 -21 -18 0 -23 5 -23 23 1 12 -3 21 -9 20 -5 0 -17 6 -24 15 -13 14
-12 15 8 9 18 -4 21 -2 16 11 -4 9 -10 26 -13 37 -3 11 -14 28 -24 39 -17 19
-18 19 -18 1 0 -10 8 -24 18 -32 16 -14 16 -14 -1 -9 -10 3 -23 6 -28 6 -6 0
-8 14 -5 31 2 17 1 42 -4 55 l-10 24 -194 0 -194 -1 -6 -27 c-3 -15 -5 -193
-3 -395 2 -315 0 -369 -13 -377 -8 -5 -16 -8 -18 -6 -1 2 -3 167 -3 367 0 243
-4 367 -11 376 -6 7 -8 24 -6 38 5 22 2 25 -24 25 -36 0 -71 -17 -62 -31 3 -6
-2 -16 -12 -24 -15 -11 -16 -15 -5 -29 9 -11 10 -16 2 -16 -6 0 -11 -5 -11
-11 0 -7 -8 -18 -17 -26 -13 -10 -15 -16 -5 -19 20 -9 14 -51 -8 -57 -12 -3
-20 -14 -20 -25 0 -12 -13 -35 -30 -53 -16 -18 -30 -42 -32 -53 -2 -12 -13
-25 -25 -31 -13 -5 -23 -17 -23 -26 0 -24 -36 -52 -59 -46 -22 5 -35 -25 -18
-42 13 -13 4 -13 -48 -1 -28 6 -42 6 -47 -3 -6 -9 -13 -6 -24 8 -12 17 -16 18
-24 6 -7 -12 -15 -13 -43 -4 l-35 11 -6 -47 c-3 -25 -8 -117 -12 -203 -5 -130
-4 -158 7 -158 8 1 64 7 124 16 304 41 436 56 443 50 9 -10 -229 -48 -403 -66
-60 -5 -130 -14 -155 -20 -25 -5 -64 -11 -87 -13 l-43 -5 0 248 c0 239 -4 310
-20 310 -4 0 -10 -39 -13 -87 -6 -89 -22 -152 -41 -165 -15 -10 -34 10 -38 40
-2 16 -9 27 -18 27 -9 0 -14 8 -12 18 2 10 -2 25 -8 32 -13 16 -24 122 -21
211 1 34 -3 73 -8 87 -6 15 -6 29 -1 32 5 3 7 24 5 46 -2 23 0 50 6 60 5 10
14 28 19 39 10 20 7 20 -3706 20 l-3716 0 6 -27 c16 -70 35 -273 39 -423 4
-127 3 -153 -4 -112 -13 62 -28 69 -24 10 2 -24 6 -130 9 -236 l6 -193 -22 6
c-41 13 -110 49 -99 53 6 2 27 -6 47 -17 19 -12 39 -21 45 -21 14 0 11 99 -5
177 -8 37 -17 117 -21 178 -8 114 -16 135 -55 135 -22 0 -22 -3 -18 -100 2
-66 0 -99 -7 -97 -6 2 -15 97 -23 238 -8 129 -16 236 -18 238 -2 3 -10 -1 -16
-7 -18 -18 -38 -15 -38 6 0 12 -3 14 -8 4 -9 -14 -9 -43 2 -427 7 -219 6 -258
-5 -247 -11 10 -15 82 -20 325 -3 172 -10 324 -14 340 -9 33 -22 42 -39 28 -7
-6 -16 -8 -19 -4 -4 3 -7 -9 -7 -28 0 -19 -6 -41 -12 -47 -10 -10 -10 -15 -1
-20 13 -8 12 -49 -1 -71 -12 -19 -9 -323 4 -355 7 -19 7 -33 -1 -47 -5 -11 -9
-34 -7 -52 2 -26 9 -33 36 -41 17 -5 32 -14 32 -20 0 -14 -181 42 -249 77 -25
12 -50 21 -57 19 -7 -1 -15 2 -19 8 -3 5 0 7 8 4 12 -4 13 37 9 268 -2 150 -1
270 4 265 4 -4 10 -125 13 -270 l6 -262 45 -13 c25 -7 63 -22 86 -33 59 -28
64 -25 64 30 0 47 -2 50 -30 56 -38 8 -38 24 0 38 29 11 30 14 27 62 -2 28 -6
55 -10 61 -3 6 -7 28 -9 48 -3 43 -11 52 -28 31 -15 -18 -34 -20 -24 -3 4 6
-1 17 -11 25 -13 9 -15 13 -5 13 9 0 6 6 -8 16 -12 8 -20 20 -17 25 4 5 0 9
-7 9 -9 0 -9 3 2 10 12 7 12 10 1 10 -8 0 -11 6 -7 15 4 10 -3 20 -19 27 -25
11 -34 28 -15 28 6 0 10 -4 10 -10 0 -5 5 -10 10 -10 16 0 12 18 -9 39 -28 28
-45 61 -31 61 6 0 4 7 -4 16 -12 11 -13 20 -6 34 7 13 6 21 -4 29 -8 7 -12 20
-9 30 3 11 -4 27 -17 39 l-22 20 21 21 20 20 -614 1 -615 0 0 -72 c0 -105 21
-238 37 -238 8 0 36 -11 63 -25 26 -13 70 -29 97 -35 49 -11 240 -85 258 -100
6 -5 27 -11 49 -15 l39 -8 -6 204 c-6 201 5 218 18 29 17 -260 16 -249 38
-265 12 -8 18 -15 13 -15 -13 0 -366 119 -401 135 -58 27 -154 52 -168 44 -11
-7 -13 -49 -11 -241 2 -222 0 -229 -20 -63 -3 28 -8 120 -11 205 -4 136 -11
229 -21 280 -1 8 -3 52 -3 98 l-1 82 -549 0 c-464 0 -550 -2 -554 -14 -3 -8
-2 -43 3 -78 13 -84 13 -518 1 -518 -15 0 -26 23 -13 28 8 2 9 9 2 21 -5 10
-9 26 -9 37 1 10 -2 78 -5 149 -4 72 -9 185 -12 253 l-6 122 -140 0 -141 0 7
-130 c4 -72 4 -155 0 -186 -12 -96 -16 -68 -29 184 l-7 132 -234 0 -234 0 0
-1660z m2685 1640 c4 -6 2 -16 -3 -23 -6 -7 -7 -31 -2 -62 5 -27 12 -148 16
-268 7 -200 6 -217 -9 -211 -13 5 -17 19 -17 58 0 28 -3 156 -6 284 -4 160 -3
232 4 232 6 0 14 -5 17 -10z m10326 -229 c1 -78 6 -129 13 -133 10 -7 12 -52
7 -222 -1 -48 -3 -56 -14 -47 -8 6 -17 8 -20 4 -4 -3 -7 8 -7 26 0 19 4 30 10
26 6 -3 10 -2 10 4 0 5 -5 11 -11 13 -11 4 -20 466 -10 498 10 30 20 -46 22
-169z m-3543 -366 c0 -154 -4 -302 -8 -330 l-8 -50 -2 45 c-2 25 -4 52 -6 60
-1 8 -3 33 -4 55 l-3 40 -8 -40 c-7 -34 -3 175 5 270 1 17 -2 36 -7 43 -6 8
-5 12 4 12 10 0 10 3 1 12 -14 14 -17 102 -2 93 5 -3 12 17 16 45 15 112 23
14 22 -255z m-1628 260 c0 -12 23 -15 122 -17 l121 -3 2 -97 c1 -53 6 -103 11
-110 6 -8 8 -99 6 -230 l-4 -218 -659 0 -659 0 0 68 c-1 37 -3 134 -6 215 -6
144 -5 149 15 154 20 5 21 12 21 115 l0 110 176 -7 c144 -6 178 -5 185 6 7 12
10 12 18 1 6 -11 66 -13 311 -9 265 4 304 7 312 21 11 20 28 21 28 1z m316
-366 c1 -170 -2 -309 -6 -309 -8 0 -20 186 -20 327 0 56 -4 104 -9 108 -6 3
-6 18 0 38 5 17 9 50 9 72 0 47 10 88 19 80 3 -4 6 -146 7 -316z m4814 31 c0
-5 -3 -10 -7 -10 -5 0 -73 -9 -153 -21 -80 -11 -183 -25 -230 -30 -47 -6 -132
-18 -190 -26 -133 -21 -250 -28 -250 -15 0 11 39 17 215 32 72 6 139 15 150
20 11 5 101 16 200 25 99 9 196 20 215 25 49 11 50 11 50 0z m-4870 -490 c0
-113 3 -140 14 -140 21 0 23 -22 19 -170 -4 -159 -6 -163 -91 -153 l-55 6 6
-129 c4 -71 7 -168 7 -216 l0 -88 77 0 c94 0 88 -14 -8 -17 -107 -3 -104 -10
-108 247 -3 213 -12 284 -26 206 -7 -35 -3 -154 12 -351 3 -51 11 -83 20 -90
10 -7 -41 -11 -174 -13 -265 -3 -800 -15 -915 -20 -84 -3 -98 -1 -98 12 0 16
48 23 122 18 25 -2 26 0 21 36 -7 64 -18 393 -15 480 2 53 6 80 13 76 7 -4 9
11 7 42 l-3 47 -72 -2 c-49 -2 -73 1 -73 9 0 7 -8 9 -20 5 -11 -4 -20 -2 -20
4 0 6 9 11 20 11 19 0 20 7 20 160 l0 160 293 2 c160 2 457 4 660 5 l367 2 0
-139z m-6010 76 c0 -7 7 -19 15 -26 8 -7 13 -15 11 -19 -2 -3 2 -15 9 -25 14
-18 36 -19 76 -2 13 5 18 0 23 -25 7 -36 6 -39 -21 -44 -10 -2 -18 -4 -18 -5
0 -8 -123 -5 -132 2 -17 13 -17 130 -1 146 16 16 38 15 38 -2z m262 -114 c18
-24 62 -51 81 -48 8 1 22 8 31 15 9 7 17 11 17 7 1 -3 2 -9 3 -13 1 -5 5 -14
10 -21 12 -19 -2 -82 -19 -82 -7 0 -17 -9 -20 -20 -3 -11 -13 -20 -21 -20 -8
0 -14 -4 -14 -9 0 -5 -9 -13 -20 -16 -11 -4 -17 -11 -14 -17 7 -10 -15 -9 -56
4 -8 3 -12 3 -7 1 4 -3 7 -11 7 -19 0 -14 15 -18 58 -14 17 1 22 -4 22 -24 0
-14 0 -28 0 -31 0 -3 -3 -4 -7 -2 -5 1 -7 8 -5 15 2 7 -8 12 -28 12 -16 0 -30
-4 -30 -10 0 -5 3 -9 8 -9 16 3 32 -1 32 -8 0 -5 -21 -8 -47 -8 -27 0 -63 -8
-80 -17 -20 -10 -35 -13 -39 -7 -4 6 -11 6 -19 -1 -8 -6 -33 -13 -57 -15 -24
-1 -47 -4 -53 -5 -27 -6 -38 2 -15 12 14 6 31 10 39 9 10 -2 12 4 7 21 -3 13
-6 34 -6 48 l-1 25 -15 -27 c-23 -44 -44 -36 -44 17 0 44 15 60 26 30 7 -18
24 -20 24 -2 0 7 5 18 11 24 15 15 49 5 42 -13 -3 -8 0 -14 6 -14 7 0 14 7 17
15 3 8 24 20 45 26 21 7 39 16 39 21 0 5 25 7 55 4 68 -6 120 8 139 36 17 24
14 34 -6 22 -14 -9 -17 -10 -120 -19 -54 -5 -73 -3 -98 11 -52 31 -37 40 63
35 51 -3 59 7 28 38 -13 13 -23 16 -36 9 -15 -9 -15 -7 -6 11 11 19 38 40 53
41 4 0 13 -8 20 -18z m8233 -36 c22 -9 35 -22 37 -38 4 -26 -29 -78 -50 -78
-8 0 -12 -9 -10 -22 3 -26 -22 -34 -78 -24 -24 5 -34 13 -36 29 -2 16 -11 23
-33 25 -63 6 -78 12 -65 27 10 13 8 15 -14 15 -28 0 -33 -9 -15 -27 16 -16
-40 -27 -91 -18 -39 7 -40 8 -40 46 0 30 3 37 15 33 18 -7 20 -24 3 -24 -6 0
-9 -2 -6 -5 3 -4 18 -3 33 1 23 6 25 8 11 16 -25 14 -19 25 20 38 37 13 84 6
96 -13 5 -9 10 -9 20 1 17 17 49 15 64 -5 12 -16 15 -16 23 -3 8 11 46 30 79
39 1 1 18 -5 37 -13z m263 -14 c4 -27 22 -29 22 -2 0 11 3 20 8 21 4 0 19 3
35 5 36 6 97 -23 97 -46 0 -20 -30 -31 -52 -19 -7 4 -20 4 -28 -1 -12 -7 -9
-15 15 -40 25 -26 27 -33 15 -41 -8 -5 -24 -7 -35 -4 -11 2 -26 5 -33 5 -8 0
-11 7 -7 19 4 13 -1 21 -17 26 -35 12 -68 12 -68 1 0 -6 -6 -4 -12 3 -10 11
-10 14 0 18 6 3 12 19 12 37 0 18 3 36 7 40 14 13 38 1 41 -22z m-2658 -117
c10 -12 16 -13 27 -3 10 8 17 8 21 2 4 -6 15 -13 25 -17 10 -4 17 -17 17 -32
0 -27 -17 -34 -26 -10 -4 8 -13 15 -21 15 -13 0 -13 -3 -2 -16 7 -9 22 -20 34
-24 11 -4 27 -21 35 -36 8 -16 22 -40 32 -53 10 -13 18 -37 18 -52 0 -28 -1
-29 -53 -29 -39 0 -59 5 -74 19 -21 20 -21 20 -26 0 -3 -10 -10 -19 -16 -19
-7 0 -11 30 -11 83 0 45 -3 106 -6 135 -7 54 2 66 26 37z m-3637 -51 c-2 -16
5 -24 22 -28 51 -13 22 -23 -80 -29 -139 -7 -145 -5 -145 45 l0 39 103 -3 c98
-3 102 -4 100 -24z m-2982 -5 c15 -7 24 -7 34 1 8 6 40 10 77 8 l63 -3 -1 -60
c-1 -33 2 -62 7 -65 5 -4 11 -20 15 -37 5 -25 2 -33 -15 -42 -16 -9 -19 -16
-11 -35 9 -24 -10 -102 -22 -90 -5 5 -28 11 -50 13 -5 1 -8 7 -8 15 0 7 -9 16
-19 19 -15 3 -21 -1 -23 -17 -2 -15 -11 -22 -32 -24 -16 -2 -39 -9 -50 -16
-12 -7 -39 -11 -61 -10 -22 2 -65 4 -95 5 -30 1 -59 5 -65 9 -15 10 -106 5
-138 -8 -39 -16 -45 -15 -49 8 -4 25 -23 27 -23 2 0 -14 -10 -17 -70 -17 l-70
0 -3 50 c-2 30 -9 53 -18 58 -8 4 -14 17 -14 27 0 20 -16 34 -40 35 -8 0 -14
6 -12 13 1 6 -8 12 -20 13 -14 1 -5 7 24 16 51 15 77 45 59 67 -15 18 6 36 41
36 20 0 26 -4 22 -14 -3 -8 -12 -12 -20 -9 -8 3 -14 0 -14 -6 0 -11 26 -16 68
-12 23 2 31 -14 10 -22 -23 -8 -2 -17 58 -27 77 -13 141 -13 165 1 36 19 9 29
-77 29 l-84 0 0 30 c0 24 6 33 28 42 55 23 397 37 433 17z m3051 -89 c6 0 8
-12 5 -28 -5 -25 -2 -31 26 -43 18 -8 31 -20 30 -27 -2 -7 8 -12 23 -12 26 0
54 -20 54 -39 0 -7 -27 -11 -70 -11 -42 0 -70 4 -70 11 0 16 -128 9 -134 -8
-4 -10 -22 -13 -68 -11 -56 3 -62 5 -68 28 -12 48 2 72 50 87 25 7 53 11 64 9
26 -6 66 11 66 28 0 14 42 26 68 19 8 -1 18 -3 24 -3z m7772 -580 c-4 -16 -4
-36 -1 -45 8 -20 37 -8 37 16 0 24 46 26 78 3 28 -19 28 -32 0 -44 l-23 -9 22
0 c34 -1 53 10 53 30 0 11 -7 22 -15 25 -31 12 -15 26 23 19 47 -9 47 -8 27
-38 -15 -23 -15 -25 6 -30 18 -5 20 -9 11 -20 -10 -12 -22 -12 -80 -1 -37 7
-116 16 -177 20 -60 4 -104 9 -97 11 10 4 10 8 0 21 -10 12 -10 16 0 19 6 3
12 13 12 22 0 27 9 31 71 31 l59 0 -6 -30z m-9184 -288 c0 -16 -74 -40 -177
-58 -24 -3 -43 -12 -43 -19 0 -7 -20 -15 -50 -18 -28 -3 -79 -19 -113 -35 -34
-17 -89 -36 -122 -43 -33 -7 -68 -19 -78 -27 -9 -8 -20 -13 -23 -10 -9 9 -105
-19 -124 -37 -10 -9 -23 -14 -29 -11 -11 7 -126 -27 -145 -43 -6 -5 -39 -17
-73 -26 -35 -10 -63 -22 -63 -26 0 -5 -13 -9 -30 -9 -22 0 -30 5 -30 18 0 20
51 46 134 68 28 7 69 22 90 33 21 11 43 18 49 14 5 -3 13 0 17 8 5 7 21 14 37
16 40 3 55 7 78 20 11 5 40 13 65 17 24 4 49 11 55 16 6 5 29 13 50 18 22 5
48 13 59 17 15 7 17 5 11 -13 -4 -14 -2 -22 5 -22 7 0 14 9 17 20 3 11 20 25
39 32 19 7 34 15 34 18 0 3 24 12 53 19 28 8 64 20 79 27 15 8 40 14 55 14 15
1 39 7 53 15 26 15 120 21 120 7z m-1169 -366 c0 -12 -90 -36 -108 -29 -9 4
-11 0 -7 -11 5 -13 2 -15 -17 -8 -15 6 -32 4 -51 -6 -16 -7 -50 -15 -76 -15
-32 -1 -51 -8 -60 -19 -14 -19 -62 -25 -62 -7 0 5 -5 7 -10 4 -6 -4 -8 -11 -5
-16 3 -5 -2 -6 -11 -2 -10 4 -15 2 -11 -3 10 -16 -202 -97 -298 -114 -27 -5
-65 -13 -84 -19 -26 -8 -36 -7 -49 5 -21 21 -8 29 88 49 41 9 85 23 98 31 12
8 26 12 31 9 5 -2 35 7 67 21 59 27 185 61 257 71 20 3 37 9 37 14 0 5 12 9
28 9 15 0 40 7 55 15 16 8 56 17 90 20 34 3 63 8 66 11 8 8 32 0 32 -10z"/>
<path d="M6967 4593 c-3 -4 -3 -46 0 -93 3 -47 6 -134 7 -195 1 -60 3 -170 4
-244 l2 -134 461 6 c254 3 464 9 468 14 3 4 5 100 3 211 l-3 204 -206 -6
c-141 -3 -211 -2 -220 6 -9 7 -17 7 -27 -1 -9 -7 -38 -11 -73 -9 -51 3 -58 6
-61 26 -3 18 1 22 22 22 13 0 36 4 49 9 19 8 23 15 20 35 -3 14 -12 26 -20 28
-10 2 -17 16 -18 36 -3 30 -1 32 30 32 38 0 75 32 53 47 -17 11 -484 17 -491
6z"/>
<path d="M7516 4592 c-2 -4 11 -18 29 -31 29 -19 38 -21 71 -12 20 6 41 8 46
5 4 -3 8 0 8 5 0 6 7 11 15 11 8 0 15 -7 15 -15 0 -8 -4 -15 -10 -15 -14 0
-13 -43 2 -58 16 -16 -5 -16 -31 -1 -29 19 -71 3 -71 -27 0 -46 55 -49 102 -5
39 37 78 53 78 31 0 -5 -4 -10 -10 -10 -5 0 -10 -8 -10 -17 0 -13 3 -14 12 -5
19 19 55 14 72 -10 15 -21 16 -21 17 -3 0 19 1 19 16 -2 28 -41 43 -29 43 36
0 33 4 62 9 65 10 7 25 -79 16 -94 -3 -5 -2 -10 3 -10 11 0 22 121 15 151 -5
18 -15 19 -135 19 -78 0 -138 -5 -151 -11 -16 -9 -22 -9 -25 0 -4 12 -118 16
-126 3z"/>
<path d="M12722 3673 c3 -12 12 -17 26 -16 12 2 22 -1 22 -6 0 -15 51 -32 64
-22 7 6 16 7 22 2 5 -5 34 -12 66 -16 51 -6 57 -5 67 14 15 27 45 29 36 2 -5
-16 0 -18 50 -17 41 0 55 4 55 15 0 13 2 12 13 -1 11 -14 16 -14 46 -1 18 8
32 16 29 18 -2 2 -31 6 -63 9 -33 2 -87 7 -120 10 -33 3 -87 8 -120 11 -33 2
-77 8 -97 11 -31 5 -38 4 -38 -10 0 -9 8 -16 18 -17 9 0 12 -3 6 -5 -7 -3 -28
4 -49 16 -34 19 -36 19 -33 3z"/>
<path d="M2805 3219 c-213 -6 -275 -13 -275 -29 0 -5 -35 -16 -77 -26 -43 -9
-83 -20 -88 -25 -6 -4 -37 -17 -70 -30 -33 -12 -64 -25 -70 -29 -5 -4 -41 -17
-80 -30 -38 -13 -83 -29 -100 -35 -16 -7 -46 -16 -65 -20 -19 -4 -44 -12 -55
-19 -11 -7 -40 -18 -65 -26 -25 -8 -56 -20 -70 -27 -14 -7 -32 -13 -40 -14
-10 0 -11 -2 -2 -6 27 -11 9 -21 -32 -18 -47 4 -142 -17 -159 -34 -6 -6 -20
-11 -30 -11 -10 0 -33 -10 -50 -22 -18 -13 -43 -24 -56 -25 -22 -2 -39 -9
-135 -54 -22 -11 -47 -19 -56 -19 -21 0 -132 -45 -126 -51 2 -2 -14 -5 -37 -6
-22 -2 -44 -7 -47 -13 -3 -6 -42 -21 -86 -35 -142 -43 -184 -60 -184 -72 0 -6
8 -13 18 -16 9 -2 1 -4 -18 -4 -19 1 -73 -7 -120 -17 -75 -17 -127 -36 -250
-94 -19 -9 -42 -17 -50 -17 -14 -1 -43 -11 -95 -34 -11 -5 -40 -15 -65 -22
-25 -7 -50 -16 -56 -21 -6 -5 -35 -15 -63 -24 l-51 -15 0 -1130 c0 -756 3
-1128 10 -1124 6 3 13 -1 16 -9 5 -13 74 -15 550 -15 535 0 544 0 544 19 0 11
4 20 9 20 13 0 32 -26 24 -33 -3 -4 254 -7 572 -7 440 1 582 4 593 13 12 9 16
9 19 0 6 -17 40 -17 47 0 5 9 7 9 12 0 7 -15 264 -19 264 -4 0 5 15 5 35 -1
26 -9 38 -8 49 2 9 7 14 16 11 20 -3 5 -1 11 5 15 6 4 10 -5 10 -19 0 -21 5
-26 24 -26 13 0 26 5 28 11 2 7 12 7 30 -2 22 -9 31 -9 43 1 9 7 15 8 15 2 0
-7 99 -10 296 -11 l296 0 -6 29 c-10 53 13 79 40 43 12 -17 14 -17 36 5 30 28
38 28 38 0 0 -17 3 -19 12 -10 17 17 31 15 24 -4 -5 -13 -2 -15 14 -11 11 3
18 1 14 -4 -3 -5 -12 -9 -21 -9 -10 0 -13 -6 -9 -16 3 -9 6 -18 6 -20 0 -2 57
-4 126 -4 101 0 128 3 141 16 14 13 14 17 2 26 -11 7 -11 11 -1 15 6 2 12 11
12 19 0 8 5 14 11 14 7 0 9 -10 7 -25 -5 -24 -3 -25 27 -19 27 5 35 2 44 -14
6 -11 7 -22 4 -26 -3 -3 11 -6 32 -6 24 0 42 6 50 17 13 17 14 17 33 0 18 -17
61 -18 688 -17 611 2 669 3 681 18 11 16 12 16 13 0 0 -17 80 -18 1535 -18
844 0 1535 3 1535 6 0 4 -8 13 -17 20 -17 12 -16 13 5 14 12 0 22 -6 22 -12 0
-7 5 -5 11 5 13 23 29 22 29 -2 0 -11 -8 -22 -17 -24 -10 -3 64 -5 165 -6 156
-1 182 1 182 14 0 8 5 15 10 15 6 0 10 -7 10 -15 0 -13 114 -15 965 -15 754 0
970 3 986 12 17 10 23 10 26 1 3 -9 35 -13 113 -13 116 0 140 4 140 25 0 20
20 29 33 16 8 -8 6 -15 -9 -25 -17 -13 76 -15 749 -16 510 0 767 3 767 10 0 5
7 10 16 10 8 0 12 -5 9 -10 -4 -6 25 -10 79 -10 93 0 92 -1 80 59 -5 23 -11
30 -21 27 -8 -4 -26 3 -40 14 l-26 20 25 0 c14 0 39 -7 57 -16 25 -12 35 -13
46 -4 20 17 34 4 33 -30 -1 -34 -5 -36 -29 -14 -27 24 -40 9 -23 -25 l15 -30
295 0 c216 0 301 3 316 12 16 9 22 9 25 0 6 -18 140 -18 146 0 3 9 7 9 18 0
21 -17 509 -18 509 -1 0 9 3 9 12 0 7 -7 31 -12 55 -12 l43 0 -1 78 c0 42 -3
71 -6 65 -5 -15 -59 -18 -67 -4 -3 4 0 22 6 39 13 35 6 51 -16 33 -11 -9 -15
-8 -18 7 -4 15 0 18 24 16 16 -1 38 -10 48 -19 12 -11 20 -13 25 -6 3 6 0 11
-7 11 -10 0 -10 2 -1 8 9 6 12 57 12 187 0 150 -3 181 -16 190 -14 10 -14 14
1 43 23 44 24 401 2 382 -11 -8 -20 -9 -33 -1 -20 11 -21 9 32 26 11 3 15 21
15 73 0 67 0 68 -27 67 -50 0 -38 60 12 64 6 0 11 12 13 26 2 17 -1 25 -12 25
-9 0 -16 7 -16 15 0 8 7 15 15 15 10 0 15 10 15 30 0 23 -5 30 -19 30 -28 0
-36 18 -9 22 36 5 32 26 -6 34 -34 6 -51 24 -23 24 8 0 24 11 37 25 17 19 20
25 8 25 -9 0 -14 9 -14 22 1 14 -6 24 -17 26 -15 3 -16 0 -7 -23 14 -36 13
-45 -5 -45 -8 0 -15 5 -15 11 0 5 -4 8 -10 4 -5 -3 -7 -12 -3 -20 3 -9 -1 -15
-11 -15 -11 0 -18 13 -22 39 -7 43 -34 60 -58 35 -13 -12 -17 -10 -34 11 -13
16 -26 23 -36 19 -9 -3 -13 -10 -10 -15 3 -5 -2 -9 -10 -9 -23 0 -31 21 -12
32 9 5 16 13 16 18 0 14 -28 12 -32 -1 -5 -15 -89 -20 -106 -6 -10 8 -16 7
-21 -2 -10 -15 -53 -11 -58 5 -2 6 8 16 22 22 31 14 38 15 31 3 -3 -4 6 -6 20
-3 16 3 23 10 20 18 -3 7 0 16 6 20 7 4 6 9 -3 15 -7 4 -10 12 -5 16 4 4 13 0
20 -10 15 -20 42 -23 50 -4 2 6 3 -6 1 -28 -4 -39 -3 -39 12 -17 18 25 38 29
47 7 3 -8 12 -15 21 -15 8 0 15 7 15 15 0 20 20 19 36 -2 13 -17 15 -17 29 1
9 12 11 24 6 30 -13 16 48 13 81 -3 15 -8 28 -23 30 -35 4 -25 38 -35 38 -12
0 9 -7 16 -15 16 -8 0 -15 5 -15 10 0 6 7 10 16 10 12 0 14 10 12 53 -2 38 -7
52 -18 52 -10 0 -14 -8 -12 -22 4 -27 3 -27 -34 -8 -26 13 -31 13 -62 -6 -33
-19 -62 -18 -32 1 13 8 11 12 -8 26 -13 9 -21 22 -18 29 6 16 -44 31 -54 15
-4 -7 -13 -3 -25 10 -10 11 -13 20 -7 20 7 0 12 5 12 10 0 6 -12 10 -27 9 -16
0 -22 -3 -15 -6 25 -10 2 -50 -39 -66 -10 -4 -10 -6 -1 -6 7 -1 12 -15 12 -36
l0 -34 -25 25 c-14 14 -29 23 -34 19 -5 -3 -11 1 -14 7 -5 17 -37 -8 -37 -28
0 -8 -4 -14 -10 -14 -16 0 -12 14 11 39 14 15 18 26 11 33 -17 17 -46 4 -52
-22 -6 -27 -10 -28 -52 -16 -16 5 -36 5 -45 1 -10 -5 -28 -7 -41 -6 -12 1 -22
-1 -21 -6 4 -22 -2 -34 -13 -26 -22 13 -51 14 -60 1 -8 -14 -12 6 -9 47 1 18
1 19 -9 3 -14 -23 -28 -23 -26 0 1 11 -6 17 -19 17 -13 0 -20 -6 -19 -17 1
-10 -2 -18 -6 -18 -5 0 -15 -3 -23 -6 -15 -5 -47 20 -47 37 0 5 7 9 15 9 8 0
15 5 15 11 0 6 9 8 20 4 12 -4 27 -1 35 5 8 6 19 9 25 5 5 -3 10 1 10 9 0 9 7
16 15 16 8 0 15 -7 15 -16 0 -8 4 -13 10 -9 5 3 7 12 4 20 -4 11 -20 13 -62
10 -32 -2 -59 -4 -62 -5 -3 -1 -13 -2 -22 -1 -12 2 -18 -5 -18 -18 0 -17 -6
-21 -36 -21 -30 0 -34 3 -29 19 4 13 0 20 -16 24 -27 7 -59 -8 -59 -28 0 -21
-20 -18 -47 7 -13 12 -26 18 -30 14 -4 -4 2 -15 14 -24 26 -20 22 -62 -6 -62
-9 0 -21 -4 -27 -9 -5 -5 -22 -11 -39 -13 -22 -2 -34 -11 -44 -33 -8 -16 -18
-31 -23 -33 -4 -2 -8 -10 -8 -18 0 -9 -5 -12 -10 -9 -8 5 -7 11 1 21 6 8 9 23
6 34 -3 14 1 25 13 33 12 7 16 15 10 22 -5 7 8 10 41 11 63 1 78 15 50 43 -25
25 -31 26 -31 6 0 -9 -9 -15 -25 -15 -35 0 -38 -1 -60 -16 -25 -18 -35 -18
-35 2 0 8 -5 12 -10 9 -7 -4 -6 -13 1 -26 12 -23 0 -44 -32 -54 -15 -5 -18
-12 -13 -27 5 -17 3 -20 -10 -15 -10 4 -16 1 -16 -8 0 -9 -10 -15 -25 -15 -34
0 -33 28 3 43 25 11 27 15 22 57 -5 42 -7 45 -37 48 -35 3 -48 32 -15 32 13 0
14 2 4 9 -16 9 64 51 98 51 11 0 20 4 20 9 0 5 10 11 22 14 17 5 19 9 9 20
-16 20 -4 47 26 58 34 13 23 34 -18 36 -19 1 -40 2 -46 2 -20 2 -15 18 7 24
11 3 20 2 20 -3 0 -12 63 -19 82 -9 11 6 20 5 25 -3 14 -22 53 -39 74 -33 11
4 26 2 34 -5 8 -6 16 -7 19 -2 3 6 -1 12 -9 16 -26 9 -17 27 10 20 15 -4 32
-1 40 6 12 10 15 9 15 -5 0 -9 -9 -19 -20 -22 -24 -6 -26 -19 -4 -27 28 -11
42 -6 47 15 6 23 27 17 27 -7 0 -9 6 -14 13 -11 6 2 12 12 12 23 0 25 33 30
50 7 9 -12 17 -15 23 -8 6 6 -5 22 -30 44 -35 30 -38 32 -38 12 0 -12 -6 -21
-15 -21 -8 0 -15 6 -15 14 0 18 -18 23 -60 16 -24 -4 -45 0 -67 13 -36 21 -55
7 -29 -22 20 -22 20 -31 2 -31 -8 0 -17 11 -20 25 -6 25 -43 42 -70 32 -14 -6
-63 7 -98 24 -24 12 -48 11 -48 -1 0 -5 -7 -10 -15 -10 -12 0 -14 7 -9 26 5
20 4 25 -5 20 -17 -11 -63 2 -58 17 2 7 15 11 28 10 22 -2 22 -2 4 6 -11 5
-35 10 -54 10 -32 1 -33 2 -19 18 27 32 30 43 13 43 -9 0 -22 -13 -28 -30 -13
-34 -33 -39 -53 -12 -8 10 -13 12 -14 5 0 -7 -4 -13 -10 -13 -5 0 -7 6 -4 14
3 9 -5 16 -23 21 -39 11 -83 12 -83 1 0 -5 -27 -5 -61 -2 -52 6 -61 5 -56 -8
11 -28 -18 -39 -85 -30 -35 4 -79 8 -98 8 -28 1 -36 5 -38 23 -4 24 -44 43
-50 24 -2 -6 -10 -11 -18 -11 -8 0 -14 -5 -14 -11 0 -7 11 -9 30 -5 41 8 41
-21 0 -35 -22 -8 -30 -17 -30 -35 0 -15 -6 -24 -15 -24 -18 0 -20 21 -3 38 16
16 2 28 -16 13 -20 -17 -17 -101 5 -101 8 0 20 5 25 10 15 15 62 -7 69 -31 5
-15 9 -16 25 -7 15 10 23 9 38 -5 17 -16 20 -16 32 -2 11 14 14 13 25 -1 11
-15 13 -14 19 9 3 15 13 27 21 27 20 0 20 -46 0 -54 -18 -7 -9 -36 12 -36 10
0 12 6 8 20 -8 25 -4 25 45 0 35 -18 72 -23 208 -29 6 -1 12 -11 12 -23 0 -20
-1 -20 -18 -5 -24 22 -38 22 -21 -1 7 -9 10 -14 5 -10 -4 4 -19 3 -32 -2 -19
-8 -24 -6 -24 6 0 10 -6 14 -15 10 -8 -3 -29 1 -47 8 -19 7 -67 12 -113 11
-78 -2 -79 -2 -95 -33 -18 -38 -29 -41 -22 -7 3 19 0 25 -13 25 -12 0 -16 -6
-12 -20 3 -11 2 -18 -2 -16 -4 3 -13 1 -21 -4 -13 -8 -11 -12 8 -25 12 -9 22
-21 22 -26 0 -19 26 -38 40 -29 8 5 11 20 7 42 -5 32 -3 36 29 47 19 7 34 17
34 22 0 5 5 9 10 9 6 0 10 -6 10 -13 0 -7 7 -22 15 -33 14 -18 16 -18 26 -1 5
9 19 17 30 17 26 0 79 -28 101 -52 11 -13 32 -21 58 -22 45 -2 50 6 18 28 -28
20 -15 33 16 17 18 -10 24 -22 24 -52 1 -39 -6 -45 -44 -40 -6 1 -18 -9 -27
-22 -14 -22 -14 -24 6 -37 15 -9 22 -10 25 -1 6 18 30 13 37 -9 4 -11 11 -18
16 -15 5 4 12 0 15 -8 7 -19 44 -10 44 10 0 10 6 12 20 8 12 -4 20 -2 20 6 0
9 4 8 15 -1 8 -7 15 -21 15 -32 0 -15 -5 -18 -22 -13 -16 6 -20 4 -15 -8 3 -8
-3 -23 -15 -33 -17 -16 -21 -17 -32 -4 -15 19 -52 40 -71 40 -8 0 -19 9 -25
20 -11 20 -50 28 -50 10 0 -12 -40 -13 -59 -1 -12 8 -12 11 0 23 8 8 21 17 29
21 12 4 11 6 -2 6 -25 1 -23 27 2 34 29 7 25 27 -6 27 -18 0 -25 -4 -21 -14 3
-8 -3 -22 -14 -32 -13 -11 -17 -24 -13 -37 6 -18 3 -19 -27 -12 -19 4 -47 8
-64 9 -25 1 -30 -2 -28 -21 2 -15 -3 -23 -12 -23 -8 0 -15 9 -15 20 0 16 -7
20 -34 20 -18 0 -46 7 -62 15 -21 11 -31 11 -42 3 -11 -9 -12 -7 -7 14 7 28 4
32 -37 42 -22 5 -28 3 -28 -9 0 -9 -4 -14 -10 -10 -5 3 -7 12 -3 20 5 15 -22
22 -30 7 -6 -8 -111 -7 -115 2 -9 17 7 27 47 31 24 2 48 8 54 14 6 6 16 5 30
-2 16 -10 21 -9 25 2 3 10 10 8 24 -10 l20 -24 -6 34 c-3 18 -6 42 -6 52 0 22
-39 36 -51 18 -6 -11 -9 -10 -15 4 -5 14 -9 15 -21 5 -11 -9 -16 -9 -23 2 -5
8 -10 12 -12 10 -2 -3 -8 -14 -14 -25 -15 -26 -28 -25 -32 3 -4 27 -28 29 -35
2 -5 -20 -27 -28 -27 -10 0 6 -8 10 -18 10 -10 0 -23 5 -29 11 -8 8 -16 7 -31
-2 -17 -10 -23 -10 -37 5 -21 21 -14 31 13 17 15 -8 23 -7 31 3 8 9 25 12 56
8 33 -3 45 -1 45 9 0 9 4 7 13 -4 18 -25 97 -14 97 14 0 5 -3 8 -7 8 -30 -5
-35 2 -30 41 5 38 -4 53 -18 30 -3 -6 -18 -7 -32 -4 -21 6 -24 3 -21 -12 2
-11 13 -20 26 -22 12 -2 22 -8 22 -14 0 -6 -10 -8 -22 -4 -13 3 -26 6 -29 6
-3 0 -11 11 -17 25 -7 14 -20 25 -31 25 -11 0 -23 5 -26 10 -3 6 -16 10 -28
10 -22 -1 -22 -1 -3 -15 11 -8 28 -15 38 -15 10 0 18 -7 18 -15 0 -9 -9 -15
-22 -15 -16 0 -19 -3 -10 -9 7 -4 24 -6 36 -4 32 6 42 -13 12 -21 -33 -8 -76
9 -77 31 -1 10 -4 5 -8 -12 -5 -23 -11 -29 -26 -27 -11 2 -31 5 -45 6 -14 1
-31 5 -39 10 -13 9 -35 -15 -36 -39 0 -5 -7 -11 -15 -11 -8 -1 -20 -2 -26 -3
-5 0 -20 -10 -32 -22 -24 -22 -42 -18 -42 9 0 15 -12 18 -86 20 -84 2 -85 2
-83 -20 2 -13 -1 -24 -6 -25 -6 -1 -9 6 -8 15 4 32 -6 46 -22 32 -9 -8 -15 -8
-15 -2 0 6 5 12 11 14 5 2 8 10 4 18 -7 19 -115 23 -115 4 0 -7 9 -16 20 -19
11 -4 20 -15 20 -26 0 -16 -3 -18 -19 -9 -11 5 -21 15 -24 22 -3 10 -7 10 -20
0 -13 -11 -15 -10 -10 10 4 13 11 26 17 30 7 5 4 8 -6 8 -10 0 -18 -6 -18 -13
0 -18 -32 -47 -51 -47 -9 0 -6 6 8 18 38 29 7 79 -45 72 -8 -1 -20 7 -28 17
-19 26 -18 -2 2 -32 17 -26 16 -66 -2 -72 -11 -4 -29 67 -25 95 1 6 -7 12 -18
12 -12 0 -21 -8 -23 -22 -3 -21 -58 -60 -80 -55 -13 2 -48 34 -48 43 0 4 20 4
45 1 25 -4 47 -2 50 3 3 6 -1 10 -9 10 -9 0 -16 7 -16 15 0 8 9 15 20 15 11 0
20 7 20 15 0 9 -8 14 -22 12 -19 -2 -22 2 -20 22 3 19 0 22 -13 17 -9 -3 -19
-6 -21 -6 -2 0 -4 -7 -4 -15 0 -20 -7 -19 -36 4 -19 15 -31 17 -53 11 -16 -4
-34 -4 -41 0 -7 5 -20 6 -28 2 -12 -4 -10 -7 6 -13 29 -11 28 -27 -3 -39 -18
-7 -25 -17 -25 -35 0 -14 -7 -28 -15 -31 -21 -9 -65 23 -65 46 0 11 -7 20 -16
20 -8 0 -12 -4 -9 -10 3 -5 -1 -10 -10 -10 -24 0 -31 31 -11 45 13 10 14 15 5
21 -8 4 -25 -7 -46 -29 -18 -21 -35 -37 -38 -37 -11 0 -4 24 11 42 16 16 15
19 -6 36 l-24 19 27 18 c19 12 27 26 27 46 0 16 5 29 10 29 6 0 10 6 10 14 0
16 -37 18 -57 3 -18 -13 -16 -47 2 -47 8 0 15 -4 15 -10 0 -5 -4 -10 -9 -10
-4 0 -20 -12 -35 -27 -23 -22 -25 -29 -14 -38 21 -15 28 -41 15 -54 -16 -16
-27 -14 -27 5 0 9 -5 14 -11 12 -17 -6 -13 -21 7 -33 41 -23 58 -45 46 -57 -7
-7 -12 -15 -12 -20 0 -10 33 2 45 17 6 7 19 15 30 19 21 6 22 1 16 -96 -1 -5
-8 -8 -17 -8 -13 0 -14 3 -4 15 9 11 8 19 -4 37 -11 15 -16 18 -17 8 -1 -8 -3
-38 -4 -66 l-3 -52 35 9 c44 9 59 29 36 46 -14 11 -14 15 -2 29 20 24 51 33
73 20 14 -8 20 -8 23 2 3 6 18 12 34 12 22 0 32 7 41 25 11 25 28 34 28 15 0
-5 9 -10 20 -10 26 0 16 -27 -13 -36 -12 -4 -28 -16 -36 -26 -11 -16 -20 -18
-52 -13 -25 4 -39 3 -39 -4 0 -6 -7 -11 -15 -11 -9 0 -15 -9 -15 -21 0 -16 3
-19 13 -11 7 6 48 10 95 8 46 -1 85 1 87 5 3 4 21 10 41 13 39 8 41 24 3 44
-23 13 -22 13 14 7 23 -4 37 -2 37 5 0 5 9 10 20 10 23 0 27 -15 5 -24 -13 -4
-12 -9 2 -34 16 -29 18 -29 51 -15 19 8 31 9 27 4 -3 -6 -4 -15 0 -21 7 -12
35 -1 35 14 0 6 11 12 25 12 14 1 36 5 50 8 14 4 25 2 25 -4 0 -5 -9 -10 -20
-10 -28 0 -25 -14 5 -28 15 -7 25 -8 25 -2 0 16 47 12 64 -5 18 -18 48 -19 64
-3 9 9 12 8 12 -5 0 -10 8 -20 18 -23 9 -3 26 -9 37 -14 11 -5 29 -11 39 -14
10 -4 16 -10 12 -13 -10 -11 -136 -11 -129 0 3 4 -10 7 -28 5 -21 -2 -33 -8
-31 -15 1 -7 -4 -13 -11 -13 -22 0 -57 30 -57 49 0 20 -38 32 -71 24 -28 -8
-25 -51 4 -58 13 -4 27 -5 33 -5 16 3 54 -12 54 -21 0 -5 -4 -9 -10 -9 -5 0
-10 -10 -10 -22 0 -16 3 -19 11 -11 6 6 18 9 26 6 11 -5 11 -9 -4 -26 -18 -19
-17 -19 7 -12 25 8 25 8 6 -14 -20 -22 -14 -43 6 -23 16 16 51 15 66 0 10 -10
15 -10 22 1 7 12 12 12 23 3 16 -14 27 -6 27 21 0 12 -5 17 -14 14 -14 -6 -36
10 -36 26 0 5 7 6 16 3 8 -3 22 1 30 9 9 8 22 15 30 15 15 0 19 -25 6 -34 -12
-7 -8 -42 7 -60 19 -22 34 -20 21 3 -13 25 -13 41 0 21 7 -11 10 -5 10 23 0
24 5 37 13 37 18 0 47 -32 47 -53 0 -11 9 -15 28 -15 15 1 38 -5 51 -11 40
-22 40 -8 1 56 -15 25 -16 33 -6 33 7 0 20 -10 29 -23 14 -21 15 -21 34 -4 11
9 25 17 33 17 10 0 10 3 1 14 -8 10 -9 16 -1 21 5 3 13 -1 17 -10 4 -11 -3
-24 -22 -39 -20 -16 -25 -25 -16 -30 6 -4 9 -16 6 -27 -4 -11 -2 -19 4 -19 6
0 11 5 11 10 0 6 6 10 13 10 19 0 42 -18 34 -27 -5 -4 -12 -2 -16 6 -6 9 -10
7 -14 -8 -3 -12 -1 -21 4 -21 12 0 11 -57 -1 -81 -8 -14 -7 -19 3 -19 14 0 47
-31 47 -43 0 -18 -42 -5 -50 16 l-9 22 -7 -23 c-10 -34 -35 -29 -28 7 4 20 2
30 -10 34 -9 4 -16 13 -16 22 0 8 -4 15 -10 15 -12 0 -13 -13 -2 -24 4 -4 7
-11 8 -14 0 -4 3 -14 6 -22 12 -31 16 -60 8 -65 -10 -6 -24 24 -21 46 2 19
-25 33 -34 18 -4 -5 -3 -18 0 -29 4 -11 2 -20 -4 -20 -5 0 -13 -20 -17 -45 -4
-28 -11 -45 -20 -45 -15 0 -19 12 -7 23 3 4 8 23 10 43 2 20 10 48 17 62 12
22 11 27 -8 46 l-20 20 32 7 c18 4 36 10 40 14 4 4 -8 5 -26 2 -25 -5 -32 -3
-29 6 2 6 17 11 33 10 19 -2 33 4 40 15 12 18 10 19 -79 22 -23 1 -46 9 -58
21 -24 24 -29 24 -29 0 0 -26 -9 -31 -65 -36 -51 -5 -68 -12 -60 -25 6 -10
-38 -19 -70 -12 -14 2 -25 10 -25 17 0 6 -9 22 -20 35 -11 13 -20 27 -20 32 0
4 -9 8 -21 8 -18 0 -21 5 -17 36 3 27 0 38 -14 45 -27 15 -39 3 -28 -27 12
-31 12 -37 1 -30 -5 3 -14 -1 -21 -9 -13 -16 -40 -9 -40 11 0 8 -7 14 -15 14
-8 0 -15 -4 -15 -10 0 -5 -10 -10 -23 -10 -13 0 -28 -5 -34 -11 -8 -8 -17 -8
-32 0 -16 9 -27 8 -48 -2 -36 -17 -70 -11 -78 14 -7 20 -25 27 -25 9 0 -5 5
-10 10 -10 6 0 10 -7 10 -16 0 -13 -3 -14 -15 -4 -8 6 -19 9 -25 5 -5 -3 -22
2 -38 13 -34 24 -55 10 -39 -26 8 -18 8 -25 -2 -32 -8 -4 -11 -12 -7 -18 3 -6
1 -14 -5 -18 -6 -4 -16 1 -21 10 -5 9 -16 16 -23 16 -8 0 -15 4 -15 9 0 4 11
6 25 3 20 -3 25 0 25 16 0 11 -7 23 -16 26 -14 5 -14 7 0 22 26 26 21 45 -10
34 -14 -6 -27 -10 -30 -10 -12 0 -79 76 -76 87 2 7 -2 13 -8 13 -5 0 -10 -4
-10 -10 0 -5 -8 -10 -19 -10 -25 0 -38 60 -16 73 13 7 14 12 4 23 -14 17 -30
9 -22 -11 7 -21 -14 -19 -26 2 -6 11 -11 13 -11 5 0 -7 -5 -10 -12 -6 -6 4
-17 -1 -24 -11 -13 -18 -15 -18 -37 3 -27 26 -39 28 -31 7 4 -8 1 -15 -5 -15
-6 0 -11 9 -11 20 0 11 -6 20 -14 20 -18 0 -30 -16 -18 -24 5 -3 9 -23 10 -46
1 -29 -2 -40 -13 -40 -9 0 -15 9 -15 24 0 31 -10 56 -21 56 -5 0 -9 -7 -9 -15
0 -19 -9 -19 -29 -1 -22 19 -133 25 -154 8 -9 -8 -13 -20 -10 -28 3 -8 0 -14
-7 -14 -7 0 -9 10 -6 28 4 17 1 35 -8 47 -9 11 -16 24 -16 29 0 6 6 1 14 -9
13 -18 15 -17 32 16 9 19 17 46 16 62 -2 18 3 27 13 27 9 0 15 -9 15 -25 0
-14 -4 -25 -10 -25 -5 0 -7 -7 -4 -15 7 -17 34 -21 34 -5 0 13 68 3 87 -12 7
-6 19 -6 30 0 25 13 83 3 83 -14 0 -8 7 -14 15 -14 8 0 15 6 15 14 0 15 -10
19 -70 32 -19 3 -51 15 -72 26 -24 13 -47 18 -63 14 -18 -5 -25 -2 -25 9 0 8
-4 15 -9 15 -5 0 -13 9 -16 20 -3 11 -12 20 -20 20 -7 0 -15 9 -18 20 -6 23
-27 27 -27 5 0 -8 -4 -15 -8 -15 -4 0 -8 -12 -9 -27 0 -16 1 -20 4 -10 6 25
31 21 35 -5 5 -30 -19 -68 -42 -68 -24 0 -31 -34 -13 -59 12 -19 12 -21 -1
-21 -21 0 -21 -49 -1 -56 9 -4 13 -13 10 -24 -4 -12 1 -19 16 -23 15 -4 19
-11 15 -24 -4 -13 1 -21 16 -28 29 -13 38 -39 10 -31 -11 4 -23 2 -27 -5 -10
-16 -25 9 -25 43 0 15 -4 30 -10 33 -10 6 -14 -18 -13 -87 0 -33 -2 -35 -13
-20 -11 16 -13 15 -23 -11 -10 -24 -13 -26 -31 -15 -11 7 -20 18 -20 25 0 7
-8 13 -18 13 -10 0 -24 6 -30 12 -10 10 -15 10 -21 -1 -5 -8 -16 -11 -24 -8
-8 3 -17 3 -20 0 -8 -7 16 -32 25 -26 4 2 5 -3 2 -11 -9 -24 -44 -20 -44 4 0
25 -15 26 -30 3 -10 -15 -11 -14 -7 10 4 24 2 27 -17 21 -11 -3 -25 -10 -30
-15 -6 -5 -21 4 -38 21 -15 17 -35 30 -43 30 -8 0 -15 8 -15 18 0 14 -2 15
-10 2 -5 -8 -12 -11 -17 -7 -13 14 19 26 38 14 15 -9 21 -8 33 8 14 18 15 18
16 3 0 -22 30 -24 30 -3 0 22 37 18 43 -5 5 -20 37 -29 37 -10 0 6 -6 10 -14
10 -17 0 -29 27 -15 35 5 4 7 11 4 16 -4 5 5 9 19 9 20 0 26 5 26 21 0 11 6
27 14 35 8 7 16 19 19 26 3 10 8 10 17 2 9 -9 7 -15 -7 -25 -24 -17 -37 -59
-19 -59 7 0 18 -15 24 -32 5 -18 10 -25 11 -15 1 9 8 17 16 17 8 0 15 7 15 15
0 15 -11 19 -38 16 -8 -2 -12 5 -10 16 2 10 10 17 16 15 7 -1 12 3 12 9 0 6 6
9 13 6 8 -3 20 -1 28 4 11 7 10 11 -6 24 -20 16 -19 16 5 10 14 -4 31 -7 38
-7 19 -2 14 -28 -5 -28 -17 -1 -17 -1 0 -11 9 -5 21 -8 25 -5 10 6 9 36 -2 54
-4 7 -1 26 8 42 13 28 13 30 -4 30 -9 0 -25 10 -34 22 l-15 23 -20 -23 c-11
-13 -25 -21 -30 -18 -5 3 -11 0 -14 -7 -3 -8 3 -14 16 -14 28 -3 46 -21 28
-32 -33 -21 -172 17 -218 61 -22 21 -54 21 -61 1 -2 -8 6 -13 22 -13 21 0 26
-5 26 -24 0 -13 -7 -26 -15 -30 -10 -4 -15 1 -15 14 0 21 -15 27 -24 11 -10
-16 5 -41 25 -41 23 0 24 -13 3 -34 -17 -18 -34 -13 -34 10 0 8 -4 13 -9 9 -5
-3 -13 0 -16 6 -4 6 -18 8 -31 5 -14 -4 -24 -2 -24 4 0 5 -7 10 -16 10 -12 0
-15 9 -12 43 3 46 8 44 -67 32 -33 -5 -46 -6 -90 -2 -16 1 -37 -3 -45 -9 -10
-8 -29 -10 -57 -5 -34 7 -43 5 -43 -5 0 -8 -4 -14 -10 -14 -5 0 -10 5 -10 10
0 6 -7 10 -15 10 -8 0 -12 -6 -9 -13 2 -7 -2 -21 -10 -32 -15 -19 -15 -19 -9
3 5 19 1 22 -25 22 -17 0 -33 -6 -35 -12 -4 -10 -6 -10 -6 -1 -1 7 -7 10 -15
7 -9 -3 -20 6 -29 25 -9 17 -11 31 -6 31 5 0 9 -3 9 -7 0 -12 50 -33 51 -22 3
20 5 25 13 38 7 11 5 13 -7 8 -8 -3 -21 0 -27 8 -9 11 -16 11 -29 3 -13 -8
-25 -6 -49 6 -18 9 -32 21 -32 26 0 6 -7 10 -15 10 -8 0 -12 -6 -9 -14 3 -8
-3 -16 -15 -19 -14 -3 -21 0 -21 9 0 7 -9 18 -20 24 -15 8 -19 17 -15 31 8 23
-20 38 -38 20 -20 -20 -37 -12 -37 19 0 22 5 30 17 30 13 0 14 3 5 12 -17 17
-76 -3 -79 -27 -2 -11 0 -14 3 -7 7 16 34 16 34 -1 0 -7 -5 -18 -12 -25 -9 -9
-7 -12 10 -12 15 0 22 -6 22 -20 0 -23 -12 -25 -40 -7 -16 9 -22 9 -28 0 -5
-7 -13 -9 -21 -4 -7 5 -22 6 -32 4 -21 -6 -49 18 -49 41 0 10 -6 13 -15 9 -14
-5 -14 -7 0 -23 19 -21 9 -33 -16 -19 -11 5 -16 16 -12 25 3 9 -3 24 -16 35
-11 11 -21 25 -20 32 0 9 2 9 6 0 6 -16 33 -17 33 -2 0 6 9 8 20 4 31 -10 41
4 20 25 -18 18 -25 19 -70 9 -37 -8 -54 -8 -64 0 -10 8 -21 8 -42 1 -33 -13
-58 -6 -51 14 10 26 -23 27 -35 1 -9 -21 -18 -25 -54 -25 -24 0 -46 5 -49 10
-9 14 -45 12 -45 -2 -1 -7 -10 -2 -21 12 -12 14 -27 25 -35 25 -7 0 -20 9 -28
20 -13 18 -18 19 -45 8 -17 -6 -42 -10 -56 -8 -14 1 -25 -2 -25 -6 0 -5 -7 -9
-15 -9 -8 0 -15 4 -15 9 0 5 -10 11 -22 13 -16 2 -24 11 -26 29 -2 21 -8 26
-33 26 l-29 0 20 -22 c17 -18 18 -23 6 -28 -20 -8 -88 14 -103 33 -10 13 -13
13 -30 -3 -11 -9 -24 -17 -30 -17 -17 0 -26 -52 -11 -61 18 -12 25 -11 31 5 3
8 -1 17 -9 20 -23 9 -16 23 14 28 26 4 28 2 27 -33 0 -25 -4 -35 -12 -32 -7 3
-13 0 -13 -6 0 -6 5 -11 10 -11 6 0 10 -5 10 -11 0 -6 -8 -8 -19 -4 -26 8 -36
-11 -14 -24 16 -9 16 -10 -4 -11 -14 0 -23 -6 -23 -15 0 -8 -6 -15 -14 -15 -7
0 -26 -6 -41 -14 -24 -12 -25 -15 -10 -24 12 -6 14 -11 6 -16 -6 -4 -11 -4
-11 -1 0 4 -7 -1 -16 -9 -20 -20 -34 -20 -34 -1 0 17 -16 20 -25 5 -9 -15 26
-62 43 -55 8 3 20 1 26 -3 6 -5 23 -12 37 -15 21 -5 28 -2 37 19 7 14 12 30
12 35 0 18 30 41 45 35 8 -3 17 -1 20 3 7 12 -22 34 -35 26 -6 -3 -10 3 -10
15 0 20 1 20 27 -5 28 -25 43 -26 91 -2 19 9 25 8 32 -3 5 -8 12 -12 15 -8 3
3 23 2 43 -3 26 -6 45 -4 70 8 26 12 38 13 58 4 34 -15 54 -14 54 3 0 19 -25
27 -39 13 -8 -8 -16 -6 -29 7 -16 18 -16 18 7 13 13 -3 32 -1 42 6 15 9 21 8
33 -8 10 -12 15 -15 16 -7 0 8 7 11 19 7 10 -3 24 1 31 10 21 25 32 17 14 -10
-9 -14 -22 -25 -29 -25 -8 0 -10 -9 -7 -25 5 -26 16 -32 27 -15 4 6 16 8 26 5
11 -4 26 -1 34 5 8 6 23 9 35 5 11 -3 20 -2 20 4 0 5 -9 12 -19 16 -10 3 -21
15 -24 25 -3 13 -11 18 -21 14 -9 -4 -16 -1 -16 6 0 8 8 10 28 4 15 -4 40 -7
55 -6 16 1 42 -8 58 -20 l29 -21 -23 -11 c-23 -12 -36 -46 -18 -46 6 0 11 7
11 15 0 19 17 19 36 0 12 -12 20 -13 36 -4 21 11 21 12 -5 26 -29 15 -34 28
-16 39 7 4 19 -3 29 -16 13 -17 22 -21 40 -15 19 6 22 4 17 -9 -4 -10 -1 -16
8 -16 8 0 15 -6 15 -14 0 -9 -8 -12 -25 -8 -14 2 -25 0 -25 -6 0 -6 -13 -7
-37 -1 -29 6 -42 4 -55 -8 -15 -13 -20 -13 -33 -3 -19 16 -24 11 -27 -23 -3
-31 -10 -34 -28 -12 -16 19 -30 19 -30 0 0 -8 7 -15 15 -15 8 0 15 -4 15 -9 0
-12 -29 -41 -41 -41 -19 0 -8 -21 16 -32 14 -6 25 -18 25 -27 0 -12 -3 -12
-12 -3 -7 7 -22 12 -34 12 -28 0 -35 20 -23 62 12 43 12 45 -5 51 -10 4 -12 0
-9 -14 6 -22 -15 -26 -23 -5 -3 8 -12 12 -20 9 -8 -3 -14 1 -14 10 0 8 6 17
13 20 7 2 -1 16 -22 36 -29 27 -36 30 -43 17 -6 -11 -17 -14 -34 -10 -17 4
-31 0 -45 -12 -17 -15 -23 -16 -41 -5 -19 12 -20 11 -16 -14 5 -23 3 -26 -16
-21 -41 11 -101 -33 -63 -47 9 -3 9 -8 -2 -18 -10 -11 -15 -11 -18 -1 -3 6
-14 12 -26 12 -18 0 -19 -2 -7 -10 12 -8 11 -10 -7 -10 -26 0 -29 -18 -8 -46
19 -25 19 -54 -1 -54 -10 0 -13 6 -10 18 10 31 -7 43 -52 36 -23 -4 -42 -11
-42 -16 0 -6 11 -7 25 -4 14 4 25 2 25 -4 0 -5 6 -10 14 -10 10 0 13 -8 10
-27 -3 -15 -7 -30 -10 -32 -2 -2 2 -12 10 -20 10 -11 12 -21 6 -31 -8 -13 -12
-12 -24 5 -9 11 -16 32 -16 48 0 23 -4 27 -30 27 -16 0 -29 3 -29 8 6 34 -15
45 -24 12 -4 -14 -13 -20 -34 -19 -22 0 -24 2 -10 8 17 6 17 8 3 20 -9 7 -16
21 -16 29 0 12 -3 13 -12 4 -17 -17 -58 -15 -58 3 0 8 -8 15 -17 15 -16 1 -16
2 1 15 27 20 36 19 36 -5 0 -26 3 -26 40 11 22 23 28 35 21 42 -8 8 -11 6 -11
-7 0 -13 -5 -16 -17 -11 -22 9 -32 9 -103 0 -64 -8 -61 -7 -51 -23 6 -10 15
-10 34 -3 22 9 27 8 27 -5 0 -8 -7 -22 -15 -31 -12 -12 -19 -12 -30 -3 -8 6
-23 9 -33 6 -14 -5 -24 1 -36 19 -20 30 -32 32 -41 6 -3 -11 -13 -22 -21 -25
-13 -5 -15 -1 -10 20 5 17 3 23 -4 19 -5 -3 -20 -3 -31 0 -19 6 -18 9 17 31
48 29 58 30 51 4 -4 -15 0 -20 13 -20 10 0 27 -3 37 -6 15 -6 16 -4 6 7 -7 7
-13 21 -13 31 0 22 -24 28 -118 32 -58 2 -76 6 -95 24 -13 12 -28 22 -34 22
-7 0 -13 6 -15 14 -2 12 -8 11 -27 -5 -14 -12 -21 -25 -17 -35 5 -13 9 -14 21
-4 8 7 12 17 8 24 -4 6 1 5 10 -3 19 -15 22 -37 8 -45 -18 -12 -61 13 -61 35
0 17 -4 20 -22 15 -13 -3 -35 -6 -49 -6 -19 0 -28 -6 -32 -22 -6 -21 -7 -21
-27 -3 -20 18 -20 18 -20 -13 0 -17 -4 -34 -10 -37 -20 -12 -9 -26 18 -23 19
2 28 9 30 26 4 25 22 31 22 6 0 -11 6 -13 19 -9 11 3 22 1 26 -5 4 -6 14 -8
24 -5 18 5 81 -56 81 -79 0 -16 -44 -36 -92 -42 -30 -4 -38 -1 -38 11 0 8 5
15 12 15 6 0 9 2 6 5 -3 3 -19 -2 -35 -11 -41 -24 -83 -13 -79 21 1 14 6 28 9
32 4 3 7 11 7 17 0 6 -7 2 -15 -8 -14 -18 -16 -18 -33 -3 -10 9 -26 17 -35 17
-14 0 -14 3 -1 27 7 16 14 36 14 47 0 15 -3 16 -15 6 -12 -10 -16 -9 -21 4 -3
9 -14 16 -23 16 -9 0 -27 7 -39 16 -12 8 -27 12 -33 9 -17 -11 -28 -49 -17
-62 12 -15 2 -63 -12 -63 -6 0 -10 5 -10 10 0 6 -7 10 -15 10 -8 0 -15 7 -15
15 0 8 8 15 17 15 9 0 14 3 11 6 -11 11 -128 14 -128 3 0 -7 -12 -8 -30 -4
-24 5 -30 3 -30 -10 0 -9 -4 -13 -10 -10 -5 3 -31 -3 -56 -14 -51 -23 -65 -21
-57 9 6 22 33 26 51 8 7 -7 12 -8 12 -2 0 19 -36 44 -62 44 -33 0 -58 27 -37
41 14 9 41 13 70 10 9 -1 19 5 22 14 7 16 -8 21 -17 6 -9 -15 -56 12 -56 32 0
16 -2 17 -15 3 -8 -8 -15 -22 -15 -32 0 -12 -4 -14 -12 -7 -20 16 -51 12 -75
-10 -13 -12 -30 -18 -43 -14 -11 3 -20 1 -20 -3 0 -5 -10 -10 -22 -12 -20 -3
-21 -4 -5 -20 16 -15 16 -17 0 -20 -12 -2 -9 -7 11 -18 26 -13 29 -13 41 4 16
22 38 12 30 -14 -5 -15 -2 -17 15 -13 11 3 27 -1 36 -8 14 -11 18 -11 29 4 7
10 19 15 29 11 22 -8 21 -26 -1 -22 -10 1 -24 -1 -32 -6 -14 -9 -54 -9 -116
-2 -36 5 -55 -2 -55 -19 0 -7 -6 -16 -12 -18 -10 -4 -10 -6 0 -6 17 -1 15 -21
-3 -21 -8 0 -15 5 -15 11 0 6 -10 9 -22 8 -40 -4 -57 10 -55 44 3 44 14 58 40
52 24 -6 67 19 54 31 -4 5 -16 3 -25 -2 -21 -13 -126 -8 -130 6 -2 6 -8 8 -13
4 -5 -3 -9 0 -9 6 0 7 6 10 14 7 8 -3 31 -1 50 4 24 7 42 6 55 0 26 -14 31 -4
14 29 -18 38 -25 41 -61 34 -21 -4 -29 -11 -25 -20 3 -9 -1 -14 -12 -14 -11 0
-15 5 -11 16 8 21 -17 47 -32 32 -14 -14 -33 -1 -25 18 3 9 12 12 24 9 15 -5
19 -1 19 18 0 14 7 27 15 31 8 3 15 17 15 32 0 23 -3 26 -26 21 -27 -5 -54 14
-54 39 0 25 29 28 49 5 22 -25 31 -27 31 -6 0 8 -4 15 -8 15 -5 0 -15 11 -22
25 -17 31 -27 31 -51 3 -15 -19 -18 -20 -19 -6 0 11 -5 15 -15 12 -8 -4 -15
-2 -15 4 0 6 -9 8 -20 5 -14 -4 -20 0 -20 11 0 16 -25 21 -80 17 -48 -3 -54
-10 -29 -31 l24 -19 -37 -1 c-27 0 -38 4 -38 15 0 8 5 15 10 15 6 0 8 11 4 25
-5 20 -3 24 9 20 10 -4 16 2 20 22 9 43 -10 52 -38 18 -13 -17 -24 -24 -25
-17 0 17 -40 15 -40 -3 0 -8 5 -15 11 -15 14 0 43 -29 36 -37 -3 -3 -22 -2
-43 1 -31 6 -35 10 -32 31 9 43 -18 58 -72 40 -22 -7 -23 -6 -12 8 12 14 11
17 -10 22 -30 7 -88 2 -88 -7 0 -4 -8 -4 -17 -1 -12 5 -15 2 -10 -10 3 -9 2
-17 -3 -17 -6 0 -10 7 -10 15 0 8 -4 15 -10 15 -5 0 -10 5 -10 11 0 5 5 7 10
4 12 -8 13 15 1 34 -7 11 -13 10 -33 -3 -14 -9 -27 -14 -30 -11 -3 3 -11 -1
-18 -10 -11 -13 -9 -15 14 -15 24 0 25 -2 14 -25 -10 -21 -8 -27 8 -39 15 -11
22 -12 33 -3 11 9 15 9 18 0 3 -7 11 -13 19 -13 17 0 19 -17 2 -23 -9 -3 -5
-11 11 -25 21 -19 22 -24 10 -39 -24 -31 -34 -33 -42 -10 -8 22 -8 22 -29 -6
-21 -29 -42 -28 -31 1 6 15 5 16 -13 2 -10 -8 -22 -19 -25 -24 -4 -5 -12 -5
-18 -1 -15 9 5 35 27 35 35 0 0 12 -44 15 -29 2 -50 9 -56 18 -5 9 -16 13 -28
10 -16 -4 -20 0 -20 20 0 18 7 26 25 31 28 7 33 21 9 30 -8 3 -12 11 -9 17 4
5 -1 16 -11 23 -11 9 -13 15 -6 20 8 5 6 13 -6 26 -19 23 -38 26 -45 8 -3 -8
-6 -6 -6 5 -1 21 -14 22 -31 2 -7 -9 -20 -13 -27 -10 -12 4 -13 -2 -8 -28 l7
-32 -30 29 c-25 23 -37 28 -61 23 -17 -4 -31 -2 -31 3 0 5 -7 7 -15 3 -9 -3
-22 2 -29 12 -12 17 -13 17 -19 1 -4 -10 -11 -15 -16 -11 -5 3 -12 1 -15 -4
-4 -6 -18 -6 -37 -1 -30 9 -31 8 -25 -16 6 -22 4 -25 -14 -19 -24 7 -27 -7 -5
-25 13 -11 18 -10 29 6 8 10 17 16 21 12 4 -4 18 -3 31 2 20 8 24 6 24 -10 0
-12 -7 -20 -17 -20 -16 0 -16 -2 -3 -11 11 -8 7 -9 -17 -5 -18 3 -33 2 -33 -3
0 -4 -10 -6 -23 -4 -28 5 -42 -10 -51 -56 -6 -33 -6 -34 11 -15 11 11 28 18
41 16 26 -4 20 -22 -9 -22 -10 0 -19 -4 -19 -10 0 -5 -18 -8 -40 -6 -22 2 -40
0 -40 -4 0 -4 -11 -19 -24 -33 l-25 -27 30 -32 c34 -38 35 -42 9 -70 -17 -18
-22 -20 -33 -8 -6 7 -7 10 -1 7 7 -4 9 5 6 24 -5 33 -17 30 -17 -4 0 -11 -6
-22 -12 -24 -8 -3 -13 4 -13 19 0 13 -4 29 -9 37 -12 19 -34 3 -28 -21 4 -14
2 -16 -6 -10 -24 18 -58 21 -64 5 -3 -8 -1 -18 4 -22 20 -12 25 -49 7 -59 -13
-7 -14 -14 -6 -27 9 -17 10 -17 23 2 10 17 17 19 40 11 18 -6 34 -6 48 1 29
16 40 13 34 -9 -4 -14 0 -20 12 -20 12 0 16 6 12 20 -6 23 8 27 17 5 7 -20 45
-19 52 0 5 11 10 12 18 5 8 -6 24 -6 47 0 42 12 39 13 39 -6 0 -11 -6 -14 -21
-9 -19 6 -21 4 -15 -19 6 -24 -6 -36 -18 -18 -3 5 -27 6 -53 2 -28 -5 -53 -4
-60 2 -7 6 -19 6 -30 0 -10 -5 -42 -7 -70 -6 -40 2 -53 -1 -53 -12 0 -17 -12
-18 -26 -4 -8 8 -19 7 -39 0 -34 -13 -45 -5 -19 15 16 13 17 16 4 24 -13 9
-12 12 5 25 11 9 26 16 33 16 17 0 7 57 -15 82 -15 17 -9 43 7 33 5 -3 28 4
49 17 34 19 44 21 60 11 16 -10 22 -9 33 4 11 15 10 16 -10 11 -37 -10 -25 33
13 45 17 5 36 11 44 13 10 3 6 9 -13 20 -16 8 -34 14 -40 13 -26 -3 -40 1 -30
10 13 12 60 22 68 14 12 -13 58 -14 72 -2 8 6 14 30 14 54 0 41 -2 43 -35 49
-23 5 -32 11 -29 21 6 14 2 14 -72 -1 -36 -7 -56 11 -24 21 11 4 18 11 15 16
-4 5 -21 -2 -39 -16 -25 -19 -32 -31 -29 -48 4 -20 0 -23 -24 -22 -19 0 -29 6
-31 19 -3 14 0 17 12 13 8 -3 18 -2 21 3 4 6 0 10 -8 10 -10 0 -13 7 -10 20 3
10 -2 26 -11 35 -10 10 -16 12 -16 5 0 -8 -8 -10 -21 -7 -14 4 -29 -2 -46 -19
-21 -21 -32 -24 -76 -21 -48 4 -81 27 -39 27 11 0 29 3 39 7 16 6 15 8 -7 13
-14 3 -29 16 -35 28 -14 31 -23 27 -31 -12 -3 -20 -13 -37 -23 -39 -11 -3 -9
-5 7 -6 12 0 22 -7 22 -14 0 -9 -13 -12 -42 -10 l-43 3 35 -11 c31 -10 33 -12
15 -20 -28 -11 -75 -11 -75 0 0 5 4 21 10 35 5 14 6 26 1 26 -5 0 -11 -7 -15
-15 -3 -9 -19 -15 -41 -15 -20 0 -49 -7 -66 -16 -16 -8 -39 -12 -50 -9 -11 4
-26 1 -34 -5 -12 -10 -15 -9 -15 4 0 13 -5 14 -26 6 -14 -6 -29 -10 -33 -10
-14 0 -6 45 10 61 20 20 35 13 17 -8 -18 -22 -1 -27 44 -12 46 14 62 26 70 49
2 8 21 15 49 16 35 2 48 -2 62 -19 17 -22 17 -22 33 -2 8 11 17 18 20 17 3 -2
8 -2 10 1 3 2 -8 9 -23 15 -36 14 -142 21 -149 10 -3 -4 -14 -8 -25 -8 -11 0
-24 -10 -29 -22 -5 -13 -9 -17 -9 -10 -1 8 -10 12 -23 11 -13 -2 -34 1 -47 5
-12 4 -27 4 -32 -1 -5 -5 -32 -6 -61 -3 -46 4 -53 8 -56 29 l-4 23 22 -20 c14
-12 29 -18 43 -14 20 5 20 6 1 13 -16 7 -17 8 -1 8 21 1 23 31 2 31 -8 0 -15
-5 -15 -10 0 -7 -13 -8 -35 -4 -23 4 -35 2 -35 -5 0 -6 -4 -11 -10 -11 -5 0
-10 11 -10 24 0 28 26 42 47 24 12 -10 18 -9 28 5 11 16 13 16 19 2 3 -9 11
-13 17 -10 7 5 0 18 -18 37 -23 24 -25 31 -13 38 8 5 12 11 9 15 -3 3 -20 -8
-37 -25 -18 -16 -27 -30 -20 -30 25 0 -1 -10 -39 -15 -30 -4 -46 -1 -58 11 -9
9 -19 13 -23 9 -4 -4 -1 -10 6 -12 6 -3 12 -11 12 -19 0 -8 -6 -14 -12 -15
-69 -5 -105 -10 -114 -13 -16 -6 -54 22 -54 40 0 20 -13 18 -33 -6 -16 -19
-16 -20 1 -20 14 0 12 -4 -8 -21 -14 -11 -38 -26 -55 -34 -29 -13 -27 -13 43
-14 57 -1 72 -4 72 -16 0 -8 -9 -15 -19 -15 -11 0 -23 -5 -26 -10 -3 -6 -17
-7 -30 -4 -26 6 -45 -13 -21 -22 9 -3 16 -12 16 -20 0 -16 -16 -19 -25 -4 -4
7 -12 7 -25 0 -10 -5 -34 -10 -52 -10 -18 0 -40 -5 -48 -10 -11 -7 -12 -10 -2
-10 8 0 12 -8 10 -17 -5 -27 -31 -22 -38 7 -4 15 -13 24 -23 24 -9 -1 -28 11
-41 27 -14 16 -29 29 -35 29 -6 0 -11 5 -11 10 0 10 27 15 63 12 11 -1 17 5
17 18 0 23 34 28 44 8 5 -10 7 -10 12 0 3 6 14 12 25 12 22 0 26 16 4 19 -39
5 -53 4 -88 -3 -22 -4 -37 -3 -33 2 3 4 -4 16 -15 25 -22 19 -54 23 -43 5 5
-7 2 -9 -9 -5 -8 3 -21 -1 -28 -9 -10 -13 -14 -12 -30 2 -11 10 -20 15 -22 13
-33 -57 -31 -69 14 -69 16 0 29 -4 29 -10 0 -5 5 -10 11 -10 14 0 39 -26 39
-41 0 -7 -7 -4 -15 7 -15 19 -15 19 -30 0 -10 -14 -29 -20 -69 -21 -30 -2 -68
-6 -85 -10 -17 -3 -40 -3 -52 0 -21 7 -21 8 7 33 18 17 29 22 32 14 2 -7 10
-12 18 -12 8 0 14 -5 14 -12 0 -7 10 -2 23 10 19 19 20 24 7 32 -8 5 -15 15
-15 21 0 13 -40 20 -62 12 -7 -3 -13 -11 -13 -19 0 -8 -9 -19 -20 -26 -11 -7
-20 -18 -20 -25 0 -7 -9 -13 -20 -13 -11 0 -20 -4 -20 -10 0 -5 -7 -10 -15
-10 -8 0 -15 7 -15 15 0 8 -7 15 -15 15 -8 0 -15 -6 -15 -14 0 -21 -100 -27
-123 -7 -18 15 -18 16 0 29 17 13 17 14 -2 12 -47 -5 -105 1 -105 10 0 5 12 8
28 6 15 -2 21 -1 15 1 -20 7 -16 19 12 37 33 22 33 38 -1 26 -33 -13 -34 -13
-34 5 0 8 11 17 25 20 14 3 37 7 51 11 22 4 25 2 20 -11 -3 -9 -6 -23 -6 -31
0 -8 -7 -14 -15 -14 -21 0 -19 -17 4 -23 22 -5 53 26 45 47 -3 8 9 28 26 46
21 22 29 37 25 51 -9 27 12 32 84 21 33 -5 62 -6 63 -2 4 10 98 21 98 12 -1
-25 -22 -33 -101 -36 -128 -5 -126 -5 -110 -15 8 -5 29 -7 48 -5 32 4 33 3 23
-17 -16 -30 -7 -33 47 -19 26 7 68 14 91 16 24 2 50 8 58 15 10 8 18 8 27 1
10 -9 19 -8 35 3 22 16 36 7 26 -19 -8 -22 13 -20 31 2 18 21 106 22 131 1 12
-10 17 -8 29 7 17 23 19 34 5 34 -6 0 -10 8 -8 18 2 11 -3 17 -17 17 -13 0
-21 -8 -23 -21 -3 -19 -10 -22 -67 -23 -44 -1 -66 3 -72 12 -4 8 -18 16 -31
20 -19 4 -22 2 -16 -15 5 -17 3 -19 -18 -13 -39 12 -43 22 -25 60 14 30 15 35
2 35 -8 0 -15 5 -15 10 0 6 10 10 21 10 12 0 27 6 33 14 10 13 46 20 85 17 11
-1 11 -4 1 -16 -7 -9 -20 -15 -29 -14 -35 3 -51 -2 -51 -15 0 -10 13 -14 50
-13 36 2 52 -3 62 -15 9 -13 25 -17 53 -15 22 1 39 7 38 12 -1 6 6 18 14 28
13 13 18 14 24 5 6 -9 9 -8 13 5 18 55 17 53 26 36 6 -10 19 -14 42 -11 30 3
34 7 33 33 0 16 -7 34 -15 39 -21 14 -30 12 -24 -4 8 -20 -9 -27 -68 -28 -48
0 -51 -1 -33 -14 10 -8 13 -14 6 -14 -7 0 -10 -4 -7 -9 3 -5 -12 -18 -34 -30
-25 -13 -42 -17 -46 -10 -3 6 4 13 15 16 25 6 23 26 -3 31 -11 2 -19 -4 -23
-17 -8 -30 -21 -26 -15 4 3 16 11 25 23 25 10 0 21 5 25 11 4 8 -3 9 -22 5
-34 -7 -60 6 -49 24 5 9 31 11 89 8 l81 -5 36 40 c26 27 46 40 68 42 17 1 34
4 37 7 9 10 -47 19 -69 12 -35 -12 -71 -10 -82 4 -14 17 -192 23 -206 6 -18
-22 -79 -27 -99 -9 -10 9 -29 16 -42 14 -38 -4 -78 12 -78 30 0 9 -5 22 -10
27 -12 12 -3 44 11 44 5 0 9 -7 9 -15 0 -8 8 -15 19 -15 14 0 17 6 14 28 l-4
27 20 -23 c12 -14 22 -18 26 -12 4 6 17 10 28 9 48 -3 67 1 67 17 0 8 5 12 11
9 6 -4 8 -9 5 -12 -3 -3 5 -14 17 -23 20 -17 23 -17 40 -2 17 15 19 15 28 -1
12 -21 38 -22 45 -2 4 8 13 15 21 15 8 0 21 -7 29 -15 10 -9 34 -15 65 -15 53
0 54 1 38 32 -9 16 -17 19 -45 13 -21 -3 -34 -2 -34 5 0 5 6 10 13 10 12 0 47
34 47 45 0 3 -30 4 -67 4 -38 -1 -60 -3 -50 -6 9 -2 15 -9 11 -14 -3 -5 -17
-2 -33 7 -30 17 -87 12 -76 -6 3 -6 0 -10 -9 -10 -8 0 -16 5 -18 12 -5 14 -86
16 -403 7z m-779 -294 c16 -15 65 -21 78 -8 12 12 40 13 96 3 30 -5 105 -11
165 -14 61 -2 118 -7 128 -11 20 -8 24 14 5 33 -7 7 -8 12 -2 12 5 0 17 -9 26
-19 13 -15 26 -18 60 -15 23 2 55 9 70 15 16 7 43 8 65 4 21 -4 66 -7 101 -7
62 0 62 0 62 -29 0 -26 3 -29 25 -23 29 7 33 -7 8 -27 -12 -10 -17 -11 -20 -2
-5 14 -33 6 -50 -15 -11 -13 -16 -13 -48 2 -19 9 -35 23 -35 30 0 13 -40 30
-49 21 -2 -3 10 -18 27 -35 18 -17 32 -37 32 -45 0 -9 7 -18 15 -21 8 -4 15
-9 15 -13 0 -10 -90 -32 -101 -26 -15 10 -10 25 9 25 27 1 58 28 45 41 -6 6
-19 9 -29 7 -10 -1 -27 5 -39 16 -23 21 -73 30 -90 17 -16 -14 -56 6 -49 24 4
10 0 15 -10 15 -9 0 -16 -6 -16 -14 0 -8 -6 -16 -12 -19 -18 -6 -39 3 -32 14
12 20 -9 7 -35 -21 -25 -28 -50 -32 -34 -6 8 12 12 46 6 46 -15 0 -43 -23 -43
-35 0 -27 -20 -15 -21 13 l-1 27 -11 -28 c-6 -15 -17 -25 -23 -23 -31 12 -80
16 -93 7 -21 -13 -2 -34 24 -27 13 3 27 1 30 -5 4 -6 27 -8 53 -6 46 4 92 -8
92 -25 0 -4 7 -8 15 -8 8 0 15 -6 15 -14 0 -17 51 -30 80 -21 16 5 20 2 21
-17 0 -13 3 -17 6 -10 2 6 15 12 28 12 15 0 22 6 21 16 0 9 5 19 12 21 7 3 12
1 11 -4 -5 -19 13 -43 25 -34 7 6 17 6 26 1 13 -8 12 -12 -5 -24 -26 -20 -42
-20 -55 2 -8 12 -13 13 -16 5 -3 -7 -18 -13 -33 -13 -15 0 -32 -5 -39 -12 -7
-7 -12 -9 -12 -4 0 4 -7 1 -15 -8 -8 -8 -15 -26 -15 -40 0 -26 -23 -36 -35
-16 -4 6 -21 8 -41 4 -26 -5 -40 -2 -54 11 -16 14 -25 15 -49 7 -17 -6 -30 -8
-30 -4 3 21 -3 31 -16 26 -8 -4 -15 -3 -15 0 0 11 25 50 40 63 20 16 1 16 -33
1 -14 -7 -29 -23 -32 -35 -4 -16 -15 -24 -40 -29 -19 -3 -35 -10 -35 -14 0 -5
-9 -8 -20 -7 -24 2 -25 7 -6 32 15 20 11 51 -8 58 -25 10 -66 -5 -66 -23 0
-18 25 -34 40 -25 5 3 11 1 15 -5 3 -5 0 -10 -9 -10 -8 0 -22 -3 -31 -6 -10
-4 -15 -2 -13 7 2 8 -7 15 -22 17 -50 6 -57 12 -35 29 18 14 14 15 -50 9 -38
-4 -79 -8 -89 -9 -10 -1 -21 4 -24 12 -3 9 1 11 17 6 12 -4 21 -2 21 4 0 18
-5 26 -12 24 -5 -2 -8 2 -8 8 0 6 -7 9 -15 5 -19 -7 -62 8 -48 17 6 4 34 10
62 13 40 4 51 2 51 -9 0 -7 12 -20 28 -27 30 -15 82 -22 82 -11 0 12 63 31 77
23 7 -5 34 -4 58 2 36 9 44 14 39 28 -3 10 -1 18 5 18 6 0 11 5 11 10 0 6 -10
10 -23 10 -30 0 -40 10 -26 27 16 18 -10 17 -35 -2 -14 -10 -43 -15 -93 -14
-64 1 -73 3 -73 20 0 10 9 23 20 29 11 6 20 17 20 25 0 19 17 19 36 0z m69
-352 c6 -43 8 -46 21 -29 10 15 21 17 48 13 20 -3 38 -1 42 4 3 5 15 7 25 4
11 -4 26 -1 34 5 10 8 15 9 15 2 0 -6 -5 -14 -10 -17 -8 -5 -8 -11 -1 -19 6
-7 8 -16 4 -19 -11 -11 -43 -8 -43 4 0 8 -6 7 -16 -2 -34 -28 -86 -37 -121
-20 -34 17 -44 41 -18 41 8 0 15 5 15 10 0 10 -20 14 -56 11 -12 -1 -27 5 -34
14 -11 13 -8 16 19 21 17 4 31 10 31 15 0 5 8 9 19 9 15 0 20 -10 26 -47z
m3008 -70 c-7 -3 -13 -12 -13 -22 0 -14 10 -17 58 -18 31 0 63 4 70 10 7 5 15
7 19 4 3 -4 12 1 19 11 10 14 15 15 25 5 7 -7 23 -13 35 -13 12 0 24 -6 27
-14 4 -10 -6 -16 -34 -20 -37 -6 -49 -18 -30 -30 10 -7 3 -46 -8 -46 -4 0 -11
3 -15 8 -4 4 -15 7 -24 8 -45 3 -52 5 -52 14 0 6 9 10 20 10 13 0 18 5 14 15
-5 13 -10 12 -31 -5 -32 -25 -34 -25 -62 1 -12 11 -29 18 -37 15 -11 -4 -14
-1 -10 12 3 9 1 24 -4 32 -7 11 -3 18 13 27 12 6 24 9 27 6 3 -3 -1 -8 -7 -10z
m-1113 -98 c16 -19 29 -19 52 2 11 9 18 11 18 5 0 -7 -4 -12 -8 -12 -5 0 -14
-11 -20 -25 -15 -33 -4 -32 25 2 13 14 23 21 23 15 0 -7 6 -12 14 -12 8 0 16
-6 19 -12 3 -10 7 -10 18 -2 16 13 69 16 69 3 0 -8 -32 -21 -46 -18 -5 1 -17
-1 -27 -6 -12 -5 -24 -1 -37 10 -11 10 -20 13 -20 7 0 -7 -11 -14 -25 -18 -15
-4 -25 -13 -25 -24 0 -14 -5 -17 -22 -12 -21 5 -22 4 -9 -12 8 -9 21 -14 29
-11 9 3 19 0 24 -7 6 -10 12 -9 23 6 10 14 18 16 27 9 8 -6 21 -7 33 -2 11 4
34 8 50 9 17 1 24 4 18 7 -7 2 -13 11 -13 20 0 8 6 13 13 10 7 -2 12 -22 12
-50 0 -46 10 -58 31 -37 8 8 14 7 22 -3 17 -20 80 -10 87 14 4 10 11 19 16 19
6 0 7 5 4 10 -3 6 3 10 13 10 11 0 25 7 32 15 7 8 16 15 21 15 5 0 9 -7 9 -15
0 -8 -4 -15 -10 -15 -5 0 -10 -4 -10 -9 0 -5 9 -7 20 -4 11 3 20 12 20 20 0
10 6 13 15 9 9 -3 24 0 35 6 16 10 22 8 39 -13 24 -29 26 -39 6 -39 -18 0 -20
-27 -2 -33 6 -2 8 -8 4 -13 -4 -5 -12 -2 -17 5 -4 8 -17 12 -29 8 -12 -3 -19
-2 -16 3 3 4 -10 10 -28 13 -22 3 -35 -1 -44 -12 -10 -14 -12 -14 -16 -1 -3 8
-8 23 -11 33 -3 10 -10 15 -16 12 -13 -8 -13 -52 -1 -60 14 -8 8 -72 -7 -87
-10 -10 -14 -8 -18 9 -8 30 -34 38 -41 13 -6 -23 -18 -26 -30 -7 -18 29 -41
26 -68 -9 -14 -19 -30 -34 -36 -34 -15 0 -10 27 6 34 8 3 15 15 15 26 0 15 7
20 28 21 15 1 31 1 36 0 18 -4 56 9 56 19 0 6 -31 9 -75 8 -66 -2 -75 -5 -75
-21 0 -16 -5 -17 -30 -12 -18 4 -36 2 -45 -5 -7 -6 -32 -13 -54 -15 -31 -3
-41 -1 -41 10 0 8 -8 15 -18 15 -10 0 -28 9 -40 20 -28 27 -35 25 -28 -5 5
-18 2 -25 -9 -25 -8 0 -15 -4 -15 -10 0 -5 9 -10 21 -10 33 0 20 -34 -15 -38
-25 -3 -28 -1 -23 17 3 12 2 21 -1 21 -4 0 -18 3 -32 6 -24 5 -24 5 -6 -10 23
-19 14 -46 -15 -46 -12 0 -19 -5 -16 -12 2 -8 16 -12 31 -10 16 2 26 0 23 -5
-3 -4 10 -8 28 -9 19 0 31 4 28 9 -3 5 4 6 16 2 16 -5 21 -2 22 12 0 14 2 14
6 3 3 -8 12 -20 20 -27 12 -9 12 -15 1 -32 -7 -12 -19 -19 -25 -16 -7 2 -13 0
-13 -4 0 -11 29 -23 40 -16 4 3 10 -4 13 -15 3 -11 12 -20 21 -20 9 0 16 -4
16 -10 0 -5 6 -10 14 -10 7 0 19 -6 25 -14 10 -12 7 -18 -15 -33 -20 -13 -29
-14 -32 -5 -2 6 -11 12 -20 12 -13 0 -12 3 4 15 16 13 17 16 4 24 -10 7 -16 7
-19 -1 -2 -6 -13 -20 -24 -31 -19 -19 -20 -19 -15 -1 3 10 9 26 12 34 5 12 -5
15 -63 15 -53 0 -74 4 -90 19 -13 12 -29 17 -45 14 -14 -3 -27 0 -29 6 -3 8
-9 7 -19 -2 -11 -9 -18 -10 -23 -2 -4 6 -14 9 -22 8 -9 -2 -18 2 -20 9 -3 8 8
11 36 10 23 -2 42 1 43 5 2 4 21 2 43 -3 22 -6 49 -11 60 -12 11 0 23 -4 26
-9 3 -5 20 -5 37 -2 26 5 30 9 21 20 -6 8 -29 14 -50 14 -22 0 -39 4 -39 9 0
12 -39 21 -46 10 -10 -17 -34 -9 -34 11 0 11 5 20 10 20 6 0 10 9 10 20 0 13
7 20 20 20 11 0 20 7 20 15 0 16 -27 20 -47 7 -6 -4 -13 -20 -15 -37 -3 -26
-8 -31 -41 -36 -34 -5 -38 -4 -35 15 2 15 10 21 26 20 16 0 22 4 20 15 -2 9
-12 15 -23 13 -11 -1 -25 6 -31 16 -13 20 -7 72 7 72 5 0 9 9 9 20 0 24 15 27
24 4 10 -26 7 -35 -10 -32 -25 4 -28 -19 -4 -25 13 -3 23 0 27 9 7 19 33 18
33 -1 0 -8 9 -15 20 -15 14 0 20 7 20 21 0 15 4 19 16 15 9 -3 20 -6 25 -6 5
0 14 -10 19 -22 l9 -23 0 22 c1 12 -3 24 -8 27 -4 3 -6 18 -4 33 l4 28 -18
-21 c-24 -27 -93 -42 -93 -20 0 10 8 15 22 13 16 -1 26 8 42 40 21 42 41 54
49 31 3 -10 7 -10 20 1 10 8 41 14 78 14 47 0 59 3 54 14 -3 8 -5 17 -5 19 0
2 -7 4 -15 4 -8 0 -15 -6 -15 -12 0 -9 -3 -9 -9 1 -8 12 -12 12 -24 2 -9 -7
-18 -8 -21 -3 -7 13 4 22 26 22 10 0 18 7 18 15 0 8 4 15 9 15 5 0 14 -7 21
-15z m671 -18 c-6 -6 -11 -15 -11 -19 0 -13 28 -9 32 4 2 6 10 8 16 4 21 -13
2 -26 -38 -26 -22 0 -45 -7 -54 -16 -14 -14 -18 -14 -31 -1 -11 11 -36 15 -96
14 -69 -1 -83 2 -95 18 -21 28 -5 33 128 33 65 0 121 2 124 5 3 3 13 3 21 0
10 -4 11 -9 4 -16z m1256 -64 c17 1 35 6 39 10 4 4 13 2 20 -4 8 -7 14 -7 19
1 10 16 35 12 29 -4 -3 -8 -24 -22 -47 -30 l-42 -14 33 -1 c38 -1 40 -6 10
-32 l-23 -20 25 6 c14 4 33 9 43 11 10 3 20 -1 23 -11 4 -10 13 -13 24 -10 10
3 22 0 26 -6 5 -9 11 -7 21 6 9 13 16 16 23 9 14 -14 -13 -37 -48 -41 -15 -1
-31 -3 -37 -4 -5 0 -25 5 -44 13 -27 10 -35 10 -38 1 -7 -20 -21 -15 -29 10
-8 22 -9 29 -12 55 -1 6 -13 12 -27 12 -14 0 -25 -6 -25 -12 0 -7 -12 -18 -26
-25 -23 -11 -25 -10 -24 10 1 12 1 24 0 27 -1 3 -3 20 -6 39 -6 46 14 58 41
26 14 -17 29 -23 52 -22z m-547 2 c0 -8 7 -15 15 -15 7 0 18 -8 24 -17 7 -14
23 -18 62 -18 35 0 54 -4 57 -14 3 -9 -1 -11 -17 -6 -16 5 -20 3 -15 -9 4 -11
1 -16 -10 -16 -9 0 -16 -7 -16 -15 0 -9 -11 -28 -25 -43 -14 -15 -25 -32 -25
-39 0 -7 -4 -13 -9 -13 -5 0 -12 -10 -14 -22 -4 -20 -4 -19 -6 5 -1 17 -7 27
-17 27 -11 0 -14 -6 -9 -20 5 -15 0 -21 -19 -26 -31 -7 -46 1 -46 27 0 21 25
26 33 7 3 -7 3 2 0 21 -4 19 -2 32 3 29 19 -12 8 78 -15 121 -8 17 16 51 36
51 7 0 13 -7 13 -15z m-304 -107 c4 -6 2 -14 -4 -16 -17 -5 -15 -29 5 -52 21
-24 33 -26 33 -5 0 8 3 14 8 13 16 -4 52 14 52 28 0 19 26 18 34 -2 5 -13 9
-14 21 -4 9 7 18 10 21 7 10 -9 -6 -27 -23 -27 -9 0 -22 -8 -29 -17 -11 -15
-15 -15 -22 -5 -8 11 -10 11 -15 -1 -7 -19 33 -31 73 -22 34 7 48 -10 21 -24
-32 -18 -101 -14 -101 5 0 24 -24 11 -30 -16 -7 -31 -30 -38 -37 -11 -5 19
-33 31 -33 14 1 -31 80 -58 80 -27 0 8 5 14 10 14 6 0 10 -7 10 -16 0 -11 7
-14 30 -10 30 4 80 -12 80 -26 0 -10 -1 -10 -39 3 -24 8 -35 8 -46 -1 -8 -7
-24 -10 -35 -7 -16 4 -20 0 -20 -20 0 -22 2 -24 15 -13 12 10 15 10 15 -4 0
-13 5 -14 26 -5 15 5 29 7 32 4 10 -10 -7 -16 -47 -17 -28 0 -41 -5 -41 -14 0
-8 6 -14 14 -14 7 0 19 -7 26 -15 14 -17 3 -20 -37 -9 -18 5 -21 11 -16 35 3
18 1 29 -6 29 -6 0 -11 -4 -11 -9 0 -5 -9 -7 -20 -4 -24 6 -25 16 -5 37 14 14
14 18 0 40 -10 14 -22 23 -31 19 -21 -8 -18 30 4 50 10 10 21 14 24 11 3 -3 9
-1 13 5 3 7 -3 11 -16 11 -17 0 -20 4 -16 21 4 15 0 23 -12 26 -13 3 -17 11
-14 24 7 24 20 25 26 2 4 -14 5 -12 6 5 1 24 15 29 27 10z m7633 -50 c-12 -22
-11 -28 1 -28 6 0 10 6 10 13 0 21 39 39 71 32 18 -4 29 -3 29 4 0 18 22 13
48 -11 16 -15 26 -19 29 -11 6 16 31 5 43 -18 8 -14 6 -21 -10 -29 -11 -6 -26
-8 -32 -3 -18 10 -128 11 -135 0 -3 -5 -10 -3 -15 4 -7 11 -11 11 -15 2 -2 -7
-12 -13 -20 -13 -9 0 -13 -6 -9 -15 7 -20 -25 -75 -44 -75 -8 0 -22 5 -30 11
-12 8 -10 9 8 4 18 -5 22 -2 22 14 0 12 7 21 15 21 18 0 18 5 5 31 -12 22 -39
25 -60 7 -10 -10 -10 -6 2 12 8 14 24 29 35 34 11 5 26 23 33 40 12 27 14 28
20 10 4 -10 4 -27 -1 -36z m-6783 -54 c-4 -9 -1 -23 5 -30 9 -11 8 -14 -5 -14
-9 0 -16 -8 -16 -19 0 -16 9 -18 75 -19 57 0 77 4 83 15 11 18 54 14 60 -6 3
-8 0 -11 -6 -7 -6 3 -14 1 -18 -5 -3 -6 -2 -14 4 -18 17 -11 -10 -38 -47 -46
-22 -5 -36 -3 -41 5 -10 16 -45 -2 -60 -30 -6 -11 -20 -20 -31 -20 -18 0 -20
4 -14 27 6 27 6 27 -13 10 -17 -16 -20 -16 -25 -2 -4 9 -20 15 -39 16 -18 1
-25 3 -15 6 9 2 17 13 17 24 0 12 7 19 18 19 11 0 23 10 29 23 9 20 7 25 -18
40 -16 9 -29 22 -29 29 0 10 3 9 9 -1 8 -12 14 -12 43 2 41 21 42 21 34 1z
m-2607 -49 c35 -3 71 -18 65 -26 -8 -13 -62 -11 -66 3 -4 12 -28 3 -28 -12 0
-8 61 -50 74 -50 3 0 6 7 6 15 0 9 9 15 22 15 20 0 20 -1 4 -19 -13 -15 -14
-21 -5 -27 7 -4 15 -2 17 4 2 7 10 12 18 12 11 0 13 -7 8 -27 -9 -37 -11 -39
-31 -21 -29 26 -89 47 -104 37 -24 -15 -39 -10 -39 12 0 15 5 19 15 15 9 -3
15 0 15 9 0 8 -5 15 -11 15 -17 0 -41 -29 -36 -44 5 -13 -25 -46 -43 -46 -6 0
-10 -4 -10 -9 0 -11 -80 -22 -95 -13 -5 4 -32 5 -60 4 -27 -1 -60 3 -72 9 -25
13 -57 5 -51 -13 4 -12 -14 -38 -26 -38 -3 0 -6 7 -6 15 0 8 -7 15 -15 15 -8
0 -15 5 -15 10 0 6 7 10 15 10 8 0 15 -4 15 -10 0 -5 5 -10 11 -10 6 0 9 7 5
15 -11 29 67 48 92 23 10 -10 15 -10 22 2 6 9 13 11 18 5 10 -15 82 -18 82 -4
0 7 9 9 24 5 20 -5 86 18 86 30 0 2 -18 1 -40 -2 -33 -5 -40 -4 -40 10 0 10 8
16 23 16 34 0 67 11 67 22 0 6 -14 8 -35 5 -19 -3 -37 -1 -40 4 -4 5 4 9 15 9
15 0 20 5 17 15 -5 11 -1 12 19 4 19 -6 34 -5 52 4 15 8 31 11 36 9 5 -3 16
-6 25 -7z m5001 -32 c0 -11 7 -14 28 -9 18 4 22 4 13 -3 -20 -13 -3 -33 22
-25 22 7 22 6 3 -15 -22 -24 -15 -41 9 -21 12 10 15 9 15 -6 0 -11 3 -29 6
-42 5 -19 2 -23 -25 -28 -55 -11 -35 -29 41 -36 36 -4 24 -23 -19 -31 -26 -5
-31 -3 -26 8 3 9 -1 15 -10 15 -8 0 -17 -5 -19 -12 -4 -12 -68 -18 -68 -6 0 3
-3 14 -7 23 -5 15 -1 16 25 11 16 -4 33 -3 36 2 11 19 -96 54 -140 46 -13 -2
-34 0 -45 7 -11 6 -28 8 -37 4 -16 -6 -15 -8 2 -20 11 -8 16 -21 13 -30 -9
-22 -27 -19 -27 5 0 11 -4 20 -10 20 -14 0 -13 23 3 43 13 18 94 36 83 18 -4
-5 -2 -12 4 -16 5 -3 10 -2 10 3 0 5 12 9 28 8 16 0 26 4 25 12 -2 7 9 12 27
12 19 0 30 5 30 14 0 25 -16 27 -44 5 -26 -21 -46 -18 -46 6 0 7 16 19 36 25
19 7 38 18 41 26 6 17 23 8 23 -13z m347 -37 c-3 -8 1 -20 9 -26 8 -7 14 -22
14 -33 0 -18 5 -19 60 -14 33 3 63 1 66 -4 3 -5 11 -9 17 -8 9 0 9 2 0 6 -18
7 -16 23 2 23 8 0 15 4 15 9 0 5 30 8 68 6 37 -1 66 -7 65 -11 -1 -5 -5 -17
-9 -28 -7 -18 -6 -18 14 0 12 10 22 26 22 35 0 12 13 18 58 22 33 4 58 2 60
-3 6 -16 22 -12 22 5 0 17 16 20 25 5 3 -5 22 -10 41 -10 19 0 34 -4 34 -10 0
-5 -15 -10 -34 -10 -19 0 -38 -5 -42 -11 -8 -13 -85 -3 -94 12 -4 5 -18 1 -33
-11 -29 -23 -36 -43 -13 -38 8 2 15 0 15 -5 2 -14 -24 -47 -37 -47 -9 0 -12
-6 -8 -16 3 -9 6 -19 6 -24 0 -4 16 -4 35 0 23 5 36 4 39 -4 2 -6 5 -1 5 12 1
15 -8 26 -25 34 -25 12 -25 12 -5 20 12 4 21 14 21 22 0 13 11 15 68 10 37 -3
74 -12 83 -20 22 -19 28 -18 22 6 -6 22 4 25 41 10 46 -17 31 -35 -30 -35 -31
0 -58 -3 -61 -8 -6 -11 -56 3 -70 20 -6 8 -20 13 -30 11 -21 -4 -31 -38 -11
-38 7 0 19 -9 26 -20 7 -11 18 -20 25 -20 6 0 25 -7 40 -15 22 -11 29 -12 33
-2 5 14 42 15 62 3 7 -4 10 -12 6 -17 -3 -5 -10 -7 -15 -4 -5 4 -9 1 -9 -4 0
-6 -8 -11 -18 -11 -10 0 -24 -6 -31 -12 -10 -11 -11 -10 -6 5 6 13 2 17 -15
17 -12 0 -30 5 -41 10 -16 9 -19 7 -19 -14 0 -13 -3 -31 -6 -40 -7 -18 -54
-22 -54 -5 0 5 -5 7 -10 4 -6 -4 -9 -18 -8 -32 2 -15 -4 -30 -14 -36 -23 -15
-37 1 -15 17 9 7 17 17 17 21 0 7 -75 3 -143 -9 -28 -5 -39 -3 -43 9 -8 21
-36 19 -32 -2 2 -13 -3 -17 -18 -16 -17 2 -21 -2 -17 -17 6 -23 -15 -28 -23
-5 -5 11 -11 12 -25 5 -15 -8 -17 -7 -13 5 4 8 10 15 15 15 5 0 9 7 9 16 0 11
-6 14 -21 9 -17 -6 -20 -3 -17 17 2 15 11 24 26 26 12 2 22 -1 22 -7 0 -19 29
-12 41 11 11 21 12 21 25 3 10 -13 21 -16 44 -12 27 6 30 4 30 -19 0 -16 5
-24 13 -21 6 2 12 13 12 25 0 11 4 24 8 28 4 4 7 0 7 -9 0 -24 23 -21 48 6 22
23 22 23 2 40 -11 9 -24 17 -30 17 -5 0 -13 6 -17 13 -11 19 -41 28 -49 15 -4
-5 0 -14 7 -19 8 -5 10 -9 4 -9 -19 0 -40 20 -30 28 14 10 19 52 6 52 -5 0
-12 -6 -15 -12 -5 -10 -7 -10 -12 0 -8 17 -34 15 -34 -3 0 -8 5 -15 11 -15 5
0 7 -4 4 -10 -10 -15 -35 -12 -35 5 0 8 -9 15 -20 15 -13 0 -20 7 -20 20 0 23
-29 28 -31 5 -3 -27 -4 -30 -26 -52 -27 -27 -33 -28 -33 -8 0 8 -4 15 -10 15
-5 0 -10 -4 -10 -10 0 -5 -7 -7 -15 -4 -19 8 -19 -3 -1 -22 20 -19 72 -29 80
-15 10 16 26 13 26 -5 0 -10 -6 -14 -14 -11 -9 4 -16 -3 -20 -16 l-6 -22 -16
24 c-14 20 -22 22 -54 17 -27 -4 -41 -2 -50 9 -10 12 -10 15 3 15 24 0 9 28
-16 32 -38 5 -19 23 26 23 23 0 48 4 55 8 7 5 14 2 18 -7 8 -20 34 -21 34 -2
0 8 6 17 13 19 9 4 8 8 -3 16 -9 6 -18 7 -24 1 -18 -18 -28 -10 -22 15 4 17 2
27 -8 31 -19 7 -27 39 -13 53 16 16 30 14 24 -3z m-3661 -114 c-4 -11 4 -27
23 -45 26 -24 31 -26 45 -12 8 8 17 11 20 6 11 -17 -26 -43 -54 -38 -19 4 -29
0 -39 -15 -11 -17 -15 -18 -22 -7 -7 11 -12 10 -24 -8 -21 -30 -31 -29 -66 8
-28 30 -41 67 -18 53 7 -4 10 4 7 22 -3 26 0 29 22 26 13 -1 28 -9 33 -17 4
-8 14 -12 21 -9 7 3 21 -2 30 -11 19 -19 21 -12 5 16 -12 23 -6 49 11 49 6 0
9 -8 6 -18z m8503 -148 c13 -43 15 -45 43 -38 23 5 29 3 25 -7 -2 -8 -10 -13
-17 -11 -39 9 -71 -38 -35 -52 8 -3 15 -14 15 -25 0 -11 8 -25 18 -30 15 -9
15 -10 -4 -11 -25 0 -39 -15 -48 -52 -6 -26 -5 -27 30 -24 29 2 37 -2 48 -23
8 -15 10 -34 6 -46 -6 -16 -9 -17 -14 -5 -3 8 -4 24 -3 35 3 28 -29 31 -36 3
l-6 -22 -19 22 c-11 12 -25 22 -32 22 -15 0 -5 103 11 108 17 7 9 34 -21 68
-33 38 -44 32 -30 -17 13 -46 13 -49 -9 -49 -11 0 -26 -7 -35 -15 -21 -22 -26
-19 -26 16 0 21 4 30 13 27 6 -3 20 4 30 14 9 10 13 18 7 18 -5 0 -12 11 -16
24 -4 18 -10 22 -27 18 -12 -3 -26 -11 -30 -18 -6 -11 -12 -10 -27 3 -14 12
-17 20 -9 28 7 7 13 5 19 -4 13 -22 39 4 33 32 -4 20 -3 20 19 -5 16 -19 33
-28 53 -28 51 0 75 27 31 34 -9 1 -16 5 -16 9 0 8 32 45 40 46 3 1 12 -19 19
-45z m-1479 -14 c0 -14 7 -20 21 -20 11 0 29 -4 39 -10 10 -5 35 -12 55 -14
21 -3 41 -10 45 -17 6 -8 9 -8 15 0 5 9 10 9 21 0 19 -16 18 -43 -1 -35 -9 3
-15 0 -15 -8 0 -7 -6 -19 -14 -25 -18 -15 -39 9 -30 34 6 15 4 16 -14 6 -32
-17 -35 -29 -17 -57 9 -14 13 -33 10 -45 -4 -11 -3 -33 0 -50 5 -23 12 -29 28
-27 28 4 33 24 6 31 -11 3 -18 10 -15 16 7 11 40 10 88 -3 15 -5 35 -3 47 4
15 8 21 8 21 0 0 -15 57 -3 85 17 19 13 18 14 -7 7 -29 -7 -40 9 -13 20 8 3
15 12 15 21 0 22 27 18 45 -7 14 -21 14 -24 0 -34 -12 -9 -13 -17 -5 -38 9
-24 8 -26 -20 -26 -34 0 -38 -7 -13 -26 12 -8 22 -9 29 -3 7 6 22 6 38 -1 22
-8 26 -14 20 -33 -3 -12 -13 -26 -21 -31 -8 -4 -21 -22 -29 -40 l-13 -31 -1
30 c0 17 5 36 12 43 9 9 8 12 -4 12 -9 0 -20 5 -24 12 -5 7 -3 8 6 3 9 -5 11
-4 6 3 -10 17 -26 15 -49 -5 -15 -14 -21 -15 -24 -5 -3 8 -15 11 -37 6 -24 -4
-38 -1 -49 11 -11 10 -17 12 -17 5 0 -16 -88 -3 -106 15 -8 7 -19 15 -26 18
-10 4 -11 7 0 18 16 18 15 29 -3 29 -8 0 -15 -4 -15 -10 0 -18 -29 -11 -40 9
-5 11 -22 26 -37 33 -15 7 -29 21 -31 30 -3 15 4 17 42 16 30 -2 46 -7 46 -15
0 -19 14 -16 28 7 11 18 9 24 -12 47 -24 25 -26 26 -44 10 -23 -21 -52 -22
-52 -2 0 8 7 15 15 15 8 0 15 2 15 5 0 11 -35 45 -47 45 -7 0 -13 5 -13 10 0
13 0 13 55 -15 52 -26 59 -26 50 -3 -4 10 -14 14 -26 11 -10 -3 -19 0 -19 6 0
6 -7 11 -15 11 -8 0 -15 9 -15 20 0 11 7 20 15 20 8 0 15 -9 15 -20z m1232
-42 c-16 -16 -15 -39 1 -37 18 3 77 -13 77 -20 0 -4 -7 -17 -16 -29 -11 -16
-22 -21 -35 -17 -29 9 -59 -4 -59 -26 0 -21 25 -26 33 -6 3 6 4 0 4 -15 -1
-15 3 -27 8 -27 6 -1 10 3 10 8 0 18 12 21 24 7 10 -12 9 -20 -4 -40 -9 -14
-14 -30 -10 -37 6 -8 -2 -9 -26 -4 -47 10 -56 21 -41 46 8 12 11 24 7 27 -3 4
-10 0 -15 -7 -4 -8 -15 -11 -23 -8 -9 3 -17 2 -19 -3 -2 -4 -15 -6 -30 -3 -31
6 -39 37 -13 47 8 3 15 12 15 20 0 19 31 30 41 14 5 -7 6 -21 3 -30 -3 -10 -2
-18 3 -18 4 0 13 16 19 35 6 19 7 35 3 35 -13 0 -11 38 1 45 6 4 9 12 8 18 -1
7 4 23 11 36 9 17 16 20 24 12 8 -8 8 -14 -1 -23z m-4530 -109 c17 -12 27 -27
24 -35 -4 -9 2 -14 16 -14 12 0 30 -7 40 -17 17 -15 18 -15 18 0 0 27 17 20
30 -13 7 -16 16 -30 21 -30 16 0 24 5 22 13 -2 4 6 7 17 7 15 0 20 -7 20 -25
0 -16 6 -25 15 -25 10 0 15 10 15 30 0 21 5 30 16 30 8 0 12 -5 9 -10 -3 -6
-3 -20 1 -32 l7 -23 8 24 c12 30 35 21 32 -13 -1 -14 2 -24 7 -21 5 3 11 1 15
-5 8 -13 -1 -13 -44 0 -25 7 -42 6 -60 -3 -14 -6 -40 -11 -57 -9 -24 2 -35 11
-49 40 -10 21 -20 31 -22 24 -3 -7 0 -19 6 -26 17 -20 0 -28 -21 -9 -10 9 -18
29 -18 45 0 15 -4 28 -9 28 -20 0 -41 -13 -35 -21 3 -5 -1 -9 -10 -9 -8 0 -17
6 -20 13 -3 6 -2 -1 1 -18 6 -30 6 -30 -15 -12 -15 14 -29 17 -51 12 -20 -4
-31 -3 -31 4 0 6 11 11 25 11 18 0 25 5 25 20 0 11 5 20 10 20 14 0 13 27 -2
32 -11 4 -5 38 8 38 3 0 19 -10 36 -21z m1568 -58 c0 -18 8 -35 19 -43 10 -7
20 -22 22 -32 2 -12 13 -20 27 -21 26 -2 27 1 6 23 -21 20 -1 30 23 10 13 -10
17 -10 20 0 3 6 16 12 29 12 21 0 24 -3 18 -25 -6 -23 -4 -25 27 -21 22 2 35
9 37 20 3 12 -1 14 -15 9 -15 -5 -16 -3 -5 8 17 18 15 29 -5 29 -14 0 -15 2
-4 9 7 5 11 13 7 19 -10 16 20 22 61 10 51 -14 57 -18 43 -32 -8 -8 -13 -8
-18 1 -7 12 -62 6 -62 -7 0 -4 14 -18 31 -31 25 -19 28 -25 16 -34 -8 -6 -11
-17 -7 -29 6 -17 8 -16 23 8 22 32 41 35 31 4 -5 -13 -7 -35 -6 -50 2 -36 -11
-35 -47 2 -24 26 -30 28 -40 16 -10 -11 -19 -12 -42 -4 -17 6 -33 8 -36 4 -4
-3 1 -6 10 -6 21 0 22 -17 2 -37 -17 -16 -85 -26 -85 -12 0 5 -6 9 -14 9 -15
0 -29 27 -21 40 8 14 -10 20 -25 9 -12 -8 -12 -12 -2 -16 14 -6 17 -33 2 -33
-5 0 -14 8 -19 18 -9 15 -12 15 -20 2 -13 -20 -22 -9 -14 18 3 12 12 22 19 22
20 0 17 27 -3 39 -15 8 -15 14 -5 47 7 25 8 42 2 48 -15 15 -12 26 5 26 10 0
15 -10 15 -29z m3637 15 c-10 -25 21 -39 83 -38 40 1 65 6 76 16 21 22 62 21
66 -1 6 -30 -4 -74 -16 -70 -6 2 -13 12 -15 23 -6 35 -43 47 -37 12 3 -23 -14
-48 -33 -48 -14 0 -14 -13 0 -27 8 -8 5 -13 -10 -18 -25 -8 -44 2 -37 20 2 7
0 17 -6 23 -6 6 -1 12 15 16 14 3 27 13 31 21 9 25 -41 19 -55 -7 l-12 -22 -8
22 c-9 23 -49 31 -49 9 0 -19 -35 -36 -61 -30 -30 7 -59 32 -59 50 0 7 -4 13
-10 13 -5 0 -7 7 -4 15 9 23 31 18 38 -10 8 -30 21 -32 38 -5 7 11 18 20 24
20 6 0 17 7 24 15 16 19 24 19 17 1z m-791 -189 c1 -25 -2 -45 -6 -44 -5 1
-15 -6 -23 -17 -12 -17 -15 -17 -28 -4 -12 14 -17 13 -36 -9 -31 -33 -29 -42
2 -13 20 19 25 20 25 7 0 -19 35 -41 50 -32 6 4 25 2 43 -3 17 -6 47 -13 65
-16 27 -5 32 -3 32 14 0 11 5 20 10 20 6 0 10 -6 10 -14 0 -8 14 -21 31 -30
28 -14 30 -14 24 3 -4 15 0 17 27 14 18 -2 43 -6 55 -9 22 -4 22 -5 5 -22 -9
-10 -25 -16 -34 -14 -19 5 -23 -5 -10 -25 5 -8 13 -9 22 -3 8 6 25 10 38 10
15 0 22 6 22 20 0 11 7 20 15 20 8 0 15 -9 15 -20 0 -24 13 -26 30 -5 18 22
40 18 40 -6 0 -16 4 -19 20 -14 17 5 20 2 20 -21 0 -27 1 -27 14 -8 14 19 15
19 21 -1 4 -11 11 -29 17 -39 8 -16 7 -18 -7 -12 -23 9 -55 -20 -55 -51 0 -26
25 -32 34 -7 6 15 8 15 26 -1 27 -24 25 -35 -4 -35 -13 0 -26 -5 -28 -11 -3
-8 -18 -4 -47 10 -43 23 -51 48 -12 44 15 -2 21 3 21 18 0 15 -5 19 -15 15 -8
-3 -19 2 -24 12 -9 16 -11 15 -25 -3 -9 -11 -13 -27 -10 -35 13 -34 13 -46 -1
-64 -11 -14 -18 -16 -28 -8 -7 6 -32 14 -56 18 -23 4 -39 10 -34 14 15 13 62
20 68 10 8 -13 25 -13 25 0 0 6 -7 10 -15 10 -8 0 -15 4 -15 8 0 14 -65 45
-81 39 -10 -4 -9 -6 4 -6 24 -1 22 -21 -3 -21 -11 0 -20 7 -20 15 0 20 -20 19
-36 -2 -11 -15 -16 -16 -33 -5 -12 6 -31 12 -44 12 -20 0 -23 4 -19 30 2 17 1
30 -3 30 -19 0 -45 -23 -45 -40 0 -10 -5 -20 -11 -22 -12 -4 6 -46 25 -60 13
-9 -21 -41 -35 -32 -6 3 -9 17 -6 30 2 13 0 24 -4 24 -5 0 -9 -4 -9 -10 0 -5
-4 -10 -10 -10 -16 0 -11 23 10 50 27 34 26 53 -2 44 -12 -3 -29 -13 -37 -22
-10 -10 -16 -11 -19 -3 -2 6 7 21 20 32 20 18 20 20 3 13 -22 -8 -82 -7 -96 2
-21 12 -6 32 29 40 20 4 41 6 45 5 5 -1 5 4 2 10 -5 6 -20 8 -41 4 -36 -6 -46
7 -18 23 22 12 8 35 -17 27 -15 -5 -19 -1 -19 15 0 17 -4 21 -17 16 -9 -4 -20
-1 -25 6 -6 10 -10 10 -17 -1 -5 -8 -7 -20 -4 -28 6 -15 -13 -18 -22 -3 -3 6
-15 10 -26 10 -20 0 -20 0 1 22 11 12 20 27 20 32 0 10 44 36 60 36 4 0 12
-11 18 -25 14 -30 32 -33 32 -5 0 14 7 20 23 21 26 2 56 5 75 7 9 1 11 9 7 22
-5 14 -2 20 9 20 18 0 22 25 6 33 -6 3 -5 4 2 3 8 -2 14 -20 14 -49z m-3885
31 c-1 -5 -1 -17 -1 -28 0 -17 -3 -18 -26 -10 -38 15 -45 12 -38 -15 5 -19 2
-25 -11 -25 -26 0 -15 -44 13 -48 32 -5 17 -22 -20 -22 -23 0 -29 -4 -24 -15
7 -18 -5 -20 -22 -3 -17 17 -15 47 3 54 11 5 12 10 2 25 -18 30 -26 23 -29
-28 -2 -29 -8 -48 -17 -51 -10 -3 -12 2 -7 22 7 29 4 31 -25 15 -16 -8 -26 -7
-44 5 -14 9 -31 16 -39 16 -21 0 -26 13 -10 28 12 11 18 8 39 -13 31 -30 45
-32 45 -5 0 13 -7 20 -19 20 -21 0 -37 17 -27 28 4 3 21 1 39 -6 26 -10 33 -9
39 3 6 10 22 13 54 11 29 -2 41 0 33 5 -12 7 -11 11 1 19 8 5 25 10 38 10 12
0 22 5 22 11 0 6 7 9 16 7 8 -2 15 -6 15 -10z m2791 -604 c-12 -8 -22 -21 -22
-28 0 -8 -13 -19 -29 -26 -31 -12 -50 -65 -31 -84 14 -14 12 -26 -5 -26 -8 0
-15 8 -15 18 0 24 -37 47 -55 32 -10 -8 -17 -6 -27 9 -15 21 -15 21 -36 1 -22
-21 -37 -27 -27 -11 3 5 1 13 -5 16 -6 4 -8 15 -5 26 7 21 -5 25 -23 7 -8 -8
-12 -8 -12 -1 0 16 28 36 42 29 7 -3 28 -15 46 -26 21 -13 32 -16 29 -8 -2 7
0 21 5 31 7 13 5 24 -6 36 -18 20 -21 41 -6 41 6 0 10 -7 10 -15 0 -8 5 -15
10 -15 6 0 10 7 10 15 0 18 14 19 43 4 16 -9 22 -9 25 0 5 16 32 13 32 -4 0
-8 7 -15 15 -15 8 0 15 6 15 13 0 7 6 19 12 25 10 10 15 9 22 -8 7 -16 5 -24
-12 -36z"/>
<path d="M5193 2773 c-7 -3 -13 -16 -13 -29 0 -20 -5 -24 -29 -24 -17 0 -33
-5 -36 -10 -5 -8 -11 -7 -21 1 -8 7 -27 9 -45 5 -18 -3 -37 -2 -44 4 -8 7 -21
2 -41 -16 -27 -24 -27 -26 -6 -21 12 3 38 1 57 -4 31 -9 34 -12 25 -29 -10
-18 -7 -20 27 -22 58 -3 66 -2 91 6 13 5 22 3 22 -3 0 -6 -8 -11 -17 -12 -10
0 -13 -3 -6 -5 16 -7 63 25 63 42 0 8 -7 14 -15 14 -19 0 -19 7 2 28 16 16 16
17 0 20 -26 5 -17 34 12 44 13 4 13 5 0 10 -7 3 -20 3 -26 1z"/>
<path d="M6071 2661 c-7 -5 -22 -6 -32 -4 -10 3 -19 0 -19 -6 0 -6 9 -11 20
-11 11 0 20 -3 20 -8 0 -4 -9 -13 -20 -20 -11 -7 -20 -19 -20 -27 0 -8 -4 -15
-10 -15 -5 0 -18 -9 -28 -20 -17 -18 -20 -19 -32 -5 -16 20 -36 19 -44 -1 -5
-13 -9 -14 -20 -5 -11 9 -19 9 -35 -1 -33 -20 -27 -41 9 -33 40 9 100 -11 100
-34 0 -15 11 -18 80 -19 65 0 80 2 80 14 0 8 -5 12 -11 9 -12 -8 -49 23 -49
41 0 7 -6 11 -12 9 -7 -3 -20 0 -28 5 -13 8 -13 11 0 24 19 20 61 10 58 -13
-2 -9 3 -15 10 -13 6 1 12 -4 12 -10 0 -10 19 -12 70 -10 38 2 70 8 70 13 0 5
-13 9 -29 9 -17 0 -33 5 -36 11 -4 6 -17 14 -29 19 -17 7 -17 9 -3 9 20 1 21
5 5 34 l-12 22 -6 -25 c-5 -21 -12 -25 -40 -25 -18 0 -35 5 -37 11 -5 16 27
46 42 41 19 -8 39 9 32 27 -7 17 -34 21 -56 7z"/>
<path d="M9815 2390 c-17 -7 -18 -9 -2 -9 9 -1 25 -10 34 -20 12 -15 24 -18
50 -14 29 5 32 3 27 -12 -6 -15 -4 -16 13 -7 11 6 38 9 61 7 23 -2 42 1 42 6
0 5 19 7 43 5 23 -3 45 -5 48 -5 4 -1 9 -11 13 -23 6 -23 52 -52 67 -42 5 3 9
-5 9 -17 0 -18 2 -19 15 -9 8 7 12 17 8 23 -4 6 3 8 21 3 19 -5 26 -3 26 8 0
13 -36 25 -85 28 -11 1 -30 12 -41 24 -17 18 -36 23 -95 27 -41 3 -81 8 -90
12 -10 3 -20 2 -24 -4 -9 -16 -25 -13 -25 4 0 20 -18 19 -22 -1 -2 -13 -6 -12
-25 5 -24 23 -37 25 -68 11z"/>
<path d="M6981 2294 c-1 -5 -24 -11 -51 -11 -28 0 -56 -6 -64 -12 -10 -9 -16
-9 -21 -1 -5 8 -10 8 -20 0 -8 -7 -15 -7 -19 -1 -10 15 -44 1 -49 -21 -3 -11
-10 -17 -16 -13 -6 3 -11 1 -11 -4 0 -6 9 -11 20 -11 13 0 20 -7 20 -19 0 -21
13 -34 24 -24 3 4 17 7 31 8 18 0 25 -5 25 -17 0 -22 0 -22 50 -2 38 16 69 12
42 -5 -8 -5 -3 -14 18 -29 16 -12 33 -22 37 -22 4 0 3 4 -4 8 -6 4 -13 21 -16
38 -5 35 -25 75 -41 86 -7 5 -4 8 7 8 23 0 50 26 44 43 -3 6 -6 7 -6 1z"/>
<path d="M10438 2278 c-43 -11 -48 -23 -16 -34 21 -6 21 -7 -8 -22 -16 -9 -31
-17 -34 -17 -3 -1 -13 -5 -22 -9 -21 -9 -38 0 -38 21 0 10 -6 13 -16 9 -9 -3
-24 -6 -35 -6 -12 0 -19 -7 -19 -20 0 -17 7 -20 45 -20 41 0 45 -2 45 -25 0
-32 27 -34 32 -2 3 21 5 21 35 -12 18 -19 36 -30 42 -26 7 4 18 1 26 -5 8 -7
20 -8 27 -4 7 5 18 9 23 10 6 1 20 5 33 9 33 11 27 28 -7 20 -22 -5 -35 -1
-50 14 l-20 20 44 3 c34 2 43 6 36 17 -7 10 -13 11 -30 2 -12 -7 -21 -8 -21
-2 0 5 -12 14 -27 19 -25 9 -25 11 -6 11 12 1 25 6 28 11 3 6 15 10 26 10 26
0 24 17 -3 25 -43 12 -53 13 -90 3z"/>
<path d="M10068 2220 c4 -25 1 -30 -16 -30 -12 0 -24 -4 -27 -10 -3 -5 -1 -10
5 -10 6 0 4 -13 -7 -32 -13 -25 -18 -29 -21 -15 -3 13 -14 17 -48 17 -24 0
-44 -4 -44 -8 0 -5 -9 -18 -20 -30 -16 -16 -28 -21 -48 -16 -21 4 -24 3 -12
-5 13 -10 13 -11 0 -12 -8 -1 -19 -3 -25 -4 -5 -2 -18 -3 -27 -4 -10 0 -18 -8
-18 -16 0 -8 -4 -15 -9 -15 -4 0 -6 -12 -3 -26 6 -30 40 -47 59 -28 17 17 16
27 -1 21 -8 -3 -22 1 -33 8 -17 14 -15 16 20 19 6 1 15 6 20 11 4 6 11 4 17
-5 6 -9 13 -11 18 -5 9 13 92 16 92 4 0 -5 -7 -9 -15 -9 -25 0 -17 -17 17 -33
22 -11 38 -13 49 -6 13 7 21 5 28 -8 18 -32 38 11 33 70 -1 9 -9 17 -18 17
-11 0 -15 -6 -11 -20 3 -13 0 -20 -9 -20 -8 0 -14 10 -14 25 0 24 -3 26 -50
29 -8 1 -16 10 -19 21 -3 17 -2 18 14 5 14 -12 19 -12 22 -2 6 17 23 15 23 -2
0 -28 18 -26 48 4 17 16 40 30 51 30 17 0 21 -6 21 -35 0 -23 -5 -35 -14 -35
-9 0 -12 -7 -9 -20 7 -25 20 -26 27 -2 8 24 52 73 62 70 5 -2 10 2 11 7 2 6
-3 11 -10 11 -6 1 -16 2 -21 3 -6 0 -5 6 2 13 17 17 15 33 -2 19 -8 -7 -25 -9
-41 -5 -20 5 -23 9 -13 15 10 7 9 9 -4 9 -20 0 -24 15 -8 25 7 4 7 13 0 26
-16 29 -27 23 -22 -11z"/>
<path d="M11777 2232 c-10 -10 -17 -23 -17 -28 0 -14 71 -48 93 -45 10 1 25
-3 33 -9 11 -10 17 -10 29 0 8 7 20 8 27 4 7 -5 21 -7 31 -6 9 2 20 -4 23 -13
5 -12 14 -14 35 -10 16 4 29 3 29 -2 0 -16 73 -12 85 4 12 16 63 25 71 12 8
-13 24 -11 24 3 0 6 7 20 17 30 24 27 12 31 -41 13 -43 -15 -72 -13 -62 4 3 4
1 13 -5 21 -7 13 -9 13 -9 0 0 -28 -53 -39 -125 -27 -56 9 -64 14 -59 29 4 13
0 18 -14 18 -11 0 -23 6 -25 13 -4 10 -6 10 -6 0 -1 -15 -31 -18 -31 -3 0 18
-86 11 -103 -8z"/>
<path d="M9070 2230 c0 -5 7 -10 15 -10 8 0 15 -4 15 -10 0 -5 -7 -10 -15 -10
-22 0 -18 -17 5 -23 13 -3 22 -17 26 -36 4 -17 13 -31 21 -31 11 0 12 8 7 35
-5 30 -4 34 10 29 9 -3 14 -10 11 -14 -10 -17 8 -40 31 -40 19 0 24 5 24 28
l1 27 17 -21 c10 -12 29 -25 42 -29 20 -6 22 -5 17 15 l-6 22 23 -21 c20 -19
46 -28 46 -16 0 2 -10 15 -22 28 -13 13 -29 32 -36 43 -9 13 -14 15 -18 7 -8
-18 -31 -16 -38 3 -5 13 -9 14 -21 4 -11 -9 -19 -10 -28 -1 -10 8 -17 7 -26
-2 -8 -8 -14 -9 -19 -1 -4 6 -22 16 -41 22 -41 14 -41 14 -41 2z"/>
<path d="M13949 2108 c-8 -16 -8 -23 2 -29 11 -6 11 -11 2 -20 -9 -9 -15 -9
-26 0 -8 6 -22 8 -32 5 -15 -6 -16 -9 -4 -18 8 -6 20 -19 28 -28 12 -16 11
-18 -3 -18 -9 0 -16 7 -16 15 0 17 -6 18 -100 19 -36 1 -71 5 -78 10 -8 5 -24
3 -38 -4 -21 -12 -27 -11 -45 6 -15 13 -23 15 -26 7 -2 -7 -11 -9 -19 -6 -8 3
-14 -1 -14 -10 0 -8 12 -19 26 -24 25 -8 26 -10 10 -26 -18 -17 -15 -48 6 -74
8 -9 6 -13 -6 -13 -9 0 -16 -7 -16 -15 0 -8 9 -15 20 -15 17 0 20 7 20 40 0
22 -4 40 -10 40 -5 0 -10 7 -10 15 0 26 31 16 41 -12 12 -35 53 -65 80 -61 20
3 20 3 -1 26 -14 15 -30 22 -41 19 -14 -4 -19 0 -19 14 0 10 -4 19 -10 19 -20
0 -9 25 16 37 20 9 26 9 30 -2 3 -7 15 -16 27 -20 19 -6 19 -8 5 -12 -16 -4
-16 -6 -2 -29 19 -28 34 -31 34 -6 1 14 3 14 19 -5 20 -24 38 -32 25 -11 -5 7
0 9 14 6 12 -3 23 -1 26 6 3 7 5 7 5 -1 1 -18 31 -16 53 4 11 9 18 11 18 5 0
-7 -4 -12 -10 -12 -5 0 -10 -12 -10 -26 0 -21 -4 -24 -20 -19 -15 5 -20 2 -20
-13 0 -15 5 -19 19 -15 13 3 20 -2 25 -19 5 -18 8 -20 15 -9 5 7 14 10 20 7 6
-4 11 -1 11 8 0 10 -6 13 -15 10 -27 -11 -31 27 -5 46 32 24 102 33 115 16 16
-21 71 -30 78 -12 3 8 -1 20 -9 26 -18 16 -18 30 1 30 8 0 15 -4 15 -9 0 -5 9
-13 20 -16 11 -4 18 -10 15 -15 -3 -5 2 -24 11 -42 20 -38 31 -22 15 22 -14
43 12 40 32 -3 16 -32 24 -38 99 -71 49 -22 58 -20 58 8 0 26 -29 39 -67 30
-19 -5 -22 -3 -16 12 10 29 26 35 45 17 24 -21 32 -11 35 42 l3 45 -32 -7
c-18 -3 -36 -10 -39 -16 -4 -5 -9 -5 -14 2 -3 7 -14 9 -23 7 -10 -3 -24 -1
-32 4 -13 8 -11 12 7 30 12 11 30 20 40 20 13 1 11 5 -10 16 -15 8 -32 12 -37
9 -10 -6 -69 22 -81 39 -4 5 -12 7 -19 4 -9 -3 -8 -8 4 -20 21 -22 20 -28 -3
-28 -11 0 -22 -4 -25 -9 -7 -11 -62 3 -59 15 1 5 5 17 9 28 6 15 4 17 -14 11
-16 -5 -22 -2 -22 9 0 9 8 16 19 16 11 0 23 5 26 10 8 12 -35 13 -54 1 -8 -5
-12 -18 -9 -29 4 -13 -1 -27 -12 -37 -16 -15 -18 -14 -24 9 -3 13 -3 31 0 39
9 24 -34 29 -47 5z"/>
<path d="M11143 1838 c-20 -19 -23 -20 -29 -5 -3 10 -17 17 -31 17 -20 0 -24
-4 -20 -20 3 -11 1 -23 -4 -26 -17 -10 -9 -24 15 -24 15 0 26 7 29 20 4 14 11
18 28 14 13 -3 40 -6 59 -6 19 0 40 -5 46 -10 6 -4 18 -6 27 -2 12 4 14 1 10
-15 -7 -26 2 -26 35 0 16 12 27 31 27 46 1 22 -2 24 -27 19 -15 -3 -30 -1 -33
4 -3 6 -30 10 -58 10 -41 0 -58 -5 -74 -22z"/>
</g>
</svg>
