<?xml version="1.0" standalone="no"?>
<!DOCTYPE svg PUBLIC "-//W3C//DTD SVG 20010904//EN"
 "http://www.w3.org/TR/2001/REC-SVG-20010904/DTD/svg10.dtd">
<svg version="1.0" xmlns="http://www.w3.org/2000/svg"
 width="1440.000000pt" height="600.000000pt" viewBox="0 0 1440.000000 600.000000"
 preserveAspectRatio="xMidYMid meet">
<metadata>
Created by potrace 1.16, written by Peter Selinger 2001-2019
</metadata>
<g transform="translate(0.000000,600.000000) scale(0.100000,-0.100000)"
fill="#000000" stroke="none">
<path d="M0 5288 l0 -713 55 3 c50 4 55 2 55 -17 0 -19 -5 -21 -55 -18 l-55 4
0 -213 c0 -193 2 -212 18 -219 16 -6 16 -7 0 -19 -16 -12 -18 -32 -18 -160 0
-139 1 -146 20 -146 11 0 20 -3 20 -8 0 -12 82 -1 105 14 11 7 42 13 70 12 46
0 48 -1 31 -14 -11 -8 -14 -14 -8 -14 7 0 12 -8 12 -19 0 -21 -33 -29 -108
-27 -23 0 -42 -2 -42 -6 0 -5 -15 -8 -34 -8 -64 0 -66 -3 -66 -107 0 -60 4
-92 10 -88 5 3 10 1 10 -4 0 -6 -4 -11 -10 -11 -7 0 -10 -255 -10 -744 0 -701
1 -745 18 -749 16 -4 16 -5 0 -6 -10 0 -18 -7 -18 -15 0 -9 9 -12 28 -9 l27 4
-27 -21 -28 -22 0 -214 0 -214 26 6 c19 5 25 4 20 -5 -4 -6 -16 -11 -27 -11
-25 0 -25 -16 0 -30 30 -16 136 -13 151 5 10 12 7 15 -17 20 -15 4 -37 10 -48
15 -19 8 -19 9 3 9 12 1 22 6 22 11 0 6 7 10 16 10 8 0 22 7 30 15 9 8 31 15
49 15 26 0 33 3 29 15 -4 9 0 15 7 16 8 0 1 7 -16 14 l-30 13 28 11 c34 13 79
15 59 2 -24 -15 10 -19 38 -4 14 7 19 13 13 13 -7 0 -13 5 -13 10 0 6 14 10
31 10 27 0 30 2 19 16 -22 26 10 47 82 52 36 3 75 13 92 23 17 11 44 19 60 19
16 0 26 3 23 7 -15 14 18 33 59 33 42 0 58 -12 32 -24 -7 -4 4 -4 25 -2 20 3
37 1 37 -4 0 -11 -26 -20 -58 -20 -19 0 -23 -3 -14 -9 23 -14 -12 -21 -53 -10
-20 6 -46 8 -58 6 -15 -3 -9 -6 21 -12 23 -4 42 -12 42 -18 0 -6 -17 -8 -42
-4 -24 2 -37 3 -30 0 22 -8 13 -32 -20 -49 -22 -12 -50 -15 -99 -12 -38 2 -65
0 -60 -5 4 -4 26 -9 49 -10 22 0 38 -5 35 -10 -3 -5 -35 -7 -72 -4 -66 6 -66
6 -21 -7 l44 -12 -46 -27 c-26 -15 -54 -27 -62 -27 -9 0 -26 -10 -37 -21 -19
-19 -30 -21 -85 -16 -35 2 -64 1 -64 -4 0 -5 10 -9 23 -9 50 0 48 -16 -5 -43
-42 -21 -67 -27 -121 -27 l-67 0 0 -725 0 -725 4742 0 c4394 0 4741 1 4726 16
-13 14 -35 16 -110 15 -92 -2 -93 -2 -73 17 12 12 23 15 27 9 8 -13 120 -9
129 5 4 7 8 6 11 -2 2 -7 12 -11 22 -9 17 4 16 6 -4 34 -12 17 -6 12 14 -10
43 -48 45 -58 9 -49 -25 7 -27 6 -14 -9 12 -16 190 -17 2467 -17 l2453 0 1
911 0 910 -57 -6 c-35 -5 -54 -4 -48 2 6 5 31 26 58 47 l47 37 0 1015 0 1014
-23 1 c-12 1 -32 0 -44 -1 -45 -3 -17 49 34 64 16 5 23 2 26 -11 3 -10 5 145
6 344 l1 361 -327 -5 -328 -5 59 43 60 43 220 7 c188 6 224 5 244 -7 21 -14
26 -14 48 1 l24 15 0 610 0 610 -1546 0 c-1283 -1 -1549 -3 -1567 -14 -12 -8
-53 -19 -92 -26 -38 -7 -80 -17 -92 -21 -35 -13 -52 -1 -48 32 l4 29 -3995 0
-3994 0 5 -36 4 -36 -57 6 c-102 12 -181 25 -193 31 -4 3 -6 12 -2 20 4 11 -2
15 -22 15 -14 0 -24 -4 -20 -9 11 -19 -13 -20 -101 -6 -74 13 -302 15 -1386
15 l-1298 0 0 -712z m3511 622 c6 -16 16 -30 21 -30 7 0 6 5 -1 13 -13 16 -5
27 21 27 10 0 18 -7 18 -17 0 -15 1 -15 18 0 22 20 83 22 100 5 7 -7 12 -29
12 -50 0 -36 -8 -45 -35 -38 -5 2 -44 9 -85 16 -119 21 -122 22 -115 43 3 11
1 22 -5 26 -8 5 -8 11 1 21 19 23 39 16 50 -16z m5134 -422 c-103 -57 -115
-61 -185 -65 -108 -6 -117 -9 -177 -66 -46 -43 -52 -52 -36 -58 15 -5 10 -10
-24 -27 -60 -31 -66 -47 -15 -38 53 8 54 -6 2 -29 -58 -26 -60 -38 -6 -34 25
2 46 1 46 -2 0 -3 -18 -14 -40 -24 -58 -26 -60 -38 -6 -34 44 4 61 -3 34 -14
-7 -3 -1 -6 13 -6 14 -1 34 8 44 19 16 18 14 25 -7 21 -5 0 -8 5 -8 13 0 9 7
12 20 9 11 -3 26 0 33 6 8 6 17 8 21 4 4 -4 34 -6 67 -5 44 2 59 -1 59 -11 0
-10 -15 -14 -50 -13 -27 0 -50 3 -50 8 0 4 -10 3 -22 -3 -13 -7 -30 -15 -38
-19 -23 -11 -12 -25 15 -22 17 2 25 -1 25 -12 0 -11 -11 -15 -40 -14 -23 0
-44 -2 -47 -6 -4 -3 5 -6 18 -6 14 0 19 -3 13 -8 -7 -4 -14 -18 -15 -32 -4
-22 -9 -25 -54 -28 l-49 -3 19 22 20 22 -42 -22 c-33 -16 -60 -21 -123 -21
l-80 0 0 180 c0 145 3 180 14 180 9 0 12 -8 8 -25 -4 -25 -4 -25 72 -25 74 0
76 1 76 25 0 14 -1 28 -2 31 -2 4 -37 7 -78 8 -105 1 -95 20 13 24 73 2 87 0
87 -13 0 -26 74 -20 94 8 9 12 14 15 11 7 -4 -10 -2 -9 8 2 8 10 18 14 22 10
5 -4 5 -2 1 5 -5 9 -46 11 -167 6 l-160 -6 3 64 3 64 275 5 c151 3 325 6 385
8 l110 2 -110 -62z m610 -205 c-4 -148 -8 -269 -9 -270 0 -1 -50 -3 -111 -4
l-110 -3 4 265 c2 145 5 267 8 272 2 4 54 7 115 7 l111 0 -8 -267z m-1435 253
c0 -2 -48 -31 -107 -64 l-108 -59 -124 -7 -125 -7 -215 -122 -216 -121 -100
-6 c-55 -3 -99 -8 -97 -12 1 -5 2 -17 2 -29 0 -15 5 -19 18 -15 9 2 222 6 472
8 l455 3 110 -60 110 -60 -263 -3 -262 -2 -50 25 c-59 30 -80 32 -80 6 0 -22
-33 -29 -107 -22 -44 3 -60 25 -25 34 9 3 -5 5 -33 5 -27 0 -43 -2 -34 -5 11
-2 15 -11 12 -23 -5 -17 -15 -19 -109 -18 -96 0 -104 1 -104 19 0 17 9 19 78
21 58 2 45 3 -53 8 l-130 5 -3 -25 c-5 -35 -17 -40 -94 -40 -54 0 -79 6 -124
28 l-56 27 48 5 49 6 -49 24 -49 25 48 5 47 5 -54 27 -53 28 55 0 55 1 -54 28
-54 28 78 6 c43 4 100 7 127 7 45 0 48 2 48 25 0 24 -2 25 -75 25 -73 0 -75
-1 -75 -25 0 -30 1 -30 -56 -2 l-47 22 49 5 49 5 -50 27 -50 27 53 1 c49 0 52
-1 52 -25 0 -24 2 -25 75 -25 72 0 75 1 75 24 0 19 -7 25 -35 30 -20 4 -40 4
-45 1 -6 -3 -10 -2 -10 3 0 5 -18 7 -40 5 -32 -4 -40 -2 -40 11 0 13 14 16 89
16 96 0 100 -3 101 -68 l0 -22 194 1 c136 0 201 5 217 14 13 7 62 33 109 58
l85 47 -147 0 -148 0 -2 -47 -2 -48 -3 47 c-4 46 -5 47 -41 51 -20 2 54 4 165
5 145 2 205 5 215 15 8 6 59 36 113 64 l100 53 123 0 c67 0 122 -2 122 -4z
m-1110 -45 c0 -16 3 -43 6 -60 l7 -31 101 -1 c55 -1 89 -4 74 -6 -26 -4 -28
-8 -30 -51 l-2 -47 -3 48 c-3 33 -8 47 -19 47 -7 0 -14 -4 -14 -10 0 -5 -18
-10 -40 -10 -22 0 -40 4 -40 9 0 6 -122 11 -306 13 -268 3 -307 5 -317 19 -7
9 -45 33 -85 53 -59 30 -80 35 -107 30 -19 -3 -43 -2 -52 2 -16 8 193 15 670
22 l157 2 0 -29z m-1036 -33 c3 -24 10 -126 16 -227 5 -102 12 -187 15 -189 3
-3 5 2 5 11 0 10 8 17 20 17 27 0 25 -16 -5 -46 -14 -14 -25 -34 -25 -44 0
-19 -8 -20 -110 -20 -60 0 -110 3 -110 8 0 4 -7 104 -15 222 -8 118 -15 236
-15 263 l0 47 109 0 110 0 5 -42z m1734 -97 c3 -17 0 -22 -10 -18 -8 3 -15 -1
-15 -9 0 -7 4 -11 8 -8 4 2 12 -4 18 -13 8 -14 10 -8 11 30 0 40 3 47 20 47
20 0 26 -13 33 -75 2 -17 5 -7 6 23 1 48 3 52 25 52 19 0 22 -4 19 -24 -3 -13
0 -27 5 -30 7 -4 10 4 9 21 l-2 28 78 3 c71 3 77 1 77 -17 0 -11 -6 -21 -12
-24 -10 -4 -10 -7 0 -18 15 -16 16 -55 2 -64 -6 -3 -19 -3 -30 0 -23 7 -27 45
-6 45 8 0 18 5 21 10 4 6 1 9 -6 8 -7 -2 -18 7 -24 20 -16 36 -25 25 -25 -33
0 -33 -4 -55 -11 -55 -7 0 -10 21 -7 59 2 44 0 57 -9 54 -8 -3 -13 -25 -13
-59 0 -55 -6 -64 -28 -42 -7 7 -12 8 -12 2 0 -6 -18 -11 -40 -11 -33 0 -40 3
-35 16 4 13 2 13 -9 -1 -7 -10 -18 -18 -24 -18 -6 0 -16 8 -22 18 -11 16 -11
16 -6 -1 5 -15 1 -18 -17 -15 -22 3 -40 48 -19 48 6 0 8 -10 6 -22 -4 -21 -4
-21 5 -3 6 14 4 25 -5 36 -15 17 -19 51 -7 63 15 15 48 1 51 -23z m150 -123
c9 -9 12 -9 12 0 0 8 17 11 53 9 l52 -2 3 -62 c2 -39 -1 -63 -8 -63 -5 0 -11
15 -12 33 l-1 32 -4 -31 -4 -31 -70 -1 -69 -1 0 58 c0 32 3 61 7 64 10 11 28
8 41 -5z m-277 -1039 c38 -19 77 -20 65 -1 -3 5 29 8 71 8 49 -1 78 -5 80 -13
3 -8 -12 -11 -49 -11 -29 0 -102 -4 -163 -11 -63 -6 -286 -11 -525 -11 l-415
0 44 25 c44 26 45 26 288 24 134 -1 247 2 250 5 4 3 76 6 160 6 136 0 159 -2
194 -21z m777 -67 c4 -28 26 -24 30 6 3 19 10 22 51 22 83 0 111 -9 111 -36 0
-23 3 -24 78 -25 42 -1 69 -3 60 -6 -10 -2 -18 -12 -18 -21 0 -14 -2 -15 -10
-2 -6 10 -30 15 -81 17 -54 2 -69 -1 -61 -9 18 -18 14 -28 -12 -28 -13 0 -26
7 -30 15 -8 21 -36 19 -37 -2 -1 -17 -2 -17 -6 -1 -4 15 -16 18 -74 17 -52 -1
-69 -5 -69 -15 0 -23 -47 -17 -53 6 -3 12 -14 20 -27 20 -17 0 -21 5 -18 28 3
24 8 28 48 33 84 12 115 7 118 -19z m-516 -9 c3 -27 6 -28 66 -31 34 -2 62 -6
62 -11 0 -4 -25 -6 -56 -5 l-56 2 4 -259 c2 -142 1 -259 -4 -259 -4 0 -8 116
-8 259 0 248 -1 259 -19 264 -15 3 -21 -1 -23 -16 -4 -32 -35 -33 -49 -3 -7
14 -19 25 -28 24 -40 -3 -51 3 -51 26 0 22 5 25 48 29 114 9 110 9 114 -20z
m-190 -8 c5 -25 -3 -30 -44 -27 -11 1 -20 -8 -24 -23 -8 -32 -54 -36 -54 -5 0
11 -7 20 -15 20 -8 0 -15 -5 -15 -11 0 -5 -5 -7 -12 -3 -11 7 -7 -219 9 -423
l6 -83 113 0 114 0 0 -25 c0 -27 -18 -32 -51 -15 -13 7 -19 7 -19 0 0 -5 -9
-10 -20 -10 -13 0 -20 7 -20 20 0 18 -7 20 -65 20 -51 0 -65 3 -65 15 0 12
-14 15 -62 17 l-63 2 58 3 57 4 0 82 c0 45 -3 153 -7 240 l-6 158 -31 -1 c-51
-3 -66 -1 -66 11 0 7 21 10 60 7 60 -3 60 -3 60 25 l0 27 79 0 c76 0 79 -1 83
-25z m-6715 -279 c-12 -10 -14 -15 -6 -18 7 -2 10 -11 7 -20 -7 -17 -120 -32
-126 -17 -2 5 -8 9 -13 9 -6 0 -7 -5 -3 -12 5 -8 -6 -10 -42 -5 -31 4 -42 3
-29 -3 17 -7 15 -9 -12 -9 -26 -1 -33 3 -33 17 0 34 33 53 77 46 28 -4 49 -1
69 10 16 8 52 15 79 15 44 0 48 -1 32 -13z m-431 -223 c-3 -10 -1 -35 3 -55 5
-22 5 -38 0 -38 -5 0 -9 -7 -9 -16 0 -13 -7 -15 -35 -11 -19 3 -35 2 -35 -4 0
-5 -9 -9 -19 -9 -20 0 -22 6 -37 93 -5 32 -4 37 12 37 29 1 98 12 103 16 11
11 22 2 17 -13z m7599 -163 c-2 -4 72 -8 165 -9 110 -1 170 1 175 8 3 6 32 11
63 10 41 0 51 -3 37 -9 -18 -8 -17 -9 8 -9 16 -1 26 3 22 9 -3 6 5 10 19 10
14 0 28 -4 31 -10 4 -6 53 -10 118 -9 72 1 103 4 87 9 l-25 8 28 1 c15 1 27
-4 27 -9 0 -6 19 -8 48 -5 26 3 119 5 207 4 88 -1 178 -1 199 0 22 0 44 -5 48
-12 6 -9 10 -9 19 3 9 12 12 13 16 1 5 -11 7 -11 14 0 8 11 11 11 20 -4 6 -9
15 -15 20 -11 6 3 5 12 -3 22 -13 16 -6 12 100 -51 l34 -20 -13 21 c-7 11 -16
19 -19 17 -3 -2 -12 0 -19 4 -9 6 -10 11 -2 15 6 4 11 3 11 -2 0 -5 16 -8 35
-6 22 1 33 -1 29 -8 -4 -7 0 -7 12 0 13 7 35 7 64 1 25 -6 59 -10 75 -9 17 0
25 -3 18 -7 -6 -5 12 -9 40 -10 28 -1 55 -7 61 -13 5 -5 17 -10 25 -10 9 0 -2
12 -24 26 l-40 26 35 -6 c19 -3 57 -17 84 -31 27 -13 64 -27 83 -31 37 -7 53
-28 34 -47 -8 -8 -21 -5 -52 12 -22 13 -42 21 -45 18 -2 -2 10 -12 28 -21 l33
-17 -40 5 c-22 3 -34 2 -27 0 6 -3 12 -12 12 -19 0 -7 -6 -15 -12 -18 -7 -2 2
-7 20 -11 31 -7 32 -9 15 -23 -10 -8 -13 -12 -7 -9 7 3 15 -1 18 -10 5 -12 2
-15 -10 -10 -8 3 -20 6 -25 6 -6 0 -7 6 -3 13 4 6 -2 4 -14 -7 -14 -12 -29
-16 -45 -12 -34 8 -42 -5 -15 -26 l23 -17 -23 6 c-12 3 -25 9 -28 14 -3 5 -10
9 -17 9 -6 0 -2 -6 8 -14 11 -8 16 -19 12 -30 -7 -17 -27 -22 -27 -6 0 6 -7
10 -15 10 -9 0 -18 6 -21 14 -3 8 -12 12 -20 9 -10 -4 -17 2 -21 16 -5 19 -15
26 -37 22 -4 -1 -14 6 -21 16 -8 10 -18 19 -24 19 -6 1 -18 2 -27 3 -8 0 -12
6 -9 11 3 6 1 10 -4 10 -28 0 -3 -23 97 -88 l107 -71 80 -3 c73 -3 94 -10 95
-30 0 -5 -6 -8 -14 -8 -11 0 -14 -16 -14 -67 0 -38 2 -62 5 -55 2 6 9 12 15
12 6 0 8 -7 5 -14 -4 -9 2 -17 14 -21 13 -5 19 -15 19 -37 0 -22 4 -29 14 -25
8 3 17 1 20 -6 2 -7 5 0 5 15 1 15 6 30 11 33 12 7 3 46 -13 56 -5 4 -1 12 11
18 18 10 21 7 29 -27 5 -20 15 -36 21 -34 7 1 12 -7 12 -17 0 -35 12 -51 36
-51 19 0 24 -5 24 -24 0 -35 20 -43 21 -9 l1 28 7 -30 c7 -33 15 -26 26 23 5
23 3 32 -6 32 -8 0 -5 6 6 13 13 10 15 16 6 21 -9 6 -9 11 0 22 15 19 39 18
39 -2 0 -22 24 -12 28 12 2 10 9 24 14 29 7 7 9 1 6 -17 -4 -22 -1 -28 19 -33
15 -3 21 -10 16 -18 -4 -7 2 -5 12 3 17 14 18 13 12 -2 -7 -19 8 -34 18 -18 8
12 52 13 59 1 3 -5 -21 -20 -54 -34 -57 -25 -60 -28 -60 -61 0 -27 3 -34 15
-30 8 4 15 11 15 17 0 6 6 3 13 -6 10 -15 12 -12 14 20 1 21 7 39 13 41 6 2
17 10 24 18 20 19 26 18 26 -8 0 -29 15 -13 29 34 7 20 19 42 27 48 19 16 18
30 -2 30 -10 0 -14 -6 -11 -14 4 -10 1 -13 -9 -9 -7 3 -14 10 -14 16 0 6 -6 2
-14 -9 -10 -13 -18 -16 -25 -9 -16 16 6 85 27 86 12 0 13 2 3 6 -10 4 -10 7
-1 13 8 5 2 13 -19 26 -27 16 -29 20 -17 30 11 8 13 19 7 40 -6 22 -3 32 12
44 20 17 77 15 77 -1 0 -5 15 -9 33 -9 17 0 39 -5 47 -10 11 -7 2 -10 -33 -10
-44 0 -48 -2 -45 -22 2 -15 -3 -22 -18 -23 -13 -1 -20 5 -21 16 -1 12 3 16 13
12 8 -3 14 1 14 10 0 8 -9 17 -20 20 -13 3 -20 0 -20 -9 0 -8 -4 -14 -10 -14
-5 0 -10 -9 -10 -19 0 -11 -5 -23 -12 -27 -16 -10 27 -25 50 -17 14 5 15 3 5
-7 -10 -11 -9 -17 3 -32 15 -16 15 -18 0 -24 -25 -10 -19 -22 9 -16 23 4 25 1
25 -29 0 -19 4 -29 8 -24 11 17 58 16 72 0 10 -12 9 -16 -4 -21 -9 -3 -23 -4
-31 -1 -17 7 -30 -9 -15 -18 5 -3 10 -17 10 -31 0 -13 5 -24 10 -24 6 0 10 6
10 13 0 8 4 7 11 -3 8 -12 9 -11 4 6 -3 12 0 26 7 31 16 13 66 29 56 18 -4 -4
-1 -14 7 -22 14 -14 19 -38 16 -73 -1 -11 3 -10 14 4 13 17 19 55 18 104 -1 6
10 12 23 12 15 0 24 6 24 15 0 19 78 24 105 7 10 -7 16 -8 35 -11 6 0 10 -11
10 -23 0 -16 -3 -19 -9 -10 -6 10 -11 9 -22 -4 -11 -14 -11 -16 -1 -10 9 5 21
0 33 -13 28 -30 24 -37 -22 -33 -28 3 -37 7 -28 13 12 7 11 9 -1 10 -8 1 -19
1 -23 0 -11 -2 -71 30 -78 42 -9 13 -25 2 -32 -23 -3 -13 0 -20 9 -20 10 0 13
-7 9 -22 -2 -13 2 -36 9 -53 l14 -30 1 43 c1 36 3 41 15 30 8 -7 12 -16 9 -20
-8 -15 25 -8 37 7 17 21 36 19 36 -4 0 -16 -3 -18 -21 -9 -18 10 -19 10 -6 -6
8 -9 10 -20 6 -24 -4 -4 -10 -2 -12 5 -2 7 -12 9 -21 6 -12 -5 -7 -10 18 -18
40 -13 83 -8 73 9 -4 6 1 5 9 -2 9 -7 28 -12 42 -10 25 3 26 4 11 33 l-15 30
21 -25 c21 -24 21 -24 36 -5 15 19 15 19 9 -8 -4 -18 -3 -26 5 -25 6 2 14 -3
16 -9 3 -7 -2 -13 -11 -13 -9 0 -16 -5 -16 -11 0 -5 4 -8 9 -5 5 3 14 -1 21
-9 6 -7 19 -11 28 -8 10 3 13 1 7 -4 -5 -4 -11 -16 -12 -27 -1 -15 4 -17 30
-12 21 4 27 3 18 -3 -18 -12 -8 -37 18 -44 15 -4 22 2 30 24 5 16 14 29 20 29
5 0 3 -12 -5 -27 -16 -33 -18 -53 -4 -53 6 0 10 -6 10 -13 0 -22 33 -36 48
-21 7 8 8 14 3 14 -6 0 -8 7 -5 15 5 13 8 13 21 0 8 -8 11 -20 7 -26 -4 -8 0
-8 15 0 12 7 21 8 21 2 0 -5 -6 -12 -12 -14 -8 -3 -7 -6 4 -6 9 -1 20 4 23 9
4 6 11 8 16 4 5 -3 7 -10 4 -15 -4 -5 6 -9 22 -8 25 0 26 1 8 9 -19 8 -19 9 3
9 24 1 26 -6 13 -42 -9 -22 -18 -25 -113 -36 -57 -6 -111 -12 -120 -12 -14 0
-12 -5 10 -25 23 -22 24 -24 4 -14 -12 6 -37 8 -55 5 -28 -5 -34 -3 -48 22
-14 24 -15 36 -4 86 6 32 8 60 3 63 -5 3 -5 10 -2 16 4 6 9 5 15 -3 4 -7 11
-10 15 -6 4 3 1 13 -6 22 -9 11 -17 12 -32 4 -11 -6 -17 -13 -14 -16 3 -3 -1
-11 -10 -18 -10 -7 -17 -30 -20 -61 -3 -47 -3 -48 12 -24 15 24 15 24 10 -19
-2 -24 -10 -47 -17 -52 -16 -10 -41 9 -32 24 3 6 1 7 -5 3 -9 -5 -9 -13 -2
-27 10 -18 7 -19 -67 -19 l-78 0 93 -61 c69 -46 96 -59 105 -50 6 6 15 11 21
11 5 0 2 -6 -8 -13 -16 -12 -11 -17 53 -60 39 -26 75 -47 80 -47 5 0 11 -4 13
-8 2 -7 164 -115 220 -147 9 -5 116 -75 237 -155 122 -80 380 -249 573 -377
421 -276 656 -430 838 -548 209 -136 440 -287 440 -289 0 0 -1300 -2 -2889 -4
l-2888 -3 -7 71 c-4 40 -6 73 -4 75 2 1 1163 4 2580 6 1417 2 2574 7 2570 11
-8 7 -362 256 -622 436 -91 64 -177 124 -192 135 -27 20 -38 20 -970 14 -519
-4 -1310 -7 -1758 -7 -448 0 -866 -3 -927 -7 l-113 -6 0 -56 1 -56 87 -62 c48
-34 149 -107 226 -162 l138 -101 -209 0 -209 1 -91 92 c-50 50 -95 101 -100
111 -9 17 -17 10 -61 -55 -28 -41 -63 -91 -77 -112 l-26 -37 -125 0 c-104 0
-124 2 -124 15 0 8 -8 15 -17 15 -15 0 -16 -2 -3 -10 11 -7 7 -10 -17 -10 -18
0 -33 5 -33 10 0 6 -7 10 -15 10 -11 0 -14 -7 -10 -23 6 -21 4 -23 -30 -19
l-37 4 46 47 c45 45 46 49 46 108 0 33 -3 75 -6 92 l-6 31 -172 -2 c-94 -1
-154 -3 -133 -5 l38 -4 -7 -127 c-4 -70 -7 -128 -8 -128 -3 -3 -726 -15 -726
-12 0 1 6 23 14 48 l13 45 169 5 c150 4 169 7 172 22 3 17 -9 18 -148 18 -139
0 -151 1 -147 18 3 9 8 29 11 45 l6 27 150 0 c143 0 150 1 150 20 0 19 -7 20
-160 20 -88 0 -160 3 -160 8 0 4 4 23 10 42 l10 35 155 0 155 0 0 48 0 48
-1826 -7 -1827 -7 -221 -166 c-122 -91 -291 -218 -376 -281 -85 -63 -161 -121
-170 -127 -12 -10 223 -11 1128 -6 l1142 6 1 -39 c1 -21 5 -52 9 -69 l8 -30 2
35 c2 19 2 50 1 67 l-3 33 579 0 c318 0 930 3 1361 7 l782 6 0 -76 0 -77 -382
-1 c-211 -1 -615 -2 -898 -3 l-514 -1 -9 43 c-11 58 -31 56 -23 -3 l7 -45
-863 0 c-475 -1 -1329 -3 -1898 -6 -595 -3 -1030 -1 -1025 4 6 5 107 76 225
157 219 151 244 169 455 315 66 46 249 173 408 283 158 109 287 203 287 208 0
5 6 9 13 9 15 0 271 177 275 190 2 6 8 10 14 10 8 0 206 132 243 162 6 5 58
42 117 82 59 40 105 76 101 79 -3 4 2 7 12 7 10 0 26 6 34 14 9 7 75 53 146
101 72 48 134 91 139 96 4 4 -19 7 -52 7 -59 0 -60 -1 -66 -30 -4 -22 -10 -29
-21 -24 -8 3 -15 1 -15 -4 0 -21 -19 -9 -28 18 -6 16 -11 20 -11 10 -1 -11 -6
-15 -16 -12 -12 5 -13 10 -4 20 14 17 -24 28 -80 22 -31 -3 -37 -1 -29 9 6 7
19 13 29 13 20 0 26 15 9 25 -5 3 -6 13 -3 21 13 35 8 60 -17 76 -16 12 -20
18 -10 18 13 0 13 1 0 10 -8 5 -19 10 -24 10 -10 0 -2 -93 10 -124 6 -16 3
-18 -39 -15 -31 3 -47 0 -47 -7 0 -7 -9 -14 -20 -17 -11 -3 -20 -1 -20 5 0 6
-12 8 -27 5 -33 -6 -53 1 -53 19 0 8 -7 14 -15 14 -9 0 -15 -9 -15 -24 0 -14
-5 -28 -11 -32 -8 -5 -10 2 -6 22 3 16 1 37 -4 46 -6 11 -6 18 -1 18 18 0 22
44 5 62 -15 17 -13 18 41 18 51 0 57 -2 66 -25 5 -14 14 -25 20 -25 13 0 13
17 0 25 -10 6 -8 40 3 51 4 4 0 15 -8 24 -14 15 -11 19 35 44 27 15 50 29 50
32 0 3 -8 0 -19 -5 -18 -10 -31 -6 -31 10 0 4 9 11 21 14 16 5 18 10 10 18 -8
8 -14 8 -19 2 -4 -6 -20 -11 -35 -12 l-28 -2 22 18 c32 26 16 41 -39 37 -51
-4 -63 -24 -25 -41 15 -6 21 -17 21 -37 -1 -26 -4 -28 -40 -28 -42 0 -92 -21
-121 -51 -10 -11 -23 -19 -30 -19 -7 0 -6 4 3 10 12 8 9 10 -12 10 -15 0 -30
-4 -33 -10 -3 -5 -17 -10 -30 -10 -12 0 -25 -6 -28 -13 -3 -8 1 -14 9 -14 8 0
14 4 14 9 0 4 8 8 19 8 15 0 13 -6 -15 -35 -37 -39 -49 -43 -63 -17 -6 9 -11
13 -11 8 0 -5 -6 -3 -14 3 -11 9 -20 10 -35 1 -42 -22 -3 -65 46 -51 27 8 30
6 40 -26 9 -29 7 -38 -11 -61 -28 -37 -47 -51 -76 -58 -14 -3 -34 -9 -45 -14
-11 -5 -33 -11 -48 -15 -22 -4 -26 -9 -18 -18 10 -13 -61 -57 -289 -178 -175
-92 -284 -151 -295 -159 -5 -4 -39 -23 -75 -42 -36 -19 -114 -64 -175 -100
-60 -35 -191 -109 -290 -163 -161 -88 -293 -161 -350 -193 -66 -36 -149 -72
-169 -72 -36 0 -61 -11 -46 -20 8 -5 1 -10 -19 -15 -21 -4 -31 -12 -27 -20 3
-8 -5 -16 -18 -19 -13 -3 -65 -30 -116 -61 -51 -30 -97 -52 -101 -49 -5 3 -20
-3 -34 -12 -14 -9 -32 -13 -41 -10 -8 3 -28 -1 -44 -9 -52 -27 -46 -16 8 15
29 17 57 28 63 25 5 -4 8 -2 7 4 -2 7 35 32 81 57 47 24 99 56 117 69 18 14
40 25 50 25 9 0 33 17 52 37 43 46 132 104 145 96 6 -3 7 -1 3 5 -3 6 7 20 24
32 16 12 30 18 30 14 0 -3 6 -2 13 4 6 6 15 10 19 9 9 -2 44 27 49 41 7 17
200 142 220 142 10 0 24 9 31 20 7 11 19 20 26 20 7 0 11 4 8 9 -3 4 18 23 47
41 29 18 61 39 72 46 130 89 187 124 195 119 6 -3 21 6 34 20 14 15 30 24 36
20 6 -3 9 -1 8 6 -2 7 13 19 32 25 19 7 27 13 18 13 -22 1 -23 17 -2 25 24 9
46 7 39 -4 -11 -17 11 -11 49 15 20 14 45 25 54 25 15 0 15 2 2 10 -12 8 -11
10 8 10 12 0 22 4 22 9 0 5 11 11 25 13 19 4 25 1 25 -13 0 -12 10 -21 25 -25
34 -8 36 -6 25 41 -5 22 -6 43 -2 46 4 3 36 16 72 29 36 13 71 28 78 33 8 6
12 6 12 -2 0 -19 45 -12 70 11 18 17 22 18 17 5 -5 -15 0 -17 42 -17 27 0 57
-3 67 -7 12 -4 15 -3 10 5 -4 8 -2 10 8 6 12 -5 45 10 118 52 18 11 19 13 3
21 -9 6 -16 14 -16 19 1 9 -77 6 -93 -3 -5 -3 -6 5 -3 19 5 17 1 28 -13 38
-23 16 -26 28 -7 26 22 -2 111 34 137 55 16 14 19 19 8 15 -10 -3 -18 -1 -18
3 0 11 25 21 55 21 12 0 36 7 51 15 29 15 29 15 5 15 -24 0 -24 1 -6 14 11 8
24 12 29 9 5 -4 6 -1 3 5 -4 5 -17 8 -30 5 -17 -4 -14 0 11 16 18 12 34 21 37
21 2 0 66 30 142 67 76 37 146 66 156 65 9 0 17 3 17 8 0 10 40 33 86 50 17 7
23 7 19 -1 -4 -5 1 -19 12 -31 10 -11 17 -23 15 -27 -1 -3 6 -6 17 -7 11 -1
26 -4 35 -7 9 -4 27 -1 41 5 31 14 43 4 24 -19 -13 -16 -12 -17 4 -4 9 7 16
20 15 29 -2 8 2 17 9 19 8 3 11 -3 8 -16 -3 -18 -1 -19 15 -9 11 7 23 9 27 4
9 -8 -35 -45 -54 -46 -15 0 -18 -20 -4 -20 6 0 13 5 16 10 3 6 14 10 24 10 27
0 53 24 55 51 1 19 7 24 31 26 16 1 25 -1 20 -5 -6 -4 -11 -15 -13 -25 -3 -15
1 -17 17 -12 15 5 21 2 21 -10 0 -12 9 -15 46 -11 26 2 51 10 55 18 8 12 13 4
10 -14 -2 -15 27 -8 33 7 3 8 0 15 -5 15 -7 0 -9 11 -6 26 3 19 1 24 -10 20
-8 -3 -37 -6 -64 -6 -31 0 -48 -4 -46 -11 1 -6 -3 -13 -8 -15 -6 -2 -11 5 -11
16 0 13 7 20 19 20 10 0 27 5 38 10 14 8 19 7 19 -2 0 -10 2 -10 9 1 5 7 14
10 20 7 6 -4 11 -2 11 5 0 6 -8 9 -20 6 -11 -3 -23 -1 -26 4 -8 14 -24 10 -24
-6 0 -20 -26 -19 -34 2 -8 20 12 35 41 30 12 -2 20 -1 18 3 -3 4 4 10 15 13
13 3 26 -3 39 -19 11 -14 22 -20 25 -15 4 6 -2 15 -13 21 -29 15 -16 43 16 35
15 -3 22 -2 19 4 -4 5 3 13 15 16 19 6 20 7 2 21 -13 10 -14 13 -4 14 8 0 12
3 9 6 -10 10 -66 -25 -73 -45 -6 -21 -42 -38 -53 -26 -4 4 1 11 10 16 21 12
12 49 -13 49 -10 0 -21 -4 -24 -10 -3 -5 1 -10 9 -10 9 0 16 -4 16 -9 0 -15
-32 -22 -46 -10 -11 9 -9 15 11 35 13 13 36 29 51 34 22 9 27 7 31 -10 5 -20
6 -20 24 1 11 12 19 17 19 10 0 -8 5 -9 19 -1 25 13 44 13 36 0 -3 -5 0 -10 7
-10 10 0 10 -2 -1 -9 -10 -7 -11 -13 -2 -27 6 -11 11 -13 11 -6 0 6 7 12 15
12 8 0 15 5 15 12 0 6 3 8 6 5 4 -4 1 -13 -6 -22 -16 -20 -1 -19 28 1 14 10
22 11 20 3 -2 -6 3 -14 10 -16 7 -3 12 4 12 16 0 12 -6 21 -12 21 -9 0 -8 4 2
10 12 8 11 10 -7 10 -13 0 -23 5 -23 11 0 6 7 9 15 5 9 -3 15 0 15 9 0 8 9 15
21 15 13 0 18 -4 13 -12 -4 -6 3 -4 16 5 22 15 24 15 35 0 7 -9 23 -18 36 -20
19 -2 21 -1 9 7 -13 8 -13 10 2 10 9 0 28 -15 43 -32 14 -18 33 -42 42 -52 15
-18 16 -18 26 -1 7 13 6 21 -4 29 -17 13 -24 56 -10 56 20 0 11 29 -11 36
l-22 7 23 18 c13 11 21 25 18 33 -8 20 -49 15 -55 -6 -2 -11 -14 -18 -27 -18
-13 0 -31 -7 -39 -16 -19 -18 -19 -21 -4 -30 7 -5 8 -2 3 7 -6 11 -5 11 5 2 7
-6 9 -16 5 -23 -5 -8 -12 -6 -26 6 -10 9 -25 14 -34 11 -9 -4 -15 -1 -15 7 0
10 -9 13 -32 9 -18 -3 -34 -9 -36 -14 -2 -5 -18 -9 -35 -9 l-32 1 24 19 c13
11 32 20 42 20 10 0 24 9 31 19 6 10 17 17 23 15 7 -3 59 13 116 34 57 22 112
42 122 46 11 3 15 11 11 18 -5 10 -4 10 6 1 9 -8 20 -9 39 -2 14 6 51 15 81
20 84 15 95 20 79 30 -10 6 -8 9 9 9 12 0 31 9 42 20 l20 20 0 -20 c0 -11 6
-20 14 -20 8 0 18 -5 22 -12 5 -8 2 -9 -10 -5 -9 4 -14 3 -11 -2 7 -13 -7 -20
-57 -30 l-43 -9 36 -1 c40 -1 49 -13 49 -61 0 -16 5 -32 11 -36 8 -5 7 -9 -2
-15 -18 -10 -80 3 -80 16 1 14 -22 12 -26 -2 -3 -7 2 -13 11 -13 9 0 16 -6 16
-14 0 -24 28 -38 85 -43 46 -4 55 -2 55 11 0 18 -15 21 -25 6 -3 -5 -12 -10
-18 -10 -7 0 -1 9 13 20 27 21 41 25 38 11 -2 -5 6 -17 17 -25 16 -13 17 -15
3 -10 -10 3 -18 1 -18 -5 0 -14 27 -15 35 -1 3 6 15 10 26 10 18 0 95 48 159
99 24 20 24 20 3 14 -13 -3 -23 -1 -23 5 0 5 -11 9 -25 8 -33 -1 -33 -16 0
-16 14 0 25 -4 25 -9 0 -5 -8 -7 -18 -4 -10 2 -25 -3 -33 -13 -9 -11 -9 -15
-1 -10 6 4 12 2 12 -3 0 -13 -41 -10 -56 4 -7 6 -10 13 -8 17 2 4 -1 10 -7 14
-7 4 -9 3 -6 -3 7 -10 -28 -39 -53 -45 -14 -3 -23 49 -10 57 4 3 7 -3 6 -12 0
-10 7 -19 17 -21 12 -2 17 3 17 18 0 12 -4 18 -10 15 -5 -3 -10 -2 -10 3 0 16
31 23 45 12 9 -8 15 -8 20 0 4 6 3 9 -2 8 -4 -2 -9 0 -10 5 -2 4 -1 6 0 5 2
-2 12 3 21 11 13 11 16 11 14 1 -2 -7 4 -15 12 -17 12 -4 12 -3 2 5 -11 7 -11
10 2 15 10 4 16 1 16 -8 0 -8 7 -15 16 -15 13 0 14 3 5 13 -6 8 -8 17 -5 20 4
3 -6 4 -21 1 -21 -4 -28 0 -32 16 -5 19 -6 19 -18 4 -7 -10 -19 -15 -28 -11
-10 4 -22 -1 -29 -11 -7 -10 -25 -25 -41 -35 -23 -15 -26 -21 -17 -37 9 -16 8
-20 -6 -20 -10 0 -14 6 -11 14 6 15 -11 36 -27 36 -6 0 -4 -5 4 -10 13 -8 12
-10 -2 -10 -20 0 -24 15 -7 25 6 5 4 12 -8 21 -16 13 -16 14 -1 12 9 -2 16 1
15 5 -2 7 18 18 86 45 15 7 27 18 27 26 0 10 19 16 68 22 80 9 186 9 201 0 5
-4 12 -2 15 3 3 5 21 9 38 10 29 0 63 5 78 11 3 1 8 2 13 1 4 0 7 7 7 16 1 16
2 16 15 -1 8 -11 15 -15 15 -9 0 23 -26 33 -59 22 -17 -6 -31 -14 -31 -19 0
-12 -36 -19 -51 -9 -10 6 -8 9 9 9 12 0 25 7 28 15 4 8 10 12 15 9 5 -3 9 0 9
6 0 6 22 10 53 10 497 -3 708 0 702 11 -6 9 1 10 26 6 67 -13 301 -7 333 8 14
6 17 5 12 -3 -5 -9 83 -12 353 -11 233 0 361 3 361 10 0 5 22 8 50 7 27 -2 50
-7 50 -11 0 -5 5 -5 12 -1 7 4 56 7 110 6 54 -1 98 2 98 7 0 4 13 8 30 8 16 0
27 -3 25 -7z m3110 -71 c128 -32 115 -45 -85 -83 -163 -31 -188 -32 -271 -5
-71 24 -90 36 -68 44 15 5 306 63 327 64 7 1 51 -9 97 -20z m-6752 -54 c32 -8
71 -15 87 -15 17 0 30 -3 30 -7 0 -6 -131 -54 -160 -59 -6 -1 -33 -11 -67 -25
-24 -9 -122 5 -132 19 -4 4 -19 7 -36 6 -16 -1 -39 1 -50 4 -18 4 -18 6 5 14
14 5 48 14 75 20 28 6 69 19 93 30 25 11 52 16 64 12 14 -4 18 -2 14 5 -10 15
9 14 77 -4z m5687 -15 c23 0 28 -3 23 -17 -4 -11 -3 -14 5 -9 7 4 12 2 12 -5
0 -7 4 -8 13 -2 18 14 37 10 95 -20 29 -15 70 -28 92 -30 22 -1 40 -5 40 -9 0
-5 10 -8 21 -8 19 0 20 -2 8 -16 -11 -14 -10 -18 6 -30 18 -14 18 -14 -3 -14
-13 0 -22 -6 -22 -16 0 -8 3 -13 8 -11 4 3 16 1 27 -4 19 -7 19 -8 -2 -8 -15
-1 -27 -12 -39 -36 -13 -27 -21 -34 -35 -30 -12 4 -19 2 -19 -6 0 -7 -3 -9 -7
-6 -8 9 -44 -23 -38 -33 3 -4 -2 -11 -11 -14 -8 -3 -12 -2 -9 4 3 6 0 10 -7
10 -7 0 -24 14 -36 30 -20 24 -27 28 -43 19 -21 -11 -26 0 -7 19 8 8 9 12 1
12 -6 0 -19 3 -28 7 -14 5 -16 2 -10 -15 7 -24 -4 -29 -24 -9 -8 7 -11 7 -8 1
8 -14 -39 -48 -48 -35 -3 5 0 11 7 13 6 2 8 9 4 16 -5 8 -12 6 -26 -6 -24 -20
-26 -32 -5 -32 21 0 19 -24 -5 -45 -20 -18 -20 -18 -14 13 5 27 3 32 -12 33
-12 0 -14 3 -6 6 10 4 10 8 1 19 -13 16 -4 64 12 64 6 0 9 -9 6 -20 -6 -24 10
-26 35 -3 15 13 23 14 43 5 15 -7 27 -8 30 -2 4 6 16 11 28 11 17 1 18 2 5 6
-10 2 -18 9 -18 14 0 13 6 12 48 -10 20 -10 70 -22 110 -26 68 -7 72 -6 72 14
0 14 -13 26 -46 40 -42 19 -45 23 -42 52 2 21 -2 34 -11 37 -11 4 -13 -2 -8
-27 4 -18 2 -31 -3 -31 -6 0 -9 5 -7 12 1 6 -11 14 -28 18 -16 4 -45 14 -62
24 -33 16 -33 16 -34 -6 -1 -17 -2 -19 -6 -5 -5 20 -8 21 -36 5 -12 -6 -32
-12 -44 -14 -19 -2 -21 1 -16 34 3 21 12 41 20 45 7 4 14 20 14 35 1 17 3 20
6 10 3 -12 14 -18 33 -18z m-6235 -59 c3 -5 22 -8 43 -6 20 3 29 2 20 -1 -10
-3 -18 -9 -18 -13 0 -4 88 -25 195 -46 107 -21 195 -41 195 -45 0 -15 -99 -40
-146 -38 -29 2 -50 5 -49 8 2 3 -40 7 -93 8 -53 2 -124 7 -157 12 -96 15 -186
19 -235 11 -25 -5 -67 -6 -93 -2 l-48 6 153 48 c84 26 162 52 173 57 27 12 53
12 60 1z m-807 -57 c81 -14 197 -34 257 -45 61 -10 115 -19 120 -20 6 0 -32
-16 -84 -35 -51 -19 -101 -32 -110 -29 -29 9 -265 9 -301 0 -40 -10 -93 -7
-100 5 -7 11 -129 33 -147 26 -8 -3 -11 -1 -8 4 3 6 -4 10 -17 10 -18 0 -20 2
-8 10 8 5 11 10 6 10 -6 0 -6 4 0 10 18 18 149 21 226 4 40 -8 99 -16 131 -18
33 -1 62 -8 66 -15 4 -7 32 -14 62 -17 30 -2 68 -6 84 -8 17 -2 36 1 44 8 12
9 13 8 7 -4 -6 -12 -4 -11 6 1 7 9 18 14 25 12 6 -2 14 0 16 4 3 5 -6 9 -21 8
-15 0 -29 2 -32 5 -3 4 -59 19 -125 34 -66 14 -136 31 -155 36 -19 5 -53 13
-75 19 -77 18 -13 11 133 -15z m9464 6 c79 -22 94 -30 56 -30 -14 0 -31 -7
-38 -15 -9 -11 -31 -15 -79 -14 -100 1 -143 9 -137 24 3 8 -4 17 -17 21 -21 7
-20 8 8 16 17 4 42 4 58 -2 20 -6 26 -6 21 2 -5 7 3 9 24 6 17 -2 29 -1 26 4
-7 11 -3 11 78 -12z m-388 -166 c9 -3 16 -14 17 -23 0 -12 2 -12 9 4 8 19 8
19 18 -5 8 -17 11 -20 11 -8 1 15 5 16 27 8 31 -12 37 -12 30 -1 -3 4 6 13 20
20 18 8 23 8 18 0 -3 -6 0 -15 7 -20 10 -6 11 -9 2 -9 -7 0 -13 -7 -13 -15 0
-12 8 -11 46 5 49 21 104 26 104 10 0 -5 -7 -10 -16 -10 -9 0 -12 -5 -8 -12 6
-10 5 -10 -7 -1 -10 8 -19 9 -29 1 -12 -8 -12 -9 3 -4 11 4 16 2 11 -5 -3 -6
-14 -9 -23 -6 -10 2 -26 -2 -36 -9 -10 -8 -34 -14 -52 -14 -18 0 -33 -4 -33
-9 0 -5 -11 -11 -25 -13 -16 -4 -22 -1 -18 6 5 7 2 7 -8 -1 -8 -6 -18 -11 -22
-11 -16 0 -67 -25 -67 -33 0 -5 -9 -9 -19 -9 -11 0 -23 -4 -26 -10 -3 -5 -14
-10 -23 -10 -10 0 -23 -9 -29 -19 -10 -16 -9 -20 5 -26 9 -3 18 -1 20 5 3 7 9
7 20 -2 9 -7 13 -8 9 -2 -4 7 3 14 18 17 14 2 23 2 20 -1 -2 -3 1 -12 8 -20
10 -13 8 -14 -12 -7 -16 5 -21 4 -17 -4 4 -6 0 -11 -8 -11 -9 0 -16 -4 -16 -9
0 -19 -28 -18 -73 1 -49 21 -60 45 -32 68 8 7 12 16 9 21 -2 5 39 31 93 58 54
28 92 50 84 50 -8 1 -12 3 -9 6 3 3 13 2 23 -1 14 -6 -8 -21 -86 -60 -57 -29
-98 -53 -91 -53 15 -1 179 81 207 103 14 11 15 14 4 10 -9 -3 -23 2 -32 10 -9
9 -20 16 -26 16 -6 0 -11 9 -11 20 0 22 1 23 24 14z m-9004 -82 c8 1 29 0 46
0 37 -2 54 -30 30 -48 -13 -9 -2 -18 62 -50 101 -50 132 -64 132 -59 0 3 -44
28 -97 55 -54 28 -89 48 -78 44 11 -4 28 -7 37 -8 9 0 15 -3 13 -6 -2 -4 27
-22 65 -40 40 -19 71 -41 73 -52 4 -12 11 -16 24 -12 13 4 14 3 5 -3 -9 -7
-10 -17 -3 -36 8 -21 7 -25 -4 -21 -8 3 -22 1 -31 -4 -11 -6 -30 -6 -50 0 -21
5 -40 5 -51 -1 -13 -6 -24 -5 -38 5 -17 13 -17 14 -1 14 10 0 20 9 23 20 6 23
33 27 33 5 0 -10 10 -15 31 -15 27 0 30 2 19 15 -7 9 -29 23 -49 32 -20 10
-42 24 -49 33 -8 8 -11 10 -7 3 3 -8 -9 -16 -35 -24 -35 -11 -46 -10 -68 3
-43 25 -205 50 -321 49 -124 -1 -141 -2 -141 -10 0 -3 -17 -7 -37 -8 -21 0
-54 -4 -73 -7 -32 -6 -33 -5 -10 5 69 31 276 99 288 94 8 -3 10 0 6 7 -11 17
148 3 185 -17 38 -19 40 -19 34 5 -3 12 0 20 8 20 8 0 5 6 -7 16 -19 15 -19
15 1 5 12 -5 27 -9 35 -9z m8644 -146 c-1 -11 6 -16 22 -16 13 0 24 -6 25 -12
0 -10 2 -10 6 0 2 6 11 12 19 12 8 0 11 -6 8 -15 -4 -8 -1 -15 5 -15 6 0 11 7
11 15 0 8 5 15 10 15 6 0 10 -12 10 -26 0 -16 5 -24 13 -21 6 2 11 11 9 21 -2
9 2 16 9 16 7 0 9 -9 5 -24 -3 -14 -2 -28 4 -31 6 -4 10 5 10 20 0 41 33 29
41 -15 6 -31 7 -32 8 -7 1 29 2 30 25 21 10 -4 17 -20 17 -43 1 -27 3 -30 6
-11 7 37 24 52 52 47 23 -5 24 -4 8 8 -23 17 -22 29 3 22 11 -3 23 -1 26 4 3
5 17 9 32 9 l27 0 -30 -25 -30 -24 30 -1 c39 0 57 -13 49 -33 -3 -10 -1 -17 5
-17 6 0 11 9 11 19 0 15 7 19 28 19 25 -1 29 -5 28 -29 -1 -25 -5 -29 -28 -29
-16 0 -37 9 -47 19 -20 20 -61 45 -65 39 -40 -60 -43 -88 -12 -88 21 0 29 16
18 37 -15 28 -4 45 20 32 17 -9 19 -17 13 -55 -4 -28 -2 -44 4 -44 6 0 12 12
12 28 1 16 3 20 6 10 2 -10 9 -18 14 -18 6 0 7 -9 4 -20 -7 -21 10 -28 18 -7
3 7 6 4 6 -6 1 -10 6 -15 12 -12 6 4 17 -1 24 -11 14 -18 14 -18 15 6 1 14 4
20 6 13 3 -7 12 -9 20 -6 11 4 14 -2 12 -24 l-2 -30 -71 32 c-38 18 -133 64
-210 102 -77 39 -178 85 -225 104 -47 18 -87 35 -89 36 -2 1 2 10 9 18 16 19
36 14 34 -9z m-8712 -68 c2 -6 18 -11 36 -11 24 0 32 -5 32 -18 0 -34 12 -49
39 -49 33 0 58 15 42 24 -17 11 -13 26 8 26 28 0 23 -56 -6 -71 -13 -7 -23
-18 -23 -26 0 -18 -10 -16 -26 4 -7 10 -16 14 -21 10 -4 -5 0 -14 9 -21 10 -7
15 -16 11 -20 -4 -4 0 -4 10 0 13 4 17 1 17 -14 0 -12 5 -24 10 -27 7 -4 8 7
4 32 -4 30 -2 42 11 53 14 12 18 12 26 -1 5 -8 9 -25 10 -39 1 -19 3 -17 8 10
l6 35 12 -32 12 -33 -95 -48 c-88 -46 -94 -48 -94 -27 0 21 17 45 32 45 4 0 8
-7 8 -15 0 -8 4 -15 10 -15 8 0 7 58 -2 65 -2 1 -12 -1 -23 -6 l-20 -8 20 0
c17 -1 17 -3 5 -11 -22 -14 -26 -12 -27 10 -1 11 2 20 7 20 5 0 7 7 4 15 -8
20 -13 19 -86 -14 -34 -16 -66 -27 -70 -25 -5 3 -8 0 -8 -6 0 -6 -7 -4 -16 5
-9 9 -22 14 -28 12 -7 -3 -20 1 -30 8 -14 11 -22 11 -43 0 -14 -8 -47 -12 -72
-10 -37 2 -39 2 -11 -4 l35 -6 -34 -17 c-20 -11 -49 -16 -70 -14 -20 2 -26 1
-13 -1 46 -9 17 -33 -41 -33 -24 0 -28 -3 -17 -10 13 -8 12 -10 -3 -10 -10 0
-26 -7 -34 -16 -16 -16 -26 -16 -146 2 -20 3 -35 9 -32 13 2 4 34 4 71 -1 45
-6 70 -6 77 1 8 8 -1 11 -29 11 -21 0 -46 5 -54 11 -11 8 -1 9 40 5 52 -5 53
-4 25 8 l-30 14 25 10 c30 11 60 4 38 -9 -9 -6 -7 -9 10 -9 12 0 22 4 22 9 0
5 8 12 18 14 9 3 2 5 -16 6 -18 0 -31 5 -28 10 3 5 23 8 44 6 20 -1 29 -1 20
2 -10 2 -18 9 -18 14 0 6 9 7 21 4 14 -5 19 -3 15 3 -3 6 0 12 6 15 7 2 -1 4
-19 3 -17 -1 -31 -5 -30 -11 3 -17 -64 -17 -110 0 -24 10 -46 15 -49 12 -3 -3
12 -10 33 -17 21 -7 42 -17 48 -22 18 -16 -18 -29 -65 -24 -34 4 -41 3 -27 -5
26 -15 11 -29 -33 -29 -30 0 -38 -3 -34 -14 12 -31 -120 -38 -213 -11 -29 9
-63 15 -76 14 -41 -4 -67 1 -67 11 0 7 14 8 38 4 32 -6 35 -5 25 8 -20 23 4
38 63 38 57 0 117 -17 108 -31 -3 -5 -26 -9 -52 -10 -42 0 -44 -1 -22 -10 14
-6 53 -13 88 -16 53 -5 62 -4 62 11 0 9 -6 16 -13 16 -7 0 -23 7 -36 16 -29
21 -13 34 41 34 29 0 36 3 32 15 -4 9 3 16 20 21 14 3 23 10 20 15 -8 14 68
11 121 -6 60 -18 70 -13 16 8 -64 26 -62 40 5 31 33 -4 74 -8 93 -8 18 -1 38
-8 45 -16 12 -16 16 -18 89 -33 33 -7 51 -7 58 0 8 8 7 13 -2 18 -8 5 -10 4
-5 -3 5 -8 2 -10 -9 -6 -9 4 -14 8 -12 11 7 6 50 15 77 15 14 0 19 2 13 5 -24
9 -13 18 22 19 19 0 35 -3 35 -8 0 -5 8 -8 18 -7 9 2 34 0 55 -5 53 -10 96 0
92 22 -14 69 -14 70 -52 77 -27 5 -33 9 -22 16 19 12 37 11 41 -3z m9941 -13
c35 -15 19 -35 -28 -35 -25 0 -45 5 -45 10 0 14 -149 13 -188 -1 -36 -12 -34
-29 4 -29 13 0 24 -4 24 -10 0 -15 -113 -12 -134 3 -16 12 -16 14 2 30 32 29
136 47 247 43 55 -2 108 -7 118 -11z m156 -66 c93 -33 -49 -82 -234 -82 -99 1
-155 12 -155 33 0 14 63 40 120 50 70 12 233 11 269 -1z m136 -56 c14 -5 11
-9 -16 -24 l-34 -18 93 -1 c51 0 91 -4 88 -9 -3 -4 -56 -11 -118 -14 -85 -4
-124 -10 -158 -26 -45 -21 -110 -28 -110 -13 0 5 10 14 23 20 18 9 11 11 -45
11 -36 1 -74 4 -83 7 -35 14 11 24 113 24 76 0 111 4 135 17 18 9 46 20 62 24
17 4 31 7 32 8 1 1 9 -2 18 -6z m-1596 -62 c9 -6 12 -21 9 -44 -3 -30 0 -37
18 -41 13 -4 25 -15 29 -25 6 -20 35 -37 35 -21 0 6 9 6 24 0 22 -8 25 -6 31
22 5 21 3 33 -6 39 -9 6 -10 9 -2 9 6 0 13 16 15 35 3 34 3 35 30 21 14 -8 42
-19 62 -26 20 -6 36 -16 36 -21 0 -5 36 -27 80 -49 45 -22 78 -45 75 -50 -3
-5 0 -7 8 -4 8 3 37 -9 64 -25 28 -17 56 -31 62 -31 23 0 72 -31 65 -41 -3 -6
-19 -7 -35 -4 -24 5 -29 3 -29 -12 0 -14 2 -15 9 -4 7 11 10 9 16 -8 7 -22 19
-26 93 -35 54 -5 61 -12 36 -31 -18 -13 -18 -14 -1 -15 10 0 27 5 37 10 13 7
21 7 25 0 3 -5 17 -10 30 -10 28 0 74 -19 94 -38 7 -7 26 -16 42 -19 16 -3 27
-9 24 -13 -3 -5 7 -13 23 -19 32 -13 64 -32 73 -45 4 -5 12 -5 18 -2 6 4 11 3
11 -2 0 -14 77 -62 100 -62 12 0 19 -4 15 -9 -3 -5 -1 -12 5 -16 5 -3 10 -1
10 5 0 6 5 8 10 5 6 -4 8 -10 5 -14 -2 -5 20 -25 50 -45 30 -20 55 -39 55 -42
0 -3 -4 -2 -10 1 -5 3 -10 4 -10 1 0 -7 62 -41 75 -41 13 -1 124 -63 147 -82
10 -9 26 -12 40 -8 20 5 20 4 6 -5 -10 -6 -18 -18 -18 -27 0 -13 3 -14 12 -5
16 16 31 15 22 0 -4 -7 -4 -10 1 -6 9 9 28 -1 113 -55 53 -34 61 -42 45 -48
-12 -5 -4 -8 24 -8 23 -1 43 -4 45 -9 10 -23 182 -124 483 -283 63 -34 85 -50
74 -54 -10 -4 -46 9 -88 29 -39 20 -75 36 -82 36 -26 0 -239 100 -239 112 0 4
-5 8 -10 8 -22 0 -283 135 -294 152 -6 10 -21 18 -33 18 -12 0 -122 51 -245
114 -123 62 -380 193 -573 291 -192 98 -375 192 -405 208 -92 50 -340 177
-345 177 -2 0 0 -12 5 -26 6 -14 10 -45 10 -69 0 -24 5 -47 10 -50 6 -3 10
-11 10 -16 0 -10 -182 -11 -207 -2 -20 8 -3 24 18 18 17 -6 17 -3 7 26 -9 25
-8 34 0 37 17 5 15 32 -3 32 -17 0 -18 2 -9 24 3 9 11 13 16 10 6 -4 7 0 1 12
-5 11 -9 26 -8 34 0 8 -7 20 -17 25 -26 16 -16 29 22 28 l35 0 -33 4 c-18 2
-30 8 -27 14 4 5 -3 9 -15 9 -19 0 -20 1 -6 16 9 8 16 19 16 24 0 5 13 5 30 0
16 -5 32 -5 35 0 3 5 -3 11 -12 13 -15 4 -15 5 2 6 11 0 26 -3 34 -8z m-9779
-232 c0 -5 27 -9 61 -9 37 0 58 -4 54 -10 -3 -5 -21 -10 -38 -10 -24 0 -28 -3
-17 -10 11 -7 3 -10 -30 -11 -33 -1 -39 -3 -22 -8 22 -6 20 -8 -22 -29 -26
-12 -51 -22 -57 -22 -6 0 -17 -6 -24 -14 -12 -12 -11 -15 8 -20 33 -8 8 -27
-44 -32 -42 -5 -43 -5 -24 12 l20 17 -20 -8 c-11 -4 -38 -11 -60 -15 -22 -4
-31 -8 -20 -9 40 -3 -16 -31 -64 -32 -36 -1 -41 -3 -21 -8 l25 -7 -34 -18
c-19 -10 -50 -27 -68 -37 -46 -26 -164 -25 -148 1 3 4 -14 6 -37 2 -39 -5 -42
-4 -29 11 9 12 30 17 65 18 l51 1 -60 12 -60 12 37 18 c38 18 50 18 163 1 27
-5 27 -4 8 5 -46 19 -21 39 50 41 23 0 36 3 30 6 -21 8 -15 17 18 32 16 7 28
15 26 18 -3 2 -29 -8 -58 -23 -42 -21 -51 -23 -39 -8 10 11 10 15 2 10 -7 -4
-36 -4 -65 0 -44 6 -48 8 -27 15 23 6 23 7 -8 8 -42 1 -33 17 15 26 28 5 33 9
22 16 -10 7 -4 8 20 4 26 -6 32 -4 26 6 -6 9 -3 10 11 5 38 -16 54 -18 54 -7
0 9 5 9 21 1 15 -9 24 -8 35 1 10 8 18 9 22 3 9 -12 102 -16 102 -4 0 4 17 15
38 23 20 9 31 16 25 16 -7 1 -13 5 -13 10 0 5 23 9 50 9 28 1 50 -3 50 -9z
m777 -16 c4 -10 10 -20 14 -23 4 -3 -70 -48 -163 -100 -94 -52 -239 -137 -322
-189 -144 -89 -204 -121 -163 -88 10 8 18 19 18 24 -1 4 7 8 17 9 29 2 63 24
56 36 -5 7 -2 9 9 5 10 -4 20 0 25 9 5 9 12 15 15 15 21 -3 27 0 21 11 -4 6
-3 8 3 5 6 -4 38 11 72 33 34 22 89 54 122 70 33 17 57 35 54 40 -4 6 1 7 11
3 12 -4 15 -3 10 5 -5 8 -1 10 10 5 12 -4 15 -3 10 5 -5 8 -2 10 8 6 11 -4 16
0 16 11 0 9 4 14 9 11 5 -3 12 2 15 11 6 15 -8 32 -27 33 -11 0 2 20 13 20 16
0 41 -32 36 -46 -3 -8 0 -11 10 -7 9 3 12 12 9 24 -4 11 0 26 9 35 15 14 16
14 16 -5 0 -12 5 -21 10 -21 6 0 10 10 10 23 0 40 35 62 47 30z m-651 -408 c3
-18 -291 -199 -307 -189 -7 4 -9 3 -5 -4 4 -6 -30 -32 -81 -63 -49 -29 -121
-75 -162 -102 -40 -27 -79 -50 -87 -51 -8 -1 -20 -9 -26 -18 -7 -9 -94 -69
-193 -134 -99 -64 -186 -121 -192 -127 -7 -5 -13 -6 -13 -1 0 5 15 19 33 32
17 12 27 22 21 22 -7 0 -17 -7 -24 -15 -17 -21 -40 -19 -40 4 0 14 9 20 35 23
19 2 36 0 38 -6 5 -15 27 3 27 24 0 20 27 35 32 18 6 -16 28 0 28 20 1 18 68
67 79 57 3 -4 -1 -10 -10 -15 -9 -5 -27 -18 -40 -30 -13 -11 -1 -6 28 11 30
18 50 36 47 44 -3 7 11 23 31 35 30 19 39 20 45 9 7 -10 11 -7 19 13 13 35 59
67 71 49 5 -10 12 -7 24 10 9 13 16 29 16 36 0 7 9 17 20 23 29 15 27 -13 -2
-34 l-23 -17 23 11 c13 6 25 17 28 25 3 8 12 11 20 8 9 -3 14 2 14 15 0 12 5
24 10 27 6 3 10 1 10 -4 0 -21 21 -11 30 14 5 14 15 25 21 25 8 0 7 -5 -2 -17
-13 -15 -12 -15 9 -4 12 6 22 18 22 25 0 19 45 46 71 43 18 -2 22 3 23 35 0
20 -2 34 -6 31 -5 -2 -8 3 -8 11 0 16 46 34 57 22 4 -3 -1 -6 -10 -6 -10 0
-17 -4 -17 -10 0 -5 9 -10 20 -10 11 0 20 -7 20 -15 0 -8 5 -15 11 -15 7 0 9
11 6 29 -5 24 -2 30 16 35 12 3 31 6 42 6 17 -1 14 -5 -15 -31 l-35 -30 53 32
c31 19 48 35 41 39 -7 5 -5 9 6 13 9 4 13 3 10 -3 -8 -13 1 -13 26 1 11 5 17
14 14 19 -4 6 1 7 11 3 13 -5 15 -3 9 8 -4 8 -5 11 0 7 7 -7 65 18 65 28 0 3
-4 2 -10 -1 -5 -3 -10 0 -10 9 0 8 6 16 13 19 15 5 20 1 23 -18z m7719 -575
c44 -7 81 -13 83 -15 8 -7 -40 -85 -52 -85 -7 0 -57 7 -112 15 -111 17 -202
19 -223 6 -26 -16 19 -28 149 -40 198 -18 314 -57 327 -110 9 -35 -7 -53 -68
-78 -111 -44 -373 -54 -606 -21 -69 9 -81 13 -71 25 9 11 13 11 19 1 6 -9 9
-4 9 13 0 15 8 36 18 47 16 19 20 20 92 7 135 -25 283 -15 206 14 -13 6 -82
15 -153 21 -172 15 -246 34 -290 73 -27 24 -30 58 -5 80 22 20 100 45 177 57
75 11 393 5 500 -10z m550 -5 c37 -23 50 -24 172 -25 135 0 176 6 152 21 -30
18 11 24 183 28 l181 3 -8 -158 c-4 -88 -8 -167 -7 -176 0 -12 -7 -18 -21 -19
-12 0 -110 -2 -217 -5 l-195 -5 -53 29 c-28 16 -50 31 -48 33 3 3 -3 5 -12 6
-10 1 -131 64 -269 140 l-251 138 141 5 c78 3 158 7 177 8 23 1 49 -7 75 -23z
m1675 -96 c177 -138 170 -132 147 -123 -9 3 -24 1 -32 -6 -12 -10 -14 -8 -10
9 3 16 -3 22 -31 27 -20 4 -32 11 -28 18 3 6 -2 2 -10 -8 -15 -18 -66 -30 -66
-15 0 4 -7 9 -15 13 -11 4 -15 -2 -15 -20 0 -24 3 -25 43 -24 60 3 69 1 62
-10 -3 -5 -23 -10 -43 -11 -30 0 -33 -2 -17 -9 11 -5 14 -9 8 -9 -21 -1 -15
-21 6 -21 11 0 23 -4 26 -10 3 -5 15 -10 25 -10 10 0 22 -4 25 -10 4 -6 -25
-10 -80 -10 -55 0 -84 4 -80 10 3 6 -3 10 -13 10 -21 0 -46 23 -36 33 4 4 -4
11 -17 16 -30 11 -112 72 -199 149 l-37 32 -184 0 -184 0 -55 50 -55 49 355 0
355 0 155 -120z m-5738 92 c82 -14 109 -22 159 -47 54 -27 67 -41 75 -81 5
-24 0 -37 -25 -65 -83 -95 -328 -158 -609 -158 -212 0 -345 23 -422 72 l-35
22 75 9 c41 4 121 14 177 21 84 10 108 10 134 -1 42 -18 174 -17 236 2 55 16
106 65 101 94 -8 42 -169 66 -258 39 l-45 -13 78 -3 c42 -2 77 -5 77 -7 0 -2
-8 -20 -17 -40 l-17 -35 -284 0 -283 0 22 31 c78 111 373 185 686 173 66 -3
145 -9 175 -13z m-2131 -2 c46 -6 90 -14 96 -18 7 -4 -30 -25 -86 -50 l-100
-43 -70 16 c-89 20 -210 21 -237 2 -18 -14 -18 -15 6 -20 14 -3 66 -9 117 -15
101 -11 156 -32 151 -59 -6 -29 -82 -77 -166 -105 -158 -52 -427 -76 -622 -55
-145 15 -145 17 -18 71 106 44 116 47 148 35 39 -14 204 -17 234 -5 37 15 0
28 -105 39 -57 5 -119 16 -136 23 -109 46 62 137 336 180 107 16 341 19 452 4z
m599 -11 l0 -23 142 5 c114 4 148 9 168 23 21 15 49 17 209 17 l186 0 -145
-83 c-80 -46 -221 -126 -313 -177 l-169 -93 -210 -1 c-139 -1 -211 2 -214 8
-6 19 -22 330 -18 338 3 5 86 8 185 8 179 0 179 0 179 -22z m3295 -1017 c192
-34 382 -91 369 -112 -3 -5 1 -6 9 -4 14 6 67 -30 67 -46 0 -5 -16 -9 -36 -9
-19 0 -33 4 -29 9 20 33 -168 105 -361 140 -216 39 -345 45 -514 26 -239 -27
-464 -90 -535 -151 l-30 -25 132 6 c81 4 133 3 137 -4 4 -6 -55 -10 -159 -11
-91 0 -165 3 -165 8 0 53 286 153 531 186 157 21 424 15 584 -13z m-6537 -12
c50 0 92 -3 92 -7 0 -4 48 -6 107 -5 60 2 157 0 218 -4 109 -6 109 -6 70 -20
-23 -8 -60 -12 -85 -9 -50 5 -247 19 -270 19 -8 0 -28 -4 -44 -8 -20 -5 -27
-5 -22 3 4 7 -5 9 -28 5 -19 -3 -43 -2 -53 2 -10 4 -58 7 -108 6 -83 0 -88 1
-60 13 16 8 43 12 60 9 16 -3 72 -5 123 -4z m6227 -9 c-3 -5 -27 -10 -53 -11
-26 0 -55 -3 -64 -7 -10 -4 36 -6 101 -6 65 1 124 4 130 8 7 5 9 1 5 -8 -4
-10 -1 -16 8 -16 8 0 24 -9 36 -20 11 -11 24 -16 27 -10 3 5 -8 16 -25 25 -16
8 -30 17 -30 19 0 5 25 8 120 11 l95 3 -90 -12 c-71 -9 -84 -13 -62 -19 15 -4
37 -17 49 -29 18 -18 33 -22 77 -21 36 1 50 -1 40 -8 -9 -6 2 -8 36 -8 44 1
46 2 20 9 l-30 8 30 0 c17 0 39 -3 50 -8 18 -7 18 -8 -8 -15 -35 -9 -215 4
-223 16 -3 5 -34 9 -70 9 -59 0 -64 -2 -65 -22 l-2 -23 -4 23 c-4 22 -6 22
-174 22 -146 0 -169 2 -169 16 0 8 -5 12 -10 9 -6 -4 -8 -11 -5 -16 4 -5 1 -9
-4 -9 -6 0 -11 4 -11 10 0 5 -8 7 -17 4 -10 -3 -7 2 7 10 14 8 35 15 47 16 12
0 28 8 35 18 14 21 11 20 123 31 44 4 81 8 83 9 2 1 0 -2 -3 -8z m6685 -10
c74 -6 139 -15 144 -20 4 -4 14 -6 21 -4 7 3 30 -4 52 -16 35 -19 29 -21 -14
-3 -12 4 -14 3 -8 -6 8 -14 -10 -31 -35 -31 -12 1 -11 3 3 11 45 27 -24 46
-207 59 -174 12 -406 -5 -406 -30 0 -12 28 -21 115 -36 l80 -14 -98 5 c-117 6
-233 29 -254 50 -8 9 -13 18 -10 21 23 23 389 31 617 14z m-11325 -11 c-3 -4
8 -2 25 4 23 9 35 9 50 -1 15 -9 26 -10 40 -2 27 15 47 13 32 -2 -17 -17 -253
-22 -264 -5 -6 9 -8 9 -8 0 0 -7 -7 -13 -15 -13 -8 0 -15 5 -15 11 0 5 -5 7
-10 4 -19 -12 -160 -17 -160 -6 0 6 -11 6 -31 1 -37 -11 -209 -10 -209 1 0 4
6 9 13 12 21 8 557 5 552 -4z m85 -49 c213 -10 315 -24 288 -41 -7 -5 -24 -8
-38 -8 -22 0 -23 1 -5 8 17 7 14 9 -15 14 -71 13 -306 19 -290 8 13 -9 12 -11
-5 -12 -11 -1 -29 -3 -40 -6 -11 -2 -45 -6 -75 -7 l-55 -4 50 7 50 8 -65 1
c-36 0 -87 -3 -115 -8 -47 -7 -48 -7 -12 -9 21 0 36 -5 32 -11 -3 -5 21 -11
57 -13 35 -2 22 -3 -27 -2 -50 2 -98 -1 -107 -6 -22 -12 -37 29 -17 42 9 6 2
8 -21 8 -19 0 -29 -3 -22 -6 18 -7 15 -23 -5 -24 -17 -1 -17 -2 0 -6 9 -2 17
-9 17 -14 0 -5 -59 -9 -135 -9 -110 0 -135 3 -135 14 0 8 6 17 13 19 7 3 4 6
-6 6 -10 1 -15 6 -12 11 3 6 -5 10 -19 10 -14 0 -28 -4 -31 -10 -3 -5 -32 -10
-64 -10 -43 0 -58 4 -58 14 0 11 14 14 61 13 34 -1 90 1 126 5 36 4 54 4 40
-1 -22 -7 -20 -8 20 -14 25 -4 70 -9 100 -11 51 -5 49 -4 -15 8 l-70 13 75 7
c47 5 98 4 138 -4 60 -11 139 -8 207 8 17 4 -193 9 -465 12 l-495 5 465 3
c256 1 562 -3 680 -8z"/>
<path d="M9046 5488 c-3 -29 -8 -146 -11 -260 l-5 -208 99 0 99 0 6 38 c3 20
8 137 12 260 l6 222 -100 0 -101 0 -5 -52z"/>
<path d="M5460 5473 c0 -10 7 -115 15 -233 8 -118 15 -227 15 -242 l0 -28 100
0 c89 0 100 2 100 18 0 12 -17 290 -30 500 0 1 -45 2 -100 2 -89 0 -100 -2
-100 -17z m199 -374 l0 -61 -47 7 c-26 4 -51 11 -57 17 -7 8 -6 9 4 3 15 -9
32 12 24 31 -7 18 -43 -15 -43 -39 0 -23 -24 -17 -28 7 -2 10 4 26 14 37 14
16 15 19 2 14 -11 -4 -17 1 -20 19 -5 25 -4 25 66 28 39 2 74 2 78 0 3 -1 7
-30 7 -63z"/>
<path d="M8449 3426 c-2 -2 -456 -6 -1009 -10 -553 -3 -1142 -9 -1310 -13
l-305 -6 -42 -30 c-42 -30 -43 -32 -43 -89 0 -51 2 -58 20 -58 11 0 20 7 20
15 0 18 -16 20 -23 3 -3 -7 -6 10 -6 38 l-1 52 123 6 c67 3 804 11 1637 17
833 6 1516 13 1518 14 2 2 -17 17 -42 34 l-45 32 -245 -1 c-134 -1 -246 -3
-247 -4z"/>
<path d="M4889 3180 c-42 -22 -58 -36 -61 -55 -3 -14 -1 -28 4 -31 4 -3 5 -10
2 -16 -4 -6 -10 -5 -15 3 -7 11 -9 10 -9 -4 0 -10 -5 -15 -10 -12 -6 4 -7 11
-4 17 4 6 8 24 10 40 l4 28 -22 -20 c-12 -11 -28 -20 -35 -20 -8 0 -11 -5 -8
-10 4 -6 10 -8 15 -5 5 3 12 -6 16 -20 3 -14 10 -25 16 -25 5 0 6 -15 2 -35
-5 -28 -3 -35 10 -35 9 0 16 -8 16 -21 0 -11 -4 -17 -11 -14 -6 5 -9 -10 -8
-44 1 -27 6 -48 11 -45 4 3 8 11 8 17 0 7 6 24 14 39 10 18 11 28 3 31 -7 2
-5 14 6 35 8 18 11 32 6 32 -6 0 -7 6 -3 13 4 6 -2 4 -13 -6 -20 -17 -20 -17
-16 7 4 21 9 24 23 16 9 -5 21 -6 25 -2 4 4 5 0 3 -8 -3 -8 -1 -22 3 -32 6
-11 4 -18 -9 -23 -15 -6 -14 -8 5 -16 14 -5 21 -14 17 -22 -6 -18 22 -30 43
-19 13 8 13 10 -2 16 -9 3 -20 4 -24 1 -10 -6 -10 27 -1 40 11 15 4 44 -16 66
-18 19 -17 20 24 13 37 -6 42 -4 36 10 -7 17 11 22 21 6 4 -6 11 -8 16 -5 5 4
9 -1 9 -10 0 -19 36 -60 43 -48 6 11 3 46 -7 61 -4 6 -16 12 -27 12 -19 0 -26
14 -11 23 4 2 2 2 -5 1 -15 -4 -23 19 -23 67 0 21 -3 39 -7 39 -5 -1 -33 -14
-64 -30z"/>
<path d="M9385 3106 c17 -14 34 -26 38 -26 5 0 5 -5 2 -10 -4 -6 -3 -9 2 -8
21 6 53 -24 52 -50 0 -26 -1 -26 -9 -4 -9 21 -15 22 -102 22 -52 0 -87 -4 -80
-8 9 -6 6 -12 -12 -20 -27 -12 -41 -5 -26 13 7 8 -3 11 -38 9 -26 -1 -49 -3
-52 -4 -3 -1 -17 -1 -32 0 -22 1 -28 -3 -28 -19 0 -16 6 -21 24 -21 14 0 28
-4 31 -10 4 -6 -6 -10 -23 -10 -25 0 -33 7 -50 43 l-21 42 6 -44 c4 -38 3 -43
-12 -37 -9 3 -21 6 -26 6 -5 0 -9 8 -9 18 0 10 -5 23 -10 28 -18 18 -1 46 23
38 19 -6 20 -5 5 10 -21 20 -48 21 -48 1 0 -8 -5 -15 -11 -15 -6 0 -9 6 -6 14
4 10 0 14 -14 13 -30 -2 -25 -37 6 -37 14 0 25 -5 25 -10 0 -6 -11 -8 -25 -6
-23 4 -25 2 -26 -32 0 -20 -3 -31 -6 -24 -4 10 -9 9 -19 -5 -12 -15 -13 -15
-8 -2 3 10 1 20 -5 23 -6 4 -8 25 -4 52 3 25 2 44 -3 43 -23 -4 -34 3 -34 21
0 11 -5 20 -11 20 -5 0 -7 -4 -4 -10 3 -5 0 -10 -7 -10 -7 0 -18 -10 -23 -22
-6 -14 -22 -26 -40 -29 -24 -5 -26 -7 -7 -8 13 0 31 -8 39 -17 9 -9 26 -14 40
-11 13 2 26 0 30 -6 3 -5 2 -7 -4 -4 -5 3 -21 0 -36 -8 -24 -12 -27 -12 -27 1
0 9 -5 12 -12 8 -6 -4 -8 -3 -4 4 4 7 -7 12 -31 14 -31 2 -39 7 -41 26 -2 12
-9 22 -17 22 -14 0 -29 -45 -20 -60 3 -5 -5 -6 -17 -3 -39 10 -228 11 -222 1
6 -10 -34 -3 -79 14 -28 11 -51 3 -30 -10 7 -4 9 -13 4 -21 -6 -9 -9 -8 -13 7
-3 11 -17 21 -32 24 -22 4 -26 2 -22 -11 5 -14 5 -14 -6 -1 -9 10 -27 14 -55
12 -38 -3 -43 -6 -43 -28 l0 -24 124 0 c91 0 125 3 129 13 4 14 144 12 162 -3
6 -5 30 -9 54 -8 28 0 39 3 30 9 -8 5 -9 9 -3 9 6 0 17 -7 24 -15 10 -12 10
-15 -3 -15 -9 0 -19 -5 -23 -11 -4 -8 1 -9 16 -4 20 6 22 5 17 -16 -4 -13 -7
-27 -7 -31 0 -5 -89 -8 -197 -9 -109 -1 -187 -4 -174 -8 21 -6 22 -8 7 -20 -9
-7 -16 -16 -16 -20 0 -4 47 -7 105 -7 57 -1 102 3 99 7 -6 10 11 11 106 9 71
-2 94 -9 64 -21 -18 -7 -18 -8 2 -8 11 -1 24 3 30 7 5 5 23 5 39 1 l30 -7 -31
-1 c-18 0 -34 -7 -38 -16 -7 -18 -42 -20 -50 -2 -5 10 -7 10 -12 0 -8 -18 -98
-17 -113 1 -9 11 -9 15 1 20 7 3 0 2 -17 -1 -16 -4 -35 -6 -41 -6 -6 0 -9 -9
-6 -20 3 -13 7 -15 12 -6 6 8 11 6 18 -7 9 -17 6 -19 -35 -22 -25 -2 -51 2
-59 9 -10 8 -14 8 -14 0 0 -6 -17 -11 -41 -11 -22 0 -38 4 -34 9 3 5 0 13 -6
17 -8 4 -9 3 -5 -4 7 -11 -4 -15 -64 -26 -14 -2 -5 -4 20 -4 372 0 682 -3 679
-7 -3 -2 -98 -5 -212 -6 -114 -1 -207 -4 -207 -8 0 -4 5 -12 12 -19 9 -9 4
-12 -25 -12 -20 0 -37 4 -37 8 0 10 -11 11 -139 17 -89 5 -102 3 -92 -9 9 -11
9 -16 0 -21 -8 -6 -8 -9 1 -15 7 -4 -26 -8 -74 -9 -53 -1 -85 2 -81 8 3 5 -1
13 -8 18 -8 4 -17 15 -20 23 -3 8 -6 -2 -6 -22 l-1 -38 285 0 c247 0 285 2
285 15 0 23 188 22 197 -1 6 -15 41 -16 402 -11 218 4 483 7 589 7 122 0 191
4 187 10 -3 5 -20 7 -38 5 -26 -4 -27 -3 -7 3 22 7 5 21 -175 147 -110 76
-217 150 -237 164 -20 14 -38 35 -40 45 -2 11 -9 21 -17 24 -8 3 -11 0 -7 -7
13 -20 -7 -12 -69 30 -33 22 -46 29 -30 15z m-167 -95 c7 -1 10 -6 7 -11 -4
-6 -16 -8 -27 -4 -14 4 -18 2 -14 -5 5 -7 61 -11 167 -11 135 0 159 2 159 15
0 22 13 18 46 -13 16 -16 38 -34 49 -40 19 -11 19 -11 -5 -12 -14 0 -32 5 -40
10 -12 8 -12 10 -1 10 8 0 11 3 7 8 -4 4 -86 7 -181 7 -95 0 -171 -3 -168 -7
2 -5 18 -8 34 -8 17 0 28 -4 24 -9 -3 -5 0 -13 6 -17 8 -4 9 -3 5 4 -4 7 6 13
28 17 42 8 68 4 73 -12 3 -8 -12 -13 -44 -16 -26 -2 32 -4 131 -5 98 0 182 -4
187 -9 4 -4 -96 -7 -224 -5 -151 2 -235 7 -242 14 -7 8 -5 9 7 5 15 -5 16 -3
6 16 -6 12 -14 29 -18 37 -4 8 -16 17 -26 18 -10 2 -23 7 -27 12 -5 4 4 5 19
2 17 -3 25 -1 20 6 -3 6 1 9 11 7 10 -2 24 -4 31 -4z"/>
<path d="M7830 3091 c-13 -26 -13 -31 3 -25 7 2 30 -2 52 -10 32 -11 36 -15
22 -21 -9 -4 -24 -2 -32 5 -17 14 -50 6 -40 -10 3 -5 1 -10 -6 -10 -8 0 -6 -6
4 -18 10 -10 14 -21 11 -24 -3 -3 1 -6 8 -5 44 1 78 -4 78 -14 0 -7 -10 -9
-24 -5 -15 4 -30 1 -38 -7 -11 -12 -16 -12 -26 0 -11 11 -16 10 -32 -9 l-19
-23 4 30 c2 17 6 37 10 46 3 10 1 20 -6 25 -9 5 -8 9 5 14 16 5 15 7 -6 17
-23 10 -24 9 -25 -31 -1 -80 -2 -86 -23 -86 -13 0 -20 7 -20 19 0 11 -6 22
-12 25 -10 5 -10 7 0 12 17 8 15 21 -3 28 -14 5 -15 -3 -12 -54 3 -38 0 -57
-6 -53 -6 3 -7 1 -4 -4 4 -6 24 -9 44 -7 21 2 33 1 26 -2 -7 -3 -9 -12 -6 -21
5 -12 3 -14 -7 -8 -9 5 -11 4 -6 -3 4 -7 16 -12 27 -12 11 0 17 4 14 10 -3 6
1 7 10 3 12 -4 13 -8 5 -13 -8 -5 -1 -10 19 -15 35 -7 40 -19 14 -34 -14 -8
-8 -9 21 -5 38 4 63 14 37 14 -7 0 -19 6 -26 14 -12 12 -12 15 3 22 9 4 24 8
32 8 8 1 14 7 13 14 -2 8 12 12 46 12 43 0 50 -3 54 -22 4 -19 4 -19 6 5 l1
28 -115 -2 c-64 -1 -119 1 -122 5 -4 3 48 6 115 6 102 0 122 2 122 15 0 19 29
20 36 1 4 -11 20 -14 52 -13 53 2 65 12 49 38 -11 18 -12 17 -24 -4 -7 -12
-12 -16 -13 -9 0 8 -5 10 -12 6 -9 -5 -9 -2 1 9 15 19 2 24 -16 6 -8 -8 -13
-7 -18 2 -5 8 -4 10 4 5 6 -4 14 0 17 8 3 9 10 14 14 11 10 -6 25 34 16 42 -3
3 -12 0 -21 -7 -12 -10 -15 -10 -15 1 0 22 17 42 28 35 6 -3 12 0 15 6 3 10
10 8 25 -6 21 -18 21 -18 13 10 -4 15 -13 30 -20 32 -10 3 -11 0 -5 -9 7 -12
5 -12 -9 -1 -9 8 -21 11 -26 8 -5 -4 -12 -2 -16 4 -3 5 -16 10 -28 10 -17 0
-19 -2 -8 -9 12 -8 12 -12 2 -24 -10 -13 -9 -15 8 -10 15 4 21 1 21 -11 0 -10
-4 -15 -9 -12 -4 3 -16 -3 -26 -14 -24 -26 -55 -26 -55 0 0 12 5 17 14 14 8
-3 17 0 21 6 4 7 -4 10 -22 9 -15 -2 -38 1 -50 5 -14 5 -23 3 -23 -3 0 -11 13
-15 38 -12 6 1 12 -3 12 -9 0 -5 -17 -10 -37 -10 -23 0 -33 3 -25 8 12 8 10
13 -38 70 -16 18 -48 15 -60 -7z"/>
<path d="M7567 2997 c-4 -15 -12 -27 -18 -27 -6 0 -7 6 -3 13 7 10 -6 3 -36
-21 -3 -3 12 -3 33 0 20 2 37 0 37 -4 0 -9 -26 -12 -88 -8 -24 1 -50 -4 -59
-12 -14 -11 -16 -11 -8 1 6 11 4 13 -8 8 -10 -3 -17 -2 -17 3 0 5 18 10 40 12
38 3 39 4 19 16 -11 8 -18 9 -14 3 3 -6 0 -11 -8 -11 -8 0 -19 10 -25 23 l-11
22 0 -25 c-1 -14 -5 -32 -10 -39 -11 -18 4 -52 22 -50 7 1 21 1 32 0 17 -1 18
-3 5 -11 -8 -5 -50 -10 -92 -10 -64 0 -76 -3 -72 -15 3 -8 18 -14 32 -15 15 0
79 -4 142 -8 81 -6 123 -5 144 4 l28 11 -32 7 c-18 3 -58 6 -89 6 -37 0 -51 3
-42 9 13 8 39 7 115 -4 25 -4 28 -2 23 17 -4 12 -3 27 2 32 15 19 19 55 7 60
-10 4 18 10 36 8 3 -1 8 5 11 12 4 9 -4 13 -24 12 -16 -1 -29 -4 -29 -8 0 -13
-28 -9 -32 4 -3 7 -8 1 -11 -15z"/>
<path d="M4986 2992 c-4 -7 -4 -16 -1 -22 3 -5 3 -16 -1 -22 -11 -18 -12 -48
-2 -54 4 -3 8 -14 8 -25 0 -21 16 -26 22 -7 2 6 14 -6 26 -27 15 -24 18 -36 9
-32 -15 6 -57 -21 -156 -98 l-64 -50 39 -7 39 -6 -45 1 c-42 2 -53 -4 -175
-93 l-129 -95 39 -7 40 -6 -45 2 c-41 2 -52 -3 -119 -53 l-75 -56 45 -7 44 -6
-50 2 c-50 2 -51 1 -245 -143 -107 -80 -292 -217 -410 -304 -118 -88 -297
-221 -398 -296 -100 -75 -194 -144 -210 -154 -26 -16 28 -17 1203 -12 677 3
1462 7 1745 10 283 3 545 5 583 5 l67 0 0 111 0 110 -612 -5 c-1075 -10 -2677
-13 -2548 -6 69 4 451 8 850 9 399 1 768 3 820 5 52 2 407 4 788 5 l692 1 0
96 0 97 -257 -6 c-142 -4 -404 -7 -583 -8 -179 -1 -318 -3 -308 -6 9 -2 19
-11 22 -19 3 -8 2 -13 -3 -10 -5 3 -14 -1 -21 -9 -7 -8 -28 -15 -46 -15 -19 0
-34 -4 -34 -8 0 -8 -43 -32 -55 -32 -3 0 -5 9 -5 20 0 18 -7 20 -70 20 -38 0
-70 4 -70 8 0 18 36 41 70 45 19 2 -345 3 -810 2 -506 -2 -777 0 -675 4 94 5
771 11 1505 15 734 4 1335 8 1335 9 0 1 -1 37 -3 80 l-4 78 -1296 -6 c-713 -3
-1336 -8 -1384 -10 -49 -2 -88 0 -88 4 0 7 843 15 2404 23 l369 2 -7 70 c-4
39 -7 102 -6 140 l1 69 -458 -6 c-664 -9 -1853 -13 -1853 -6 0 7 1115 18 1838
18 529 0 479 -7 466 73 l-6 37 -228 1 c-124 0 -230 -3 -234 -7 -4 -5 -34 -6
-67 -5 -40 3 -59 0 -59 -8 0 -8 10 -9 30 -5 17 4 30 2 30 -3 0 -5 -21 -10 -46
-11 -54 -2 -72 -9 -53 -23 11 -8 11 -9 -1 -5 -20 5 -20 29 0 44 13 11 13 12
-2 13 -9 0 -19 -8 -22 -18 -3 -10 -14 -18 -23 -18 -10 0 -29 -4 -41 -8 l-24
-8 22 22 c21 21 21 23 6 32 -10 6 -20 7 -23 4 -4 -3 -1 -6 5 -6 6 0 9 -7 6
-15 -4 -8 -17 -15 -29 -15 -13 0 -40 -9 -59 -21 -32 -18 -34 -19 -30 -2 4 16
-2 18 -45 18 -28 1 -54 4 -58 9 -10 9 26 38 38 30 5 -3 9 0 9 6 0 7 -8 9 -22
4 -19 -6 -18 -3 7 20 17 15 24 25 18 21 -9 -4 -13 3 -13 24 l0 31 -62 -2 c-35
0 -48 -3 -30 -5 32 -4 46 -23 17 -23 -24 0 -17 -27 9 -34 13 -3 26 -15 29 -26
5 -19 0 -20 -126 -20 -116 -1 -130 -2 -113 -15 13 -10 25 -11 43 -4 13 5 61 8
105 7 66 -1 78 -3 64 -13 -9 -7 -16 -18 -16 -24 0 -7 -5 -11 -11 -9 -6 2 -10
7 -9 12 2 9 -19 26 -33 26 -4 0 -7 -6 -6 -12 4 -34 -2 -48 -21 -48 -11 0 -20
4 -20 9 0 4 -18 11 -41 14 -22 3 -46 13 -53 22 -10 14 -17 15 -33 7 -20 -11
-33 -7 -33 10 0 4 10 9 23 10 12 2 -201 5 -473 8 l-495 5 489 3 c433 2 488 4
470 17 -19 14 -19 14 1 14 11 0 31 -6 45 -14 14 -8 34 -14 44 -15 20 0 20 0 0
15 -10 8 -29 15 -41 15 -16 0 -23 6 -23 20 0 11 7 20 16 20 8 0 13 4 9 9 -3 6
17 12 47 14 29 2 -2 4 -69 5 -88 1 -124 -1 -130 -11 -4 -6 -24 -20 -43 -29
-19 -9 -28 -17 -19 -17 9 -1 19 -7 22 -15 4 -11 -12 -14 -77 -15 -66 -1 -83 1
-83 13 0 8 14 17 34 21 19 3 33 12 33 20 0 8 5 15 10 15 6 0 10 5 10 10 0 12
-67 12 -95 0 -17 -7 -17 -9 -2 -9 18 -1 25 -31 6 -31 -5 0 -7 5 -4 10 3 6 -3
10 -15 10 -12 0 -18 5 -15 10 4 6 -7 10 -27 9 -18 -1 -25 -3 -15 -6 9 -2 15
-9 12 -14 -9 -14 -43 -11 -52 6 -7 13 -41 15 -201 16 -147 0 -189 3 -180 12 8
9 151 12 573 10 309 -1 572 1 584 4 17 4 19 8 10 19 -9 11 -15 11 -25 3 -11
-9 -14 -5 -14 25 0 20 -5 36 -11 36 -6 0 -8 -9 -4 -21 5 -15 4 -19 -4 -15 -6
4 -11 14 -11 22 0 8 -5 14 -11 14 -7 0 -9 -9 -6 -23 10 -37 -5 -49 -49 -42
-21 4 -34 3 -27 -2 6 -4 -28 -9 -79 -11 -60 -1 -87 1 -83 8 4 6 15 8 25 5 33
-10 33 15 1 28 -17 6 -31 15 -31 19 0 4 -12 8 -27 7 -27 0 -27 -1 -6 -11 28
-13 28 -58 1 -58 -21 0 -23 11 -6 28 9 9 5 12 -19 12 -25 0 -30 -3 -26 -18 4
-17 -3 -19 -61 -21 -56 -2 -65 0 -60 13 5 13 -1 16 -27 17 -19 0 -28 3 -21 6
6 2 10 9 6 14 -3 5 8 9 25 9 16 0 31 -5 33 -12 5 -13 28 -2 28 13 0 5 -112 9
-282 9 -155 0 -279 2 -277 4 5 4 323 15 504 17 84 1 118 4 95 9 -19 4 -29 8
-22 9 19 2 14 31 -5 33 -10 0 5 4 32 8 29 4 -64 8 -220 10 -148 2 -239 5 -202
7 49 3 66 7 60 16 -5 9 -3 9 8 1 16 -12 173 -18 231 -9 32 6 37 9 27 21 -9 11
-7 14 15 14 14 0 26 4 26 9 0 5 36 9 80 9 44 1 80 -3 80 -9 0 -14 72 -11 118
5 35 13 41 13 46 0 4 -10 -3 -14 -30 -14 -21 0 -33 -4 -29 -10 3 -5 -2 -10
-12 -11 -11 0 -13 -3 -5 -6 7 -3 20 1 28 8 13 10 17 10 25 -2 8 -12 12 -11 24
5 7 10 19 15 25 11 9 -6 9 -10 -1 -16 -9 -5 7 -9 42 -9 48 0 58 3 68 23 11 22
11 22 5 -3 -5 -20 -4 -23 7 -12 16 14 33 16 24 2 -3 -5 -2 -10 4 -10 5 0 13 9
16 20 3 11 13 20 22 20 10 0 14 -6 10 -20 -4 -17 0 -20 31 -19 l37 1 -30 8
c-27 7 -26 8 15 9 26 0 51 6 58 13 9 9 11 6 7 -10 -3 -19 1 -22 31 -22 26 0
33 3 28 13 -6 9 -5 9 7 0 8 -7 43 -12 79 -11 44 0 58 3 45 8 -19 8 -19 9 2 9
12 1 25 -3 28 -9 4 -6 50 -10 108 -9 99 1 101 1 54 12 -56 14 -53 30 4 21 22
-4 45 -2 51 3 7 5 31 6 53 2 22 -3 30 -7 18 -8 -12 0 -25 -6 -29 -12 -10 -17
44 -2 63 16 12 12 11 16 -7 27 -30 19 -25 23 32 24 30 0 53 5 56 12 2 8 13 8
38 -3 32 -13 34 -13 34 7 0 16 -5 19 -25 16 -13 -3 -22 -1 -19 3 3 5 12 9 20
9 10 0 13 8 10 24 -3 15 1 27 10 30 8 3 14 11 14 17 0 8 -5 7 -17 -2 -10 -8
-14 -9 -10 -2 12 19 -15 28 -28 10 -7 -9 -14 -15 -16 -12 -3 2 -3 -14 -1 -36
3 -25 0 -39 -8 -39 -6 0 -8 4 -5 10 4 7 -3 7 -20 0 -33 -13 -48 -13 -40 0 4 6
-8 10 -29 10 -20 0 -36 -4 -36 -10 0 -5 -20 -10 -45 -10 -37 0 -43 -3 -38 -16
5 -14 0 -15 -38 -8 -71 12 -128 11 -134 -5 -3 -9 -15 -12 -33 -8 -15 2 -36 1
-47 -4 l-20 -9 20 1 c46 3 69 -1 60 -10 -12 -11 -103 -31 -119 -26 -6 2 -24 6
-39 9 -17 4 -25 11 -21 18 4 6 1 9 -7 6 -8 -3 -13 -11 -11 -17 1 -7 -2 -10 -8
-6 -6 3 -8 10 -6 14 3 4 -1 8 -9 8 -8 0 -12 -4 -9 -8 2 -4 0 -11 -6 -14 -6 -4
-9 -1 -8 6 2 6 -12 16 -31 21 -19 5 -35 17 -38 28 -3 10 -15 21 -27 23 -13 3
-9 5 13 6 25 1 32 -2 28 -14 -4 -8 -2 -17 3 -20 6 -4 10 3 10 14 0 12 8 21 23
24 12 3 -31 5 -95 4 -65 -1 -118 1 -118 5 0 5 9 8 20 8 l20 0 -20 40 c-11 21
-20 48 -20 60 0 11 -3 20 -7 20 -11 0 -10 -92 1 -109 7 -11 5 -13 -10 -7 -16
6 -16 4 4 -17 12 -13 22 -30 22 -39 0 -9 6 -19 13 -21 16 -7 -7 -9 -125 -11
-67 -1 -92 1 -81 8 9 5 42 8 72 7 60 -2 74 9 60 46 -4 12 -6 31 -2 40 5 15 3
15 -11 -2 -17 -20 -17 -20 -10 5 4 14 11 28 16 31 5 3 3 9 -6 12 -21 8 -62
-43 -44 -54 21 -13 -25 -24 -81 -21 -49 4 -51 5 -51 34 0 21 4 27 13 22 9 -6
9 -5 0 8 -7 8 -10 18 -6 22 4 4 0 4 -9 1 -9 -4 -19 -13 -22 -21 -3 -9 -11 -12
-16 -9 -6 4 -9 1 -8 -6 2 -7 -8 -18 -22 -26 -25 -12 -25 -13 -2 -13 12 0 22 6
22 13 0 8 3 7 10 -3 5 -8 7 -16 5 -18 -2 -3 -45 -6 -94 -8 -50 -2 -99 -8 -110
-14 -11 -5 -26 -10 -33 -9 -7 0 -4 4 7 9 14 6 0 9 -47 9 -37 1 -70 -3 -73 -9
-3 -5 -16 -10 -28 -9 -22 0 -22 0 1 10 13 5 20 14 17 20 -5 7 -16 3 -31 -12
-26 -24 -38 -20 -40 14 -1 12 -6 35 -13 50 -6 16 -11 37 -11 48 0 21 -15 25
-26 7 -5 -8 -9 -6 -14 7 -5 13 -9 15 -14 7z m927 -773 c5 -17 3 -18 -10 -7
-12 10 -17 9 -28 -5 -7 -9 -19 -17 -28 -17 -20 0 -33 -20 -19 -29 18 -11 -1
-28 -45 -40 -23 -6 -45 -16 -48 -21 -9 -15 -25 -12 -25 5 0 12 -14 15 -65 15
-36 0 -65 4 -65 9 0 15 23 29 55 34 17 2 -95 5 -249 5 -153 0 -281 3 -284 6
-3 3 112 6 255 6 l261 0 16 25 c14 22 24 25 70 25 60 0 89 -7 80 -21 -3 -5 4
-9 15 -9 15 0 19 4 14 17 -5 14 -1 15 29 10 19 -3 41 -1 49 4 8 5 15 9 15 9 1
0 4 -9 7 -21z"/>
<path d="M7060 2865 c0 -9 -19 -24 -41 -34 l-41 -19 28 -14 c20 -9 29 -21 28
-36 -1 -21 3 -22 90 -22 118 1 430 17 485 26 l43 7 -30 13 c-20 8 -59 11 -109
8 -53 -2 -70 -1 -53 5 24 9 24 9 -8 10 -20 1 -31 -3 -27 -9 4 -6 -9 -10 -33
-10 -22 0 -45 -6 -51 -14 -8 -10 -34 -14 -79 -15 -46 0 -62 3 -52 9 8 5 26 10
40 10 30 0 16 16 -20 23 -14 2 13 6 60 7 l85 4 -80 6 c-75 6 -77 7 -25 9 44 2
50 5 30 11 -14 4 -41 9 -60 10 -25 2 -28 4 -12 7 39 8 24 23 -23 23 -45 0 -45
0 -46 -35 -1 -19 -3 -39 -4 -45 -1 -5 -3 -16 -4 -24 -1 -14 -81 -28 -81 -14 0
4 17 9 38 11 l37 4 -36 1 c-34 2 -35 3 -31 35 3 17 10 35 16 39 7 5 6 8 -4 9
-8 1 -1 5 15 9 30 8 30 8 -7 9 -28 1 -38 -3 -38 -14z"/>
<path d="M7115 2720 c6 -10 -13 -13 -117 -15 -32 0 -61 -4 -64 -8 -4 -4 -18
-7 -30 -7 -25 0 -40 -15 -24 -23 6 -3 5 -4 -2 -3 -7 2 -12 10 -10 20 2 9 -4
16 -13 16 -9 0 -13 -4 -10 -10 3 -5 1 -10 -4 -10 -6 0 -11 9 -11 19 0 14 -7
18 -24 17 -13 0 -22 -4 -19 -8 2 -5 0 -8 -6 -8 -5 0 -12 6 -14 13 -3 6 -6 -5
-6 -25 l-1 -38 136 0 c87 0 133 4 129 10 -4 6 8 10 29 10 20 0 36 -4 36 -10 0
-6 42 -9 108 -9 59 1 96 4 83 6 -19 4 -21 7 -10 14 17 11 -57 6 -83 -6 -10 -4
-26 -4 -35 0 -17 7 -17 8 -1 14 15 5 15 8 -2 29 -18 21 -47 32 -35 12z"/>
<path d="M7740 2719 c0 -5 4 -9 9 -9 5 0 8 -12 7 -27 l-2 -28 131 3 131 3 2
35 3 35 -141 -2 c-77 0 -140 -5 -140 -10z"/>
<path d="M6275 2710 c28 -7 29 -8 8 -15 -13 -4 -20 -11 -17 -16 3 -5 10 -7 15
-4 5 3 6 -1 3 -9 -5 -14 14 -16 166 -16 111 0 169 3 165 10 -3 6 -2 10 4 10 5
0 12 -6 14 -12 4 -10 6 -10 6 0 1 6 8 12 16 12 8 0 15 4 15 9 0 5 8 12 18 14
16 4 16 5 0 6 -10 0 -18 6 -18 11 0 6 -77 10 -212 9 -122 -1 -200 -5 -183 -9z"/>
<path d="M9850 2660 c-91 -3 -352 -7 -580 -8 -228 -1 -417 -6 -420 -11 -3 -4
-23 -11 -45 -15 -22 -4 -45 -12 -51 -17 -13 -10 -44 -2 -44 12 0 5 -13 9 -30
9 -16 0 -30 5 -30 10 0 6 -15 10 -32 9 -18 0 -27 -3 -20 -6 6 -2 12 -13 12
-23 0 -13 -5 -17 -20 -13 -15 4 -20 0 -20 -13 -1 -18 -1 -18 -11 -1 -5 9 -19
17 -31 17 -15 0 -19 5 -15 19 4 17 -3 18 -138 17 -119 -1 -141 -3 -137 -15 4
-11 1 -12 -14 -6 -10 4 -35 10 -54 12 -26 3 -31 2 -20 -6 8 -6 16 -19 16 -30
1 -17 -2 -19 -20 -9 -20 11 -20 11 -1 20 15 6 10 7 -16 4 -42 -5 -76 10 -38
17 23 4 22 4 -3 6 -16 0 -29 -3 -29 -9 -1 -5 -2 -23 -3 -40 l-1 -30 328 0
c329 0 334 0 328 33 -1 5 3 6 8 2 6 -3 8 -12 5 -19 -4 -10 14 -12 84 -9 49 2
99 -1 113 -6 16 -7 -118 -10 -411 -12 -239 -1 -441 -2 -447 -2 -9 1 -13 -15
-13 -48 l0 -49 348 2 c282 3 346 5 344 16 -1 8 2 11 8 7 5 -3 10 -1 10 4 0 18
205 14 219 -3 9 -11 9 -15 -1 -18 -9 -3 -9 -6 0 -12 7 -4 12 -2 12 3 0 8 200
10 658 9 l657 -2 -545 -7 c-300 -4 -592 -8 -649 -8 -93 0 -103 -2 -91 -15 11
-14 9 -16 -14 -16 -31 0 -42 3 -39 11 1 3 -26 6 -60 5 -56 0 -59 -1 -29 -9 17
-6 32 -16 32 -23 0 -17 -5 -17 -33 -2 -12 6 -33 13 -45 14 -13 2 -31 11 -39
21 -14 17 -14 17 -9 -2 6 -19 5 -19 -8 -2 -12 16 -42 17 -370 17 l-356 0 0
-56 0 -57 460 5 c254 3 463 1 466 -4 3 -4 -2 -8 -10 -8 -10 0 -13 -6 -10 -17
5 -17 5 -17 -5 -1 -10 15 -51 17 -456 18 l-445 1 0 -142 0 -142 435 6 c268 3
435 2 435 -4 0 -5 -171 -9 -435 -9 l-435 0 0 -81 0 -82 1538 7 c845 5 1535 6
1532 3 -4 -4 -835 -14 -1490 -18 -102 -1 -178 -3 -168 -6 9 -2 18 -10 21 -16
3 -9 -31 -12 -136 -11 -95 0 -142 4 -145 12 -2 8 30 13 105 15 59 2 -199 4
-574 3 l-683 -1 0 -94 0 -94 1683 5 c925 3 1439 2 1142 -2 -297 -4 -1017 -9
-1600 -11 -583 -2 -1097 -5 -1142 -7 l-83 -4 0 -109 0 -110 1853 7 c1018 4
1853 8 1854 8 1 1 -41 33 -95 71 -53 38 -117 83 -142 101 -25 18 -245 172
-490 344 -268 187 -444 317 -444 326 1 10 -4 13 -18 8 -11 -3 -23 -2 -27 3 -3
5 -21 19 -39 32 -24 17 -30 27 -23 34 17 17 13 45 -6 56 -10 5 -17 13 -15 18
2 4 -2 9 -9 12 -8 2 -10 -2 -6 -12 3 -9 0 -18 -9 -21 -8 -3 -14 -16 -14 -30 0
-28 -13 -35 -50 -27 l-25 5 29 6 c16 3 31 10 33 15 2 6 -51 48 -116 94 l-120
83 -268 -1 c-147 -1 -413 -4 -590 -8 -241 -4 -323 -3 -323 5 0 9 149 12 581
12 331 0 578 4 575 9 -3 5 -25 7 -48 6 -39 -2 -40 -2 -8 4 l35 6 -53 38 c-29
20 -53 36 -55 35 -1 -1 -76 -5 -167 -8z m-119 -274 c-9 -11 -9 -16 0 -22 7 -4
15 -2 17 5 3 9 7 9 18 0 7 -6 31 -9 53 -7 22 2 37 0 35 -4 -3 -5 -4 -9 -2 -10
2 -1 131 -5 288 -8 l285 -6 -262 -2 c-151 -1 -263 -6 -263 -11 0 -5 -29 -11
-65 -13 -47 -2 -64 0 -61 9 3 6 -1 17 -9 23 -12 10 -13 8 -10 -9 2 -12 0 -21
-6 -21 -5 0 -9 6 -9 13 0 9 -3 8 -9 -2 -6 -8 -11 -10 -15 -3 -4 8 -119 9 -366
5 -267 -4 -360 -3 -360 6 0 8 94 11 351 11 208 0 348 4 345 9 -4 5 6 19 21 30
33 24 40 26 24 7z m-559 -154 c10 -10 10 -15 -2 -22 -10 -6 103 -11 315 -12
l330 -3 -304 -2 -303 -3 16 -25 16 -25 -64 0 c-50 0 -67 -4 -74 -16 -9 -15
-12 -15 -38 -1 -29 16 -82 32 -96 29 -4 -1 -5 5 -2 13 4 8 11 15 16 15 6 0 5
6 -2 15 -7 8 -18 15 -26 15 -7 0 -18 8 -23 18 -9 17 -2 18 109 17 83 0 123 -4
132 -13z m1688 -183 c9 -5 -255 -9 -615 -9 -346 0 -773 -3 -947 -7 -235 -4
-318 -3 -318 5 0 9 226 13 868 14 477 2 896 4 932 4 36 1 72 -2 80 -7z"/>
<path d="M7895 2643 c-119 -4 -148 -9 -126 -22 19 -12 15 -25 -11 -33 l-23 -6
25 -2 c24 -2 23 -3 -5 -10 -18 -5 28 -8 118 -9 l147 -1 0 45 c0 25 -3 44 -7
43 -5 -1 -57 -4 -118 -5z"/>
<path d="M6813 2633 l-53 -4 0 -40 0 -39 153 1 c83 1 139 4 124 6 -16 3 -31
11 -34 19 -4 11 -9 12 -18 4 -9 -8 -15 -8 -20 0 -4 6 -1 9 6 8 6 -2 14 3 16
10 3 8 -1 10 -11 6 -9 -3 -16 -1 -16 6 0 6 5 8 10 5 6 -3 10 -2 10 3 0 21 -32
24 -167 15z"/>
<path d="M6997 2633 c-11 -10 -8 -25 3 -18 6 3 7 -1 4 -9 -5 -13 3 -16 42 -18
l49 -1 -45 -7 -45 -7 38 -1 c20 -1 37 -7 37 -13 0 -8 16 -9 53 -5 28 4 135 8
237 8 102 0 177 2 168 5 -21 5 -23 19 -5 26 6 3 2 6 -10 6 -13 1 -23 -3 -23
-9 0 -5 -9 -10 -21 -10 -15 0 -19 5 -15 15 3 9 0 15 -9 15 -8 0 -15 4 -15 9 0
6 19 12 43 14 23 2 4 4 -43 5 -63 1 -81 -2 -69 -10 14 -9 13 -13 -6 -32 -29
-29 -131 -36 -150 -9 -13 17 -14 17 -34 -1 -27 -25 -36 -15 -23 23 l11 31 -40
0 c-21 0 -39 -4 -39 -10 0 -5 -17 -9 -37 -9 -38 1 -38 1 -8 9 l30 8 -36 1
c-20 0 -39 -2 -42 -6z"/>
<path d="M5924 2606 c0 -14 4 -22 8 -20 4 3 8 3 8 0 0 -3 -15 -12 -32 -20 -29
-12 19 -14 395 -15 l428 -1 -3 37 c-2 29 -8 39 -23 41 l-20 4 20 -16 c19 -15
18 -15 -22 -16 -32 0 -41 3 -37 14 4 11 -29 14 -183 15 -125 1 -183 -2 -173
-8 8 -6 25 -8 37 -4 17 4 23 1 23 -12 0 -14 -3 -15 -15 -5 -10 9 -15 9 -15 1
0 -7 -21 -11 -56 -11 -33 0 -53 -4 -49 -10 3 -5 -4 -11 -17 -14 -29 -6 -168
-5 -148 1 8 3 22 7 30 10 28 10 49 10 43 -1 -4 -6 -2 -7 3 -3 5 5 9 14 9 20 1
7 6 11 13 10 7 -2 9 4 5 13 -5 15 -7 15 -15 0 -5 -9 -18 -16 -29 -16 -11 0
-30 -5 -42 -11 -16 -9 -22 -9 -25 0 -2 6 -26 11 -58 11 -43 0 -52 3 -48 15 4
8 2 15 -3 15 -5 0 -9 -11 -9 -24z"/>
<path d="M7790 2541 c0 -3 -232 -5 -515 -3 l-515 3 0 -34 c0 -68 -2 -67 146
-67 77 0 134 4 134 9 0 6 -15 12 -32 14 -25 3 -22 4 15 5 27 1 47 -2 47 -9 0
-5 -6 -7 -12 -3 -9 5 -10 4 -3 -3 14 -15 83 -4 89 14 3 8 2 23 -4 33 -13 24
19 38 36 16 14 -20 24 -20 24 0 0 9 6 14 12 12 8 -3 12 -19 10 -41 -3 -34 -1
-37 21 -37 34 0 43 28 14 40 -18 7 -19 9 -4 9 20 1 50 -23 45 -36 -2 -4 62 -9
142 -10 132 -2 142 -1 110 12 -20 8 -27 14 -17 14 14 1 17 6 12 21 -4 11 -2
20 4 20 6 0 11 -9 11 -20 0 -13 7 -20 20 -20 11 0 19 -6 18 -12 -4 -16 100
-24 115 -9 6 6 31 10 57 9 l45 -1 -50 -7 c-34 -5 -1 -7 103 -8 l152 -2 0 49 0
48 -115 0 c-63 0 -115 -3 -115 -6z"/>
<path d="M6360 2533 c-46 -2 -89 -8 -96 -14 -8 -7 -14 -7 -19 1 -3 5 -26 10
-51 10 -25 0 -43 -4 -40 -9 3 -5 -10 -16 -29 -25 -43 -21 -45 -27 -4 -16 17 5
39 5 52 0 17 -7 18 -9 5 -9 -10 -1 -18 -5 -18 -11 0 -5 -20 -10 -43 -10 -32 0
-49 6 -63 21 -19 22 -19 22 4 10 18 -10 22 -9 22 4 0 11 -11 15 -39 15 -44 0
-64 16 -29 23 13 2 -23 5 -79 6 -65 0 -103 -3 -103 -9 0 -6 13 -13 29 -16 37
-8 48 -32 19 -43 -14 -5 -2 -8 40 -8 34 0 59 4 56 9 -8 12 58 10 76 -3 13 -9
12 -10 -2 -5 -10 3 -18 1 -18 -4 0 -5 144 -9 350 -10 l350 0 0 50 0 50 -39 0
c-22 0 -47 -3 -56 -7 -15 -5 -14 -8 6 -20 l24 -13 -30 2 c-19 2 -30 9 -30 18
0 16 -72 20 -245 13z"/>
<path d="M7619 2432 c-59 -3 -66 -5 -62 -21 3 -14 -2 -20 -24 -24 -15 -3 -35
-1 -43 4 -11 6 -8 8 13 9 16 0 26 4 23 9 -4 5 0 11 6 14 7 3 -161 6 -374 6
l-388 1 0 -56 0 -57 158 6 c86 4 307 7 490 7 l332 0 -4 25 c-4 23 -2 25 37 25
27 0 37 -3 28 -9 -7 -5 -21 -6 -31 -4 -10 3 -21 0 -24 -6 -5 -7 8 -11 36 -12
l43 -2 -40 -7 c-27 -5 5 -8 93 -9 l132 -1 0 56 0 55 -167 -3 c-93 -2 -198 -4
-234 -6z"/>
<path d="M7676 2312 c-2 -1 -206 -2 -455 -2 l-452 0 2 -60 c1 -33 5 -60 8 -60
3 0 5 -34 3 -75 l-4 -75 621 0 621 1 0 140 0 141 -171 -3 c-94 -2 -172 -5
-173 -7z"/>
<path d="M7021 2022 l-244 -2 7 -47 c3 -25 6 -61 6 -79 l0 -33 538 5 c295 2
572 4 615 4 l77 0 0 80 0 80 -377 -2 c-208 -2 -488 -4 -622 -6z"/>
<path d="M6790 1786 c0 -35 3 -78 6 -95 6 -31 7 -31 70 -31 41 0 64 4 64 11 0
8 5 8 15 -1 11 -10 54 -11 173 -6 86 3 325 6 530 6 l372 1 0 89 0 90 -615 0
-615 -1 0 -63z"/>
<path d="M6800 1562 l0 -88 60 4 c40 3 60 1 60 -7 0 -7 -21 -11 -55 -11 -42 0
-55 -3 -55 -15 0 -13 74 -15 604 -15 594 0 604 0 599 20 -4 15 -16 20 -62 23
l-56 3 56 2 c66 2 69 7 69 109 l0 63 -610 0 -610 0 0 -88z"/>
<path d="M6808 1363 l4 -48 160 3 161 4 -5 -26 -5 -26 257 0 257 0 23 25 c23
25 25 25 192 25 l168 0 0 45 0 45 -607 0 -608 0 3 -47z"/>
</g>
</svg>
